Exo2-Black.ufo
<glyph name="quotedbl" format="2">
  <advance width="393"/>
  <unicode hex="0022"/>
  <outline>
    <contour>
      <point x="358" y="690" type="line"/>
      <point x="214" y="690" type="line"/>
      <point x="226" y="462" type="line"/>
      <point x="346" y="462" type="line"/>
    </contour>
    <contour>
      <point x="179" y="690" type="line"/>
      <point x="35" y="690" type="line"/>
      <point x="47" y="462" type="line"/>
      <point x="167" y="462" type="line"/>
    </contour>
  </outline>
</glyph>
<glyph name="numbersign" format="2">
  <advance width="740"/>
  <unicode hex="0023"/>
  <outline>
    <contour>
      <point x="383" y="690" type="line"/>
      <point x="228" y="690" type="line"/>
      <point x="108" y="0" type="line"/>
      <point x="263" y="0" type="line"/>
    </contour>
    <contour>
      <point x="634" y="690" type="line"/>
      <point x="479" y="690" type="line"/>
      <point x="359" y="0" type="line"/>
      <point x="514" y="0" type="line"/>
    </contour>
    <contour>
      <point x="719" y="526" type="line"/>
      <point x="88" y="526" type="line"/>
      <point x="64" y="404" type="line"/>
      <point x="695" y="404" type="line"/>
    </contour>
    <contour>
      <point x="677" y="304" type="line"/>
      <point x="46" y="304" type="line"/>
      <point x="22" y="182" type="line"/>
      <point x="653" y="182" type="line"/>
    </contour>
  </outline>
</glyph>
<glyph name="ampersand" format="2">
  <advance width="761"/>
  <unicode hex="0026"/>
  <outline>
    <contour>
      <point x="335" y="704" type="curve" smooth="yes"/>
      <point x="132" y="704"/>
      <point x="57" y="682"/>
      <point x="57" y="520" type="curve" smooth="yes"/>
      <point x="57" y="418"/>
      <point x="89" y="369"/>
      <point x="172" y="361" type="curve"/>
      <point x="172" y="355" type="line"/>
      <point x="71" y="346"/>
      <point x="35" y="281"/>
      <point x="35" y="176" type="curve" smooth="yes"/>
      <point x="35" y="37"/>
      <point x="98" y="-14"/>
      <point x="251" y="-14" type="curve" smooth="yes"/>
      <point x="364" y="-14"/>
      <point x="418" y="9"/>
      <point x="472" y="60" type="curve"/>
      <point x="457" y="170" type="line"/>
      <point x="422" y="160"/>
      <point x="358" y="151"/>
      <point x="317" y="150" type="curve" smooth="yes"/>
      <point x="270" y="149"/>
      <point x="264" y="162"/>
      <point x="264" y="221" type="curve" smooth="yes"/>
      <point x="264" y="276"/>
      <point x="271" y="288"/>
      <point x="317" y="288" type="curve" smooth="yes"/>
      <point x="723" y="288" type="line"/>
      <point x="723" y="419" type="line"/>
      <point x="329" y="419" type="line" smooth="yes"/>
      <point x="285" y="419"/>
      <point x="275" y="433"/>
      <point x="275" y="486" type="curve" smooth="yes"/>
      <point x="275" y="542"/>
      <point x="285" y="553"/>
      <point x="329" y="553" type="curve" smooth="yes"/>
      <point x="395" y="553"/>
      <point x="435" y="551"/>
      <point x="476" y="550" type="curve"/>
      <point x="501" y="690" type="line"/>
      <point x="441" y="703"/>
      <point x="377" y="704"/>
    </contour>
    <contour>
      <point x="636" y="508" type="line"/>
      <point x="458" y="508" type="line"/>
      <point x="439" y="358" type="line"/>
      <point x="439" y="126" type="line" smooth="yes"/>
      <point x="439" y="38"/>
      <point x="496" y="-14"/>
      <point x="592" y="-14" type="curve" smooth="yes"/>
      <point x="630" y="-14"/>
      <point x="704" y="-6"/>
      <point x="742" y="12" type="curve"/>
      <point x="719" y="146" type="line"/>
      <point x="669" y="146" type="line"/>
      <point x="645" y="146"/>
      <point x="636" y="156"/>
      <point x="636" y="182" type="curve" smooth="yes"/>
    </contour>
  </outline>
</glyph>
<glyph name="quotesingle" format="2">
  <advance width="214"/>
  <unicode hex="0027"/>
  <outline>
    <contour>
      <point x="179" y="690" type="line"/>
      <point x="35" y="690" type="line"/>
      <point x="47" y="462" type="line"/>
      <point x="167" y="462" type="line"/>
    </contour>
  </outline>
</glyph>
<glyph name="parenright" format="2">
  <advance width="372"/>
  <unicode hex="0029"/>
  <outline>
    <contour>
      <point x="30" y="790" type="curve"/>
      <point x="6" y="702" type="line"/>
      <point x="110" y="660"/>
      <point x="144" y="517"/>
      <point x="144" y="313" type="curve" smooth="yes"/>
      <point x="144" y="113"/>
      <point x="110" y="-31"/>
      <point x="6" y="-77" type="curve"/>
      <point x="30" y="-165" type="line"/>
      <point x="249" y="-108"/>
      <point x="347" y="42"/>
      <point x="347" y="312" type="curve" smooth="yes"/>
      <point x="347" y="584"/>
      <point x="249" y="734"/>
    </contour>
  </outline>
</glyph>
<glyph name="asterisk" format="2">
  <advance width="456"/>
  <unicode hex="002A"/>
  <outline>
    <contour>
      <point x="284" y="692" type="line"/>
      <point x="172" y="692" type="line"/>
      <point x="190" y="516" type="line"/>
      <point x="75" y="388" type="line"/>
      <point x="165" y="322" type="line"/>
      <point x="228" y="441" type="line"/>
      <point x="292" y="322" type="line"/>
      <point x="381" y="388" type="line"/>
      <point x="268" y="517" type="line"/>
    </contour>
    <contour>
      <point x="57" y="622" type="line"/>
      <point x="23" y="516" type="line"/>
      <point x="145" y="492" type="line"/>
      <point x="170" y="522" type="line"/>
      <point x="170" y="571" type="line"/>
    </contour>
    <contour>
      <point x="399" y="623" type="line"/>
      <point x="286" y="571" type="line"/>
      <point x="288" y="522" type="line"/>
      <point x="313" y="492" type="line"/>
      <point x="433" y="516" type="line"/>
    </contour>
  </outline>
</glyph>
<glyph name="one" format="2">
  <advance width="466"/>
  <unicode hex="0031"/>
  <outline>
    <contour>
      <point x="394" y="690" type="line"/>
      <point x="178" y="690" type="line"/>
      <point x="2" y="623" type="line"/>
      <point x="27" y="490" type="line"/>
      <point x="186" y="521" type="line"/>
      <point x="179" y="491"/>
      <point x="178" y="462"/>
      <point x="178" y="432" type="curve" smooth="yes"/>
      <point x="178" y="0" type="line"/>
      <point x="394" y="0" type="line"/>
    </contour>
  </outline>
</glyph>
<glyph name="three" format="2">
  <advance width="578"/>
  <unicode hex="0033"/>
  <outline>
    <contour>
      <point x="285" y="704" type="curve" smooth="yes"/>
      <point x="206" y="704"/>
      <point x="124" y="698"/>
      <point x="43" y="685" type="curve"/>
      <point x="49" y="539" type="line"/>
      <point x="101" y="539"/>
      <point x="173" y="539"/>
      <point x="246" y="539" type="curve" smooth="yes"/>
      <point x="307" y="539"/>
      <point x="323" y="529"/>
      <point x="323" y="483" type="curve" smooth="yes"/>
      <point x="323" y="442"/>
      <point x="318" y="421"/>
      <point x="252" y="421" type="curve" smooth="yes"/>
      <point x="119" y="421" type="line"/>
      <point x="119" y="289" type="line"/>
      <point x="252" y="291" type="line" smooth="yes"/>
      <point x="315" y="292"/>
      <point x="329" y="275"/>
      <point x="329" y="222" type="curve" smooth="yes"/>
      <point x="329" y="159"/>
      <point x="308" y="152"/>
      <point x="226" y="152" type="curve" smooth="yes"/>
      <point x="167" y="152"/>
      <point x="127" y="153"/>
      <point x="34" y="157" type="curve"/>
      <point x="28" y="5" type="line"/>
      <point x="109" y="-6"/>
      <point x="200" y="-14"/>
      <point x="286" y="-14" type="curve" smooth="yes"/>
      <point x="475" y="-14"/>
      <point x="545" y="44"/>
      <point x="543" y="192" type="curve" smooth="yes"/>
      <point x="542" y="300"/>
      <point x="511" y="350"/>
      <point x="411" y="365" type="curve"/>
      <point x="411" y="369" type="line"/>
      <point x="504" y="382"/>
      <point x="525" y="441"/>
      <point x="525" y="543" type="curve" smooth="yes"/>
      <point x="525" y="666"/>
      <point x="462" y="704"/>
    </contour>
  </outline>
</glyph>
<glyph name="four" format="2">
  <advance width="659"/>
  <unicode hex="0034"/>
  <outline>
    <contour>
      <point x="382" y="690" type="line"/>
      <point x="182" y="690" type="line"/>
      <point x="15" y="243" type="line" smooth="yes"/>
      <point x="-5" y="190"/>
      <point x="32" y="140"/>
      <point x="89" y="140" type="curve" smooth="yes"/>
      <point x="565" y="140" type="line"/>
      <point x="642" y="160" type="line"/>
      <point x="642" y="278" type="line"/>
      <point x="259" y="278" type="line" smooth="yes"/>
      <point x="244" y="278"/>
      <point x="236" y="288"/>
      <point x="242" y="303" type="curve" smooth="yes"/>
    </contour>
    <contour>
      <point x="563" y="554" type="line"/>
      <point x="401" y="554" type="line"/>
      <point x="366" y="448" type="line"/>
      <point x="366" y="0" type="line"/>
      <point x="563" y="0" type="line"/>
    </contour>
  </outline>
</glyph>
<glyph name="five" format="2">
  <advance width="568"/>
  <unicode hex="0035"/>
  <outline>
    <contour>
      <point x="520" y="690" type="line"/>
      <point x="68" y="690" type="line"/>
      <point x="49" y="375" type="line" smooth="yes"/>
      <point x="47" y="340"/>
      <point x="72" y="312"/>
      <point x="108" y="307" type="curve" smooth="yes"/>
      <point x="234" y="291" type="line" smooth="yes"/>
      <point x="303" y="286"/>
      <point x="330" y="270"/>
      <point x="326" y="223" type="curve" smooth="yes"/>
      <point x="322" y="177"/>
      <point x="303" y="161"/>
      <point x="223" y="161" type="curve" smooth="yes"/>
      <point x="173" y="161"/>
      <point x="110" y="164"/>
      <point x="42" y="167" type="curve"/>
      <point x="24" y="6" type="line"/>
      <point x="116" y="-5"/>
      <point x="207" y="-12"/>
      <point x="280" y="-12" type="curve" smooth="yes"/>
      <point x="479" y="-12"/>
      <point x="541" y="86"/>
      <point x="541" y="215" type="curve" smooth="yes"/>
      <point x="541" y="315"/>
      <point x="507" y="427"/>
      <point x="351" y="446" type="curve" smooth="yes"/>
      <point x="223" y="463" type="line"/>
      <point x="229" y="535" type="line"/>
      <point x="513" y="535" type="line"/>
    </contour>
  </outline>
</glyph>
<glyph name="seven" format="2">
  <advance width="543"/>
  <unicode hex="0037"/>
  <outline>
    <contour>
      <point x="457" y="690" type="curve" smooth="yes"/>
      <point x="14" y="690" type="line"/>
      <point x="23" y="517" type="line"/>
      <point x="313" y="517" type="line"/>
      <point x="294" y="491"/>
      <point x="284" y="464"/>
      <point x="275" y="438" type="curve" smooth="yes"/>
      <point x="116" y="0" type="line"/>
      <point x="327" y="0" type="line"/>
      <point x="534" y="589" type="line" smooth="yes"/>
      <point x="553" y="643"/>
      <point x="515" y="690"/>
    </contour>
  </outline>
</glyph>
<glyph name="nine" format="2">
  <advance width="608"/>
  <unicode hex="0039"/>
  <outline>
    <contour>
      <point x="296" y="702" type="curve" smooth="yes"/>
      <point x="82" y="702"/>
      <point x="27" y="627"/>
      <point x="27" y="444" type="curve" smooth="yes"/>
      <point x="27" y="317"/>
      <point x="72" y="234"/>
      <point x="230" y="234" type="curve" smooth="yes"/>
      <point x="333" y="234"/>
      <point x="379" y="261"/>
      <point x="447" y="365" type="curve"/>
      <point x="443" y="437" type="line"/>
      <point x="362" y="393"/>
      <point x="342" y="376"/>
      <point x="296" y="376" type="curve" smooth="yes"/>
      <point x="242" y="376"/>
      <point x="230" y="386"/>
      <point x="230" y="449" type="curve" smooth="yes"/>
      <point x="230" y="527"/>
      <point x="233" y="551"/>
      <point x="294" y="551" type="curve" smooth="yes"/>
      <point x="361" y="551"/>
      <point x="365" y="530"/>
      <point x="365" y="364" type="curve" smooth="yes"/>
      <point x="365" y="188"/>
      <point x="361" y="139"/>
      <point x="260" y="139" type="curve" smooth="yes"/>
      <point x="164" y="139"/>
      <point x="129" y="139"/>
      <point x="64" y="140" type="curve"/>
      <point x="55" y="10" type="line"/>
      <point x="140" y="-12"/>
      <point x="219" y="-12"/>
      <point x="260" y="-12" type="curve" smooth="yes"/>
      <point x="488" y="-12"/>
      <point x="572" y="37"/>
      <point x="572" y="351" type="curve" smooth="yes"/>
      <point x="572" y="635"/>
      <point x="520" y="702"/>
    </contour>
  </outline>
</glyph>
<glyph name="less" format="2">
  <advance width="505"/>
  <unicode hex="003C"/>
  <outline>
    <contour>
      <point x="461" y="541" type="line"/>
      <point x="26" y="384" type="line"/>
      <point x="26" y="223" type="line"/>
      <point x="461" y="65" type="line"/>
      <point x="461" y="228" type="line"/>
      <point x="202" y="303" type="line"/>
      <point x="461" y="378" type="line"/>
    </contour>
  </outline>
</glyph>
<glyph name="question" format="2">
  <advance width="536"/>
  <unicode hex="003F"/>
  <outline>
    <contour>
      <point x="288" y="712" type="curve" smooth="yes"/>
      <point x="146" y="712"/>
      <point x="107" y="700"/>
      <point x="24" y="684" type="curve"/>
      <point x="29" y="546" type="line"/>
      <point x="99" y="546"/>
      <point x="133" y="546"/>
      <point x="236" y="546" type="curve" smooth="yes"/>
      <point x="282" y="546"/>
      <point x="298" y="538"/>
      <point x="292" y="513" type="curve" smooth="yes"/>
      <point x="282" y="466"/>
      <point x="159" y="393"/>
      <point x="169" y="227" type="curve"/>
      <point x="333" y="227" type="line"/>
      <point x="353" y="391"/>
      <point x="515" y="412"/>
      <point x="515" y="557" type="curve" smooth="yes"/>
      <point x="515" y="663"/>
      <point x="442" y="712"/>
    </contour>
    <contour>
      <point x="274" y="185" type="curve" smooth="yes"/>
      <point x="227" y="185" type="line" smooth="yes"/>
      <point x="172" y="185"/>
      <point x="155" y="168"/>
      <point x="155" y="113" type="curve" smooth="yes"/>
      <point x="155" y="72" type="line" smooth="yes"/>
      <point x="155" y="17"/>
      <point x="172" y="0"/>
      <point x="227" y="0" type="curve" smooth="yes"/>
      <point x="274" y="0" type="line" smooth="yes"/>
      <point x="329" y="0"/>
      <point x="346" y="17"/>
      <point x="346" y="72" type="curve" smooth="yes"/>
      <point x="346" y="113" type="line" smooth="yes"/>
      <point x="346" y="168"/>
      <point x="329" y="185"/>
    </contour>
  </outline>
</glyph>
<glyph name="B" format="2">
  <advance width="660"/>
  <unicode hex="0042"/>
  <outline>
    <contour>
      <point x="350" y="698" type="curve" smooth="yes"/>
      <point x="218" y="698"/>
      <point x="141" y="697"/>
      <point x="52" y="690" type="curve"/>
      <point x="68" y="548" type="line"/>
      <point x="143" y="554"/>
      <point x="213" y="551"/>
      <point x="339" y="551" type="curve" smooth="yes"/>
      <point x="391" y="551"/>
      <point x="403" y="540"/>
      <point x="403" y="487" type="curve" smooth="yes"/>
      <point x="403" y="433"/>
      <point x="391" y="421"/>
      <point x="341" y="421" type="curve" smooth="yes"/>
      <point x="67" y="421" type="line"/>
      <point x="67" y="294" type="line"/>
      <point x="343" y="294" type="line" smooth="yes"/>
      <point x="404" y="294"/>
      <point x="417" y="280"/>
      <point x="417" y="216" type="curve" smooth="yes"/>
      <point x="417" y="153"/>
      <point x="404" y="139"/>
      <point x="344" y="139" type="curve" smooth="yes"/>
      <point x="210" y="139"/>
      <point x="102" y="140"/>
      <point x="68" y="142" type="curve"/>
      <point x="52" y="0" type="line"/>
      <point x="150" y="-7"/>
      <point x="234" y="-8"/>
      <point x="383" y="-8" type="curve" smooth="yes"/>
      <point x="556" y="-8"/>
      <point x="633" y="30"/>
      <point x="633" y="172" type="curve" smooth="yes"/>
      <point x="633" y="282"/>
      <point x="594" y="346"/>
      <point x="484" y="355" type="curve"/>
      <point x="484" y="361" type="line"/>
      <point x="575" y="369"/>
      <point x="610" y="419"/>
      <point x="610" y="518" type="curve" smooth="yes"/>
      <point x="610" y="660"/>
      <point x="542" y="698"/>
    </contour>
    <contour>
      <point x="264" y="690" type="line"/>
      <point x="52" y="690" type="line"/>
      <point x="52" y="0" type="line"/>
      <point x="264" y="0" type="line"/>
    </contour>
  </outline>
</glyph>
<glyph name="D" format="2">
  <advance width="701"/>
  <unicode hex="0044"/>
  <anchor x="335" y="-12" name="bottom"/>
  <anchor x="348" y="735" name="top"/>
  <outline>
    <contour>
      <point x="347" y="700" type="curve" smooth="yes"/>
      <point x="229" y="700"/>
      <point x="140" y="695"/>
      <point x="52" y="690" type="curve"/>
      <point x="149" y="544" type="line"/>
      <point x="208" y="543"/>
      <point x="266" y="543"/>
      <point x="347" y="543" type="curve" smooth="yes"/>
      <point x="421" y="543"/>
      <point x="440" y="505"/>
      <point x="440" y="345" type="curve" smooth="yes"/>
      <point x="440" y="185"/>
      <point x="421" y="147"/>
      <point x="347" y="147" type="curve" smooth="yes"/>
      <point x="260" y="147"/>
      <point x="186" y="149"/>
      <point x="140" y="154" type="curve"/>
      <point x="52" y="0" type="line"/>
      <point x="139" y="-6"/>
      <point x="232" y="-10"/>
      <point x="347" y="-10" type="curve" smooth="yes"/>
      <point x="584" y="-10"/>
      <point x="669" y="65"/>
      <point x="669" y="345" type="curve" smooth="yes"/>
      <point x="669" y="625"/>
      <point x="584" y="700"/>
    </contour>
    <contour>
      <point x="269" y="690" type="line"/>
      <point x="52" y="690" type="line"/>
      <point x="52" y="0" type="line"/>
      <point x="269" y="0" type="line"/>
    </contour>
  </outline>
</glyph>
<glyph name="G" format="2">
  <advance width="668"/>
  <unicode hex="0047"/>
  <anchor x="352" y="-12" name="bottom"/>
  <anchor x="352" y="735" name="top"/>
  <outline>
    <contour>
      <point x="357" y="704" type="curve" smooth="yes"/>
      <point x="119" y="704"/>
      <point x="32" y="610"/>
      <point x="32" y="345" type="curve" smooth="yes"/>
      <point x="32" y="84"/>
      <point x="102" y="-14"/>
      <point x="261" y="-14" type="curve" smooth="yes"/>
      <point x="371" y="-14"/>
      <point x="443" y="50"/>
      <point x="467" y="91" type="curve"/>
      <point x="446" y="182" type="line"/>
      <point x="427" y="177"/>
      <point x="391" y="171"/>
      <point x="348" y="171" type="curve" smooth="yes"/>
      <point x="280" y="171"/>
      <point x="260" y="205"/>
      <point x="260" y="345" type="curve" smooth="yes"/>
      <point x="260" y="487"/>
      <point x="281" y="521"/>
      <point x="358" y="521" type="curve" smooth="yes"/>
      <point x="451" y="521"/>
      <point x="510" y="520"/>
      <point x="586" y="519" type="curve"/>
      <point x="602" y="675" type="line"/>
      <point x="529" y="696"/>
      <point x="467" y="704"/>
    </contour>
    <contour>
      <point x="631" y="397" type="line"/>
      <point x="423" y="397" type="line"/>
      <point x="423" y="144" type="line"/>
      <point x="443" y="107" type="line"/>
      <point x="471" y="0" type="line"/>
      <point x="631" y="0" type="line"/>
    </contour>
  </outline>
</glyph>
<glyph name="H" format="2">
  <advance width="714"/>
  <unicode hex="0048"/>
  <anchor x="358" y="0" name="bottom"/>
  <anchor x="329" y="345" name="center"/>
  <anchor x="355" y="735" name="top"/>
  <outline>
    <contour>
      <point x="270" y="690" type="line"/>
      <point x="53" y="690" type="line"/>
      <point x="53" y="0" type="line"/>
      <point x="270" y="0" type="line"/>
    </contour>
    <contour>
      <point x="455" y="442" type="line"/>
      <point x="262" y="442" type="line"/>
      <point x="262" y="290" type="line"/>
      <point x="455" y="290" type="line"/>
    </contour>
    <contour>
      <point x="661" y="690" type="line"/>
      <point x="444" y="690" type="line"/>
      <point x="444" y="0" type="line"/>
      <point x="661" y="0" type="line"/>
    </contour>
  </outline>
</glyph>
<glyph name="K" format="2">
  <advance width="676"/>
  <unicode hex="004B"/>
  <anchor x="335" y="-12" name="bottom"/>
  <anchor x="335" y="735" name="top"/>
  <outline>
    <contour>
      <point x="675" y="690" type="line"/>
      <point x="442" y="690" type="line"/>
      <point x="261" y="361" type="line"/>
      <point x="444" y="0" type="line"/>
      <point x="685" y="0" type="line"/>
      <point x="524" y="287" type="line" smooth="yes"/>
      <point x="508" y="317"/>
      <point x="474" y="347"/>
      <point x="455" y="355" type="curve"/>
      <point x="455" y="359" type="line"/>
      <point x="474" y="367"/>
      <point x="499" y="389"/>
      <point x="516" y="420" type="curve" smooth="yes"/>
    </contour>
    <contour>
      <point x="270" y="690" type="line"/>
      <point x="53" y="690" type="line"/>
      <point x="53" y="0" type="line"/>
      <point x="270" y="0" type="line"/>
      <point x="270" y="225" type="line" smooth="yes"/>
      <point x="270" y="265"/>
      <point x="255" y="319"/>
      <point x="239" y="362" type="curve"/>
      <point x="260" y="408"/>
      <point x="270" y="465"/>
      <point x="270" y="516" type="curve" smooth="yes"/>
    </contour>
    <contour>
      <point x="324" y="428" type="line"/>
      <point x="208" y="428" type="line"/>
      <point x="208" y="288" type="line"/>
      <point x="324" y="288" type="line"/>
    </contour>
  </outline>
</glyph>
<glyph name="L" format="2">
  <advance width="557"/>
  <unicode hex="004C"/>
  <anchor x="313" y="0" name="bottom"/>
  <anchor x="151" y="735" name="top"/>
  <outline>
    <contour>
      <point x="267" y="690" type="line"/>
      <point x="50" y="690" type="line"/>
      <point x="50" y="153" type="line" smooth="yes"/>
      <point x="50" y="60"/>
      <point x="114" y="-4"/>
      <point x="214" y="-4" type="curve" smooth="yes"/>
      <point x="327" y="-4"/>
      <point x="448" y="-4"/>
      <point x="551" y="10" type="curve"/>
      <point x="541" y="172" type="line"/>
      <point x="309" y="172" type="line" smooth="yes"/>
      <point x="283" y="172"/>
      <point x="267" y="187"/>
      <point x="267" y="208" type="curve" smooth="yes"/>
    </contour>
  </outline>
</glyph>
<glyph name="M" format="2">
  <advance width="952"/>
  <unicode hex="004D"/>
  <guideline x="348" y="437" angle="0"/>
  <anchor x="471" y="0" name="bottom"/>
  <anchor x="473" y="735" name="top"/>
  <outline>
    <contour>
      <point x="812" y="690" type="curve" smooth="yes"/>
      <point x="621" y="690" type="line" smooth="yes"/>
      <point x="575" y="690"/>
      <point x="546" y="668"/>
      <point x="538" y="623" type="curve" smooth="yes"/>
      <point x="491" y="349" type="line" smooth="yes"/>
      <point x="486" y="315"/>
      <point x="483" y="280"/>
      <point x="479" y="246" type="curve"/>
      <point x="470" y="246" type="line"/>
      <point x="467" y="280"/>
      <point x="464" y="315"/>
      <point x="459" y="349" type="curve" smooth="yes"/>
      <point x="409" y="623" type="line" smooth="yes"/>
      <point x="401" y="668"/>
      <point x="372" y="690"/>
      <point x="327" y="690" type="curve" smooth="yes"/>
      <point x="140" y="690" type="line" smooth="yes"/>
      <point x="90" y="690"/>
      <point x="66" y="664"/>
      <point x="64" y="615" type="curve" smooth="yes"/>
      <point x="40" y="0" type="line"/>
      <point x="235" y="0" type="line"/>
      <point x="252" y="528" type="line"/>
      <point x="267" y="528" type="line"/>
      <point x="336" y="176" type="line" smooth="yes"/>
      <point x="344" y="132"/>
      <point x="373" y="110"/>
      <point x="419" y="110" type="curve" smooth="yes"/>
      <point x="531" y="110" type="line" smooth="yes"/>
      <point x="577" y="110"/>
      <point x="606" y="132"/>
      <point x="613" y="176" type="curve" smooth="yes"/>
      <point x="681" y="528" type="line"/>
      <point x="696" y="528" type="line"/>
      <point x="717" y="0" type="line"/>
      <point x="912" y="0" type="line"/>
      <point x="888" y="615" type="line" smooth="yes"/>
      <point x="886" y="664"/>
      <point x="862" y="690"/>
    </contour>
  </outline>
</glyph>
<glyph name="Q" format="2">
  <advance width="707"/>
  <unicode hex="0051"/>
  <outline>
    <contour>
      <point x="353" y="704" type="curve" smooth="yes"/>
      <point x="117" y="704"/>
      <point x="32" y="629"/>
      <point x="32" y="345" type="curve" smooth="yes"/>
      <point x="32" y="61"/>
      <point x="117" y="-14"/>
      <point x="353" y="-14" type="curve" smooth="yes"/>
      <point x="590" y="-14"/>
      <point x="675" y="61"/>
      <point x="675" y="345" type="curve" smooth="yes"/>
      <point x="675" y="629"/>
      <point x="590" y="704"/>
    </contour>
    <contour>
      <point x="294" y="-26" type="curve"/>
      <point x="248" y="-129" type="line"/>
      <point x="326" y="-185"/>
      <point x="434" y="-236"/>
      <point x="570" y="-275" type="curve"/>
      <point x="623" y="-100" type="line"/>
      <point x="496" y="-81"/>
      <point x="394" y="-63"/>
    </contour>
    <contour>
      <point x="353" y="543" type="curve" smooth="yes"/>
      <point x="427" y="543"/>
      <point x="446" y="505"/>
      <point x="446" y="345" type="curve" smooth="yes"/>
      <point x="446" y="185"/>
      <point x="427" y="147"/>
      <point x="353" y="147" type="curve" smooth="yes"/>
      <point x="279" y="147"/>
      <point x="260" y="185"/>
      <point x="260" y="345" type="curve" smooth="yes"/>
      <point x="260" y="505"/>
      <point x="279" y="543"/>
    </contour>
  </outline>
</glyph>
<glyph name="R" format="2">
  <advance width="676"/>
  <unicode hex="0052"/>
  <anchor x="330" y="-12" name="bottom"/>
  <anchor x="330" y="735" name="top"/>
  <outline>
    <contour>
      <point x="345" y="700" type="curve" smooth="yes"/>
      <point x="207" y="700"/>
      <point x="144" y="699"/>
      <point x="52" y="690" type="curve"/>
      <point x="68" y="542" type="line"/>
      <point x="102" y="546"/>
      <point x="201" y="547"/>
      <point x="340" y="547" type="curve" smooth="yes"/>
      <point x="402" y="547"/>
      <point x="418" y="533"/>
      <point x="418" y="476" type="curve" smooth="yes"/>
      <point x="418" y="419"/>
      <point x="402" y="405"/>
      <point x="340" y="405" type="curve" smooth="yes"/>
      <point x="66" y="405" type="line"/>
      <point x="63" y="257" type="line"/>
      <point x="128" y="253"/>
      <point x="182" y="253"/>
      <point x="332" y="252" type="curve" smooth="yes"/>
      <point x="369" y="252"/>
      <point x="383" y="243"/>
      <point x="391" y="205" type="curve" smooth="yes"/>
      <point x="436" y="0" type="line"/>
      <point x="663" y="0" type="line"/>
      <point x="609" y="212" type="line" smooth="yes"/>
      <point x="592" y="296"/>
      <point x="534" y="315"/>
      <point x="496" y="320" type="curve"/>
      <point x="496" y="326" type="line"/>
      <point x="603" y="337"/>
      <point x="636" y="407"/>
      <point x="636" y="490" type="curve" smooth="yes"/>
      <point x="636" y="651"/>
      <point x="548" y="700"/>
    </contour>
    <contour>
      <point x="265" y="690" type="line"/>
      <point x="52" y="690" type="line"/>
      <point x="52" y="0" type="line"/>
      <point x="265" y="0" type="line"/>
    </contour>
  </outline>
</glyph>
<glyph name="S" format="2">
  <advance width="610"/>
  <unicode hex="0053"/>
  <anchor x="308" y="-12" name="bottom"/>
  <anchor x="308" y="735" name="top"/>
  <outline>
    <contour>
      <point x="314" y="704" type="curve" smooth="yes"/>
      <point x="106" y="704"/>
      <point x="30" y="658"/>
      <point x="30" y="501" type="curve" smooth="yes"/>
      <point x="30" y="400"/>
      <point x="72" y="343"/>
      <point x="184" y="293" type="curve" smooth="yes"/>
      <point x="321" y="233" type="line" smooth="yes"/>
      <point x="358" y="219"/>
      <point x="368" y="210"/>
      <point x="368" y="191" type="curve" smooth="yes"/>
      <point x="368" y="172"/>
      <point x="355" y="167"/>
      <point x="300" y="167" type="curve" smooth="yes"/>
      <point x="263" y="167"/>
      <point x="168" y="169"/>
      <point x="49" y="172" type="curve"/>
      <point x="36" y="20" type="line"/>
      <point x="156" y="-11"/>
      <point x="256" y="-14"/>
      <point x="303" y="-14" type="curve" smooth="yes"/>
      <point x="518" y="-14"/>
      <point x="585" y="42"/>
      <point x="585" y="197" type="curve" smooth="yes"/>
      <point x="585" y="298"/>
      <point x="545" y="357"/>
      <point x="430" y="407" type="curve" smooth="yes"/>
      <point x="305" y="459" type="line" smooth="yes"/>
      <point x="258" y="477"/>
      <point x="245" y="487"/>
      <point x="245" y="506" type="curve" smooth="yes"/>
      <point x="245" y="527"/>
      <point x="259" y="532"/>
      <point x="309" y="532" type="curve" smooth="yes"/>
      <point x="395" y="532"/>
      <point x="492" y="531"/>
      <point x="552" y="530" type="curve"/>
      <point x="565" y="669" type="line"/>
      <point x="482" y="698"/>
      <point x="386" y="704"/>
    </contour>
  </outline>
</glyph>
<glyph name="U" format="2">
  <advance width="705"/>
  <unicode hex="0055"/>
  <anchor x="354" y="-12" name="bottom"/>
  <anchor x="411" y="0" name="ogonek"/>
  <anchor x="354" y="735" name="top"/>
  <outline>
    <contour>
      <point x="658" y="690" type="line"/>
      <point x="441" y="690" type="line"/>
      <point x="441" y="285" type="line" smooth="yes"/>
      <point x="441" y="174"/>
      <point x="422" y="147"/>
      <point x="353" y="147" type="curve" smooth="yes"/>
      <point x="283" y="147"/>
      <point x="264" y="174"/>
      <point x="264" y="285" type="curve" smooth="yes"/>
      <point x="264" y="690" type="line"/>
      <point x="47" y="690" type="line"/>
      <point x="47" y="285" type="line" smooth="yes"/>
      <point x="47" y="65"/>
      <point x="131" y="-14"/>
      <point x="364" y="-14" type="curve" smooth="yes"/>
      <point x="580" y="-14"/>
      <point x="658" y="65"/>
      <point x="658" y="285" type="curve" smooth="yes"/>
    </contour>
  </outline>
</glyph>
<glyph name="Y" format="2">
  <advance width="654"/>
  <unicode hex="0059"/>
  <anchor x="328" y="-12" name="bottom"/>
  <anchor x="328" y="735" name="top"/>
  <outline>
    <contour>
      <point x="664" y="690" type="line"/>
      <point x="441" y="690" type="line"/>
      <point x="355" y="474" type="line" smooth="yes"/>
      <point x="344" y="444"/>
      <point x="339" y="407"/>
      <point x="334" y="376" type="curve"/>
      <point x="321" y="376" type="line"/>
      <point x="316" y="407"/>
      <point x="312" y="443"/>
      <point x="300" y="473" type="curve" smooth="yes"/>
      <point x="213" y="690" type="line"/>
      <point x="-10" y="690" type="line"/>
      <point x="223" y="205" type="line"/>
      <point x="431" y="205" type="line"/>
    </contour>
    <contour>
      <point x="436" y="328" type="line"/>
      <point x="219" y="328" type="line"/>
      <point x="219" y="0" type="line"/>
      <point x="436" y="0" type="line"/>
    </contour>
  </outline>
</glyph>
<glyph name="Z" format="2">
  <advance width="605"/>
  <unicode hex="005A"/>
  <anchor x="304" y="-12" name="bottom"/>
  <anchor x="304" y="735" name="top"/>
  <outline>
    <contour>
      <point x="328" y="539" type="line"/>
      <point x="29" y="152" type="line"/>
      <point x="268" y="151" type="line"/>
      <point x="567" y="538" type="line"/>
    </contour>
    <contour>
      <point x="577" y="152" type="line"/>
      <point x="29" y="152" type="line"/>
      <point x="29" y="0" type="line"/>
      <point x="577" y="0" type="line"/>
    </contour>
    <contour>
      <point x="567" y="690" type="line"/>
      <point x="39" y="690" type="line"/>
      <point x="39" y="538" type="line"/>
      <point x="567" y="538" type="line"/>
    </contour>
  </outline>
</glyph>
<glyph name="bracketleft" format="2">
  <advance width="363"/>
  <unicode hex="005B"/>
  <outline>
    <contour>
      <point x="339" y="768" type="line"/>
      <point x="162" y="768" type="line" smooth="yes"/>
      <point x="102" y="768"/>
      <point x="61" y="727"/>
      <point x="61" y="667" type="curve" smooth="yes"/>
      <point x="61" y="-64" type="line" smooth="yes"/>
      <point x="61" y="-144"/>
      <point x="102" y="-165"/>
      <point x="162" y="-165" type="curve" smooth="yes"/>
      <point x="339" y="-165" type="line"/>
      <point x="339" y="-37" type="line"/>
      <point x="279" y="-37" type="line" smooth="yes"/>
      <point x="266" y="-37"/>
      <point x="257" y="-28"/>
      <point x="257" y="-15" type="curve" smooth="yes"/>
      <point x="257" y="618" type="line" smooth="yes"/>
      <point x="257" y="631"/>
      <point x="266" y="640"/>
      <point x="279" y="640" type="curve" smooth="yes"/>
      <point x="339" y="640" type="line"/>
    </contour>
  </outline>
</glyph>
<glyph name="backslash" format="2">
  <advance width="588"/>
  <unicode hex="005C"/>
  <outline>
    <contour>
      <point x="180" y="690" type="line"/>
      <point x="15" y="690" type="line"/>
      <point x="408" y="-79" type="line"/>
      <point x="573" y="-79" type="line"/>
    </contour>
  </outline>
</glyph>
<glyph name="bracketright" format="2">
  <advance width="363"/>
  <unicode hex="005D"/>
  <outline>
    <contour>
      <point x="201" y="768" type="curve" smooth="yes"/>
      <point x="24" y="768" type="line"/>
      <point x="24" y="640" type="line"/>
      <point x="84" y="640" type="line" smooth="yes"/>
      <point x="97" y="640"/>
      <point x="106" y="631"/>
      <point x="106" y="618" type="curve" smooth="yes"/>
      <point x="106" y="-15" type="line" smooth="yes"/>
      <point x="106" y="-28"/>
      <point x="97" y="-37"/>
      <point x="84" y="-37" type="curve" smooth="yes"/>
      <point x="24" y="-37" type="line"/>
      <point x="24" y="-165" type="line"/>
      <point x="201" y="-165" type="line" smooth="yes"/>
      <point x="261" y="-165"/>
      <point x="302" y="-124"/>
      <point x="302" y="-64" type="curve" smooth="yes"/>
      <point x="302" y="667" type="line" smooth="yes"/>
      <point x="302" y="727"/>
      <point x="261" y="768"/>
    </contour>
  </outline>
</glyph>
<glyph name="asciicircum" format="2">
  <advance width="497"/>
  <unicode hex="005E"/>
  <outline>
    <contour>
      <point x="326" y="653" type="line"/>
      <point x="174" y="653" type="line"/>
      <point x="30" y="414" type="line"/>
      <point x="110" y="372" type="line"/>
      <point x="246" y="529" type="line"/>
      <point x="254" y="529" type="line"/>
      <point x="386" y="372" type="line"/>
      <point x="467" y="414" type="line"/>
    </contour>
  </outline>
</glyph>
<glyph name="underscore" format="2">
  <advance width="451"/>
  <unicode hex="005F"/>
  <outline>
    <contour>
      <point x="451" y="0" type="line"/>
      <point x="0" y="0" type="line"/>
      <point x="0" y="-122" type="line"/>
      <point x="451" y="-122" type="line"/>
    </contour>
  </outline>
</glyph>
<glyph name="grave" format="2">
  <advance width="392"/>
  <unicode hex="0060"/>
  <anchor x="252" y="526" name="_top"/>
  <outline>
    <contour>
      <point x="119" y="767" type="line"/>
      <point x="40" y="634" type="line"/>
      <point x="295" y="531" type="line"/>
      <point x="352" y="617" type="line"/>
    </contour>
  </outline>
</glyph>
<glyph name="c" format="2">
  <advance width="528"/>
  <unicode hex="0063"/>
  <anchor x="276" y="-17" name="bottom"/>
  <anchor x="292" y="557" name="top"/>
  <outline>
    <contour>
      <point x="294" y="514" type="curve" smooth="yes"/>
      <point x="97" y="514"/>
      <point x="26" y="444"/>
      <point x="26" y="251" type="curve" smooth="yes"/>
      <point x="26" y="58"/>
      <point x="96" y="-12"/>
      <point x="292" y="-12" type="curve" smooth="yes"/>
      <point x="369" y="-12"/>
      <point x="451" y="-1"/>
      <point x="510" y="30" type="curve"/>
      <point x="491" y="161" type="line"/>
      <point x="428" y="154"/>
      <point x="364" y="154"/>
      <point x="330" y="154" type="curve" smooth="yes"/>
      <point x="266" y="154"/>
      <point x="246" y="173"/>
      <point x="246" y="251" type="curve" smooth="yes"/>
      <point x="246" y="328"/>
      <point x="266" y="347"/>
      <point x="330" y="347" type="curve" smooth="yes"/>
      <point x="372" y="347"/>
      <point x="418" y="347"/>
      <point x="482" y="347" type="curve"/>
      <point x="503" y="477" type="line"/>
      <point x="443" y="506"/>
      <point x="355" y="514"/>
    </contour>
  </outline>
</glyph>
<glyph name="d" format="2">
  <advance width="620"/>
  <unicode hex="0064"/>
  <anchor x="321" y="-17" name="bottom"/>
  <anchor x="481" y="690" name="top"/>
  <outline>
    <contour>
      <point x="218" y="514" type="curve" smooth="yes"/>
      <point x="94" y="514"/>
      <point x="28" y="461"/>
      <point x="28" y="256" type="curve" smooth="yes"/>
      <point x="28" y="86"/>
      <point x="78" y="-12"/>
      <point x="209" y="-12" type="curve" smooth="yes"/>
      <point x="316" y="-12"/>
      <point x="373" y="35"/>
      <point x="400" y="96" type="curve"/>
      <point x="387" y="182" type="line"/>
      <point x="361" y="167"/>
      <point x="343" y="156"/>
      <point x="299" y="156" type="curve" smooth="yes"/>
      <point x="260" y="156"/>
      <point x="244" y="166"/>
      <point x="244" y="258" type="curve" smooth="yes"/>
      <point x="244" y="365"/>
      <point x="260" y="377"/>
      <point x="302" y="377" type="curve" smooth="yes"/>
      <point x="343" y="377"/>
      <point x="363" y="364"/>
      <point x="390" y="356" type="curve"/>
      <point x="405" y="438" type="line"/>
      <point x="364" y="494"/>
      <point x="294" y="514"/>
    </contour>
    <contour>
      <point x="577" y="700" type="line"/>
      <point x="367" y="700" type="line"/>
      <point x="367" y="581" type="line" smooth="yes"/>
      <point x="367" y="533"/>
      <point x="370" y="481"/>
      <point x="373" y="438" type="curve"/>
      <point x="367" y="426" type="line"/>
      <point x="367" y="112" type="line"/>
      <point x="390" y="96" type="line"/>
      <point x="410" y="0" type="line"/>
      <point x="577" y="0" type="line"/>
    </contour>
  </outline>
</glyph>
<glyph name="e" format="2">
  <advance width="590"/>
  <unicode hex="0065"/>
  <anchor x="313" y="-12" name="bottom"/>
  <anchor x="555" y="34" name="ogonek"/>
  <anchor x="312" y="557" name="top"/>
  <outline>
    <contour>
      <point x="309" y="514" type="curve" smooth="yes"/>
      <point x="102" y="514"/>
      <point x="25" y="443"/>
      <point x="25" y="246" type="curve" smooth="yes"/>
      <point x="25" y="76"/>
      <point x="101" y="-12"/>
      <point x="310" y="-12" type="curve" smooth="yes"/>
      <point x="400" y="-12"/>
      <point x="484" y="-2"/>
      <point x="555" y="34" type="curve"/>
      <point x="536" y="160" type="line"/>
      <point x="450" y="151"/>
      <point x="373" y="149"/>
      <point x="333" y="149" type="curve" smooth="yes"/>
      <point x="258" y="149"/>
      <point x="245" y="177"/>
      <point x="245" y="269" type="curve" smooth="yes"/>
      <point x="245" y="368"/>
      <point x="257" y="380"/>
      <point x="315" y="379" type="curve" smooth="yes"/>
      <point x="353" y="379"/>
      <point x="368" y="373"/>
      <point x="368" y="341" type="curve" smooth="yes"/>
      <point x="368" y="307"/>
      <point x="361" y="303"/>
      <point x="316" y="303" type="curve" smooth="yes"/>
      <point x="106" y="303" type="line"/>
      <point x="106" y="204" type="line"/>
      <point x="375" y="204" type="line" smooth="yes"/>
      <point x="522" y="204"/>
      <point x="570" y="243"/>
      <point x="569" y="336" type="curve" smooth="yes"/>
      <point x="568" y="453"/>
      <point x="497" y="514"/>
    </contour>
  </outline>
</glyph>
<glyph name="h" format="2">
  <advance width="621"/>
  <unicode hex="0068"/>
  <anchor x="313" y="-12" name="bottom"/>
  <anchor x="306" y="219" name="center"/>
  <anchor x="148" y="715" name="top"/>
  <outline>
    <contour>
      <point x="433" y="514" type="curve" smooth="yes"/>
      <point x="361" y="514"/>
      <point x="280" y="480"/>
      <point x="209" y="409" type="curve"/>
      <point x="231" y="318" type="line"/>
      <point x="282" y="335"/>
      <point x="309" y="337"/>
      <point x="335" y="337" type="curve" smooth="yes"/>
      <point x="361" y="337"/>
      <point x="371" y="329"/>
      <point x="371" y="307" type="curve" smooth="yes"/>
      <point x="371" y="0" type="line"/>
      <point x="581" y="0" type="line"/>
      <point x="581" y="374" type="line"/>
      <point x="581" y="466"/>
      <point x="530" y="514"/>
    </contour>
    <contour>
      <point x="253" y="700" type="line"/>
      <point x="43" y="700" type="line"/>
      <point x="43" y="0" type="line"/>
      <point x="253" y="0" type="line"/>
      <point x="253" y="386" type="line"/>
      <point x="233" y="398" type="line"/>
      <point x="244" y="431"/>
      <point x="254" y="491"/>
      <point x="254" y="551" type="curve" smooth="yes"/>
    </contour>
  </outline>
</glyph>
<glyph name="k" format="2">
  <advance width="609"/>
  <unicode hex="006B"/>
  <guideline x="470" y="273" angle="90"/>
  <anchor x="316" y="0" name="bottom"/>
  <outline>
    <contour>
      <point x="599" y="500" type="line"/>
      <point x="369" y="500" type="line"/>
      <point x="241" y="277" type="line"/>
      <point x="387" y="0" type="line"/>
      <point x="618" y="0" type="line"/>
      <point x="494" y="205" type="line" smooth="yes"/>
      <point x="479" y="233"/>
      <point x="451" y="264"/>
      <point x="436" y="272" type="curve"/>
      <point x="436" y="276" type="line"/>
      <point x="451" y="285"/>
      <point x="479" y="309"/>
      <point x="494" y="336" type="curve" smooth="yes"/>
    </contour>
    <contour>
      <point x="253" y="700" type="line"/>
      <point x="43" y="700" type="line"/>
      <point x="43" y="0" type="line"/>
      <point x="253" y="0" type="line"/>
      <point x="253" y="143" type="line" smooth="yes"/>
      <point x="253" y="182"/>
      <point x="243" y="236"/>
      <point x="232" y="279" type="curve"/>
      <point x="246" y="325"/>
      <point x="253" y="381"/>
      <point x="253" y="432" type="curve" smooth="yes"/>
    </contour>
    <contour>
      <point x="308" y="334" type="line"/>
      <point x="191" y="334" type="line"/>
      <point x="191" y="216" type="line"/>
      <point x="308" y="216" type="line"/>
    </contour>
  </outline>
</glyph>
<glyph name="m" format="2">
  <advance width="885"/>
  <unicode hex="006D"/>
  <anchor x="444" y="-12" name="bottom"/>
  <anchor x="443" y="557" name="top"/>
  <outline>
    <contour>
      <point x="701" y="514" type="curve" smooth="yes"/>
      <point x="626" y="514"/>
      <point x="574" y="484"/>
      <point x="516" y="421" type="curve"/>
      <point x="527" y="318" type="line"/>
      <point x="568" y="335"/>
      <point x="585" y="337"/>
      <point x="603" y="337" type="curve" smooth="yes"/>
      <point x="628" y="337"/>
      <point x="636" y="329"/>
      <point x="636" y="307" type="curve" smooth="yes"/>
      <point x="636" y="0" type="line"/>
      <point x="845" y="0" type="line"/>
      <point x="845" y="374" type="line" smooth="yes"/>
      <point x="845" y="466"/>
      <point x="796" y="514"/>
    </contour>
    <contour>
      <point x="207" y="500" type="line"/>
      <point x="43" y="500" type="line"/>
      <point x="43" y="0" type="line"/>
      <point x="252" y="0" type="line"/>
      <point x="252" y="386" type="line"/>
      <point x="232" y="398" type="line"/>
    </contour>
    <contour>
      <point x="404" y="514" type="curve" smooth="yes"/>
      <point x="328" y="514"/>
      <point x="278" y="484"/>
      <point x="219" y="421" type="curve"/>
      <point x="230" y="318" type="line"/>
      <point x="274" y="335"/>
      <point x="290" y="337"/>
      <point x="309" y="337" type="curve" smooth="yes"/>
      <point x="333" y="337"/>
      <point x="343" y="329"/>
      <point x="343" y="307" type="curve" smooth="yes"/>
      <point x="343" y="0" type="line"/>
      <point x="545" y="0" type="line"/>
      <point x="545" y="374" type="line" smooth="yes"/>
      <point x="545" y="466"/>
      <point x="496" y="514"/>
    </contour>
  </outline>
</glyph>
<glyph name="q" format="2">
  <advance width="618"/>
  <unicode hex="0071"/>
  <outline>
    <contour>
      <point x="296" y="514" type="curve" smooth="yes"/>
      <point x="68" y="514"/>
      <point x="27" y="400"/>
      <point x="27" y="246" type="curve" smooth="yes"/>
      <point x="27" y="83"/>
      <point x="76" y="-12"/>
      <point x="215" y="-12" type="curve" smooth="yes"/>
      <point x="301" y="-12"/>
      <point x="374" y="56"/>
      <point x="404" y="103" type="curve"/>
      <point x="389" y="176" type="line"/>
      <point x="362" y="167"/>
      <point x="339" y="155"/>
      <point x="303" y="155" type="curve" smooth="yes"/>
      <point x="256" y="155"/>
      <point x="243" y="170"/>
      <point x="243" y="247" type="curve" smooth="yes"/>
      <point x="243" y="349"/>
      <point x="256" y="370"/>
      <point x="300" y="373" type="curve" smooth="yes"/>
      <point x="328" y="375"/>
      <point x="389" y="368"/>
      <point x="408" y="358" type="curve"/>
      <point x="576" y="472" type="line"/>
      <point x="518" y="502"/>
      <point x="369" y="514"/>
    </contour>
    <contour>
      <point x="366" y="482" type="line"/>
      <point x="366" y="106" type="line"/>
      <point x="387" y="94" type="line"/>
      <point x="372" y="51"/>
      <point x="365" y="-2"/>
      <point x="366" y="-50" type="curve" smooth="yes"/>
      <point x="366" y="-180" type="line"/>
      <point x="576" y="-180" type="line"/>
      <point x="576" y="472" type="line"/>
    </contour>
  </outline>
</glyph>
<glyph name="r" format="2">
  <advance width="452"/>
  <unicode hex="0072"/>
  <anchor x="147" y="-12" name="bottom"/>
  <anchor x="231" y="557" name="top"/>
  <outline>
    <contour>
      <point x="207" y="500" type="line"/>
      <point x="43" y="500" type="line"/>
      <point x="43" y="0" type="line"/>
      <point x="253" y="0" type="line"/>
      <point x="253" y="386" type="line"/>
      <point x="233" y="398" type="line"/>
    </contour>
    <contour>
      <point x="450" y="514" type="line"/>
      <point x="421" y="514" type="line"/>
      <point x="355" y="514"/>
      <point x="284" y="484"/>
      <point x="219" y="421" type="curve"/>
      <point x="231" y="308" type="line"/>
      <point x="303" y="320"/>
      <point x="343" y="322"/>
      <point x="379" y="322" type="curve" smooth="yes"/>
      <point x="432" y="322" type="line"/>
    </contour>
  </outline>
</glyph>
<glyph name="t" format="2">
  <advance width="438"/>
  <unicode hex="0074"/>
  <anchor x="265" y="-12" name="bottom"/>
  <anchor x="200" y="653" name="top"/>
  <outline>
    <contour>
      <point x="305" y="631" type="line"/>
      <point x="94" y="631" type="line"/>
      <point x="95" y="126" type="line" smooth="yes"/>
      <point x="95" y="38"/>
      <point x="157" y="-14"/>
      <point x="254" y="-14" type="curve" smooth="yes"/>
      <point x="301" y="-14"/>
      <point x="381" y="-6"/>
      <point x="424" y="12" type="curve"/>
      <point x="401" y="146" type="line"/>
      <point x="348" y="146" type="line"/>
      <point x="317" y="146"/>
      <point x="305" y="156"/>
      <point x="305" y="182" type="curve" smooth="yes"/>
    </contour>
    <contour>
      <point x="426" y="500" type="line"/>
      <point x="106" y="500" type="line"/>
      <point x="10" y="495" type="line"/>
      <point x="10" y="374" type="line"/>
      <point x="426" y="374" type="line"/>
    </contour>
  </outline>
</glyph>
<glyph name="u" format="2">
  <advance width="615"/>
  <unicode hex="0075"/>
  <anchor x="307" y="-12" name="bottom"/>
  <anchor x="572" y="0" name="ogonek"/>
  <anchor x="306" y="557" name="top"/>
  <outline>
    <contour>
      <point x="250" y="500" type="line"/>
      <point x="40" y="500" type="line"/>
      <point x="40" y="126" type="line" smooth="yes"/>
      <point x="40" y="34"/>
      <point x="90" y="-14"/>
      <point x="188" y="-14" type="curve" smooth="yes"/>
      <point x="263" y="-14"/>
      <point x="327" y="16"/>
      <point x="395" y="79" type="curve"/>
      <point x="383" y="182" type="line"/>
      <point x="337" y="165"/>
      <point x="313" y="162"/>
      <point x="287" y="162" type="curve" smooth="yes"/>
      <point x="261" y="162"/>
      <point x="250" y="171"/>
      <point x="250" y="193" type="curve" smooth="yes"/>
    </contour>
    <contour>
      <point x="572" y="500" type="line"/>
      <point x="361" y="500" type="line"/>
      <point x="361" y="114" type="line"/>
      <point x="381" y="102" type="line"/>
      <point x="407" y="0" type="line"/>
      <point x="572" y="0" type="line"/>
    </contour>
  </outline>
</glyph>
<glyph name="v" format="2">
  <advance width="601"/>
  <unicode hex="0076"/>
  <outline>
    <contour>
      <point x="604" y="500" type="line"/>
      <point x="382" y="500" type="line"/>
      <point x="322" y="224" type="line" smooth="yes"/>
      <point x="317" y="193"/>
      <point x="311" y="161"/>
      <point x="307" y="130" type="curve"/>
      <point x="294" y="130" type="line"/>
      <point x="290" y="161"/>
      <point x="286" y="193"/>
      <point x="280" y="224" type="curve" smooth="yes"/>
      <point x="219" y="500" type="line"/>
      <point x="-3" y="500" type="line"/>
      <point x="145" y="49" type="line" smooth="yes"/>
      <point x="154" y="19"/>
      <point x="179" y="0"/>
      <point x="211" y="0" type="curve" smooth="yes"/>
      <point x="390" y="0" type="line" smooth="yes"/>
      <point x="422" y="0"/>
      <point x="447" y="19"/>
      <point x="456" y="49" type="curve" smooth="yes"/>
    </contour>
  </outline>
</glyph>
<glyph name="w" format="2">
  <advance width="876"/>
  <unicode hex="0077"/>
  <anchor x="440" y="547" name="top"/>
  <outline>
    <contour>
      <point x="868" y="500" type="line"/>
      <point x="659" y="500" type="line"/>
      <point x="624" y="219" type="line" smooth="yes"/>
      <point x="620" y="189"/>
      <point x="618" y="160"/>
      <point x="615" y="130" type="curve"/>
      <point x="603" y="130" type="line"/>
      <point x="601" y="160"/>
      <point x="596" y="189"/>
      <point x="593" y="219" type="curve" smooth="yes"/>
      <point x="566" y="438" type="line" smooth="yes"/>
      <point x="562" y="475"/>
      <point x="532" y="500"/>
      <point x="495" y="500" type="curve" smooth="yes"/>
      <point x="380" y="500" type="line" smooth="yes"/>
      <point x="343" y="500"/>
      <point x="313" y="475"/>
      <point x="309" y="439" type="curve" smooth="yes"/>
      <point x="281" y="219" type="line" smooth="yes"/>
      <point x="278" y="189"/>
      <point x="274" y="160"/>
      <point x="272" y="130" type="curve"/>
      <point x="260" y="130" type="line"/>
      <point x="258" y="160"/>
      <point x="255" y="189"/>
      <point x="252" y="219" type="curve" smooth="yes"/>
      <point x="216" y="500" type="line"/>
      <point x="8" y="500" type="line"/>
      <point x="110" y="53" type="line" smooth="yes"/>
      <point x="117" y="21"/>
      <point x="144" y="0"/>
      <point x="178" y="0" type="curve" smooth="yes"/>
      <point x="323" y="0" type="line" smooth="yes"/>
      <point x="360" y="0"/>
      <point x="391" y="25"/>
      <point x="395" y="62" type="curve" smooth="yes"/>
      <point x="424" y="289" type="line" smooth="yes"/>
      <point x="427" y="319"/>
      <point x="429" y="347"/>
      <point x="431" y="377" type="curve"/>
      <point x="444" y="377" type="line"/>
      <point x="446" y="347"/>
      <point x="447" y="319"/>
      <point x="450" y="289" type="curve" smooth="yes"/>
      <point x="479" y="62" type="line" smooth="yes"/>
      <point x="483" y="25"/>
      <point x="514" y="0"/>
      <point x="551" y="0" type="curve" smooth="yes"/>
      <point x="698" y="0" type="line" smooth="yes"/>
      <point x="732" y="0"/>
      <point x="759" y="21"/>
      <point x="766" y="53" type="curve" smooth="yes"/>
    </contour>
  </outline>
</glyph>
<glyph name="y" format="2">
  <advance width="602"/>
  <unicode hex="0079"/>
  <anchor x="527" y="-12" name="bottom"/>
  <anchor x="306" y="557" name="top"/>
  <outline>
    <contour>
      <point x="604" y="500" type="line"/>
      <point x="381" y="500" type="line"/>
      <point x="322" y="224" type="line" smooth="yes"/>
      <point x="315" y="188"/>
      <point x="304" y="127"/>
      <point x="289" y="94" type="curve" smooth="yes"/>
      <point x="252" y="14" type="line" smooth="yes"/>
      <point x="226" y="-42"/>
      <point x="181" y="-67"/>
      <point x="98" y="-84" type="curve"/>
      <point x="112" y="-197" type="line"/>
      <point x="319" y="-241"/>
      <point x="411" y="-96"/>
      <point x="445" y="14" type="curve" smooth="yes"/>
    </contour>
    <contour>
      <point x="220" y="500" type="line"/>
      <point x="-3" y="500" type="line"/>
      <point x="145" y="49" type="line" smooth="yes"/>
      <point x="154" y="19"/>
      <point x="179" y="0"/>
      <point x="211" y="0" type="curve" smooth="yes"/>
      <point x="257" y="0" type="line"/>
      <point x="322" y="130" type="line"/>
      <point x="292" y="130" type="line"/>
      <point x="288" y="161"/>
      <point x="284" y="193"/>
      <point x="279" y="224" type="curve" smooth="yes"/>
    </contour>
  </outline>
</glyph>
<glyph name="braceleft" format="2">
  <advance width="359"/>
  <unicode hex="007B"/>
  <outline>
    <contour>
      <point x="330" y="768" type="line"/>
      <point x="144" y="798"/>
      <point x="67" y="725"/>
      <point x="67" y="622" type="curve" smooth="yes"/>
      <point x="67" y="457" type="line" smooth="yes"/>
      <point x="67" y="405"/>
      <point x="59" y="405"/>
      <point x="22" y="393" type="curve"/>
      <point x="22" y="263" type="line"/>
      <point x="57" y="249"/>
      <point x="71" y="246"/>
      <point x="71" y="203" type="curve" smooth="yes"/>
      <point x="71" y="-19" type="line" smooth="yes"/>
      <point x="71" y="-122"/>
      <point x="148" y="-195"/>
      <point x="334" y="-165" type="curve"/>
      <point x="334" y="-37" type="line"/>
      <point x="286" y="-37"/>
      <point x="271" y="-41"/>
      <point x="271" y="-2" type="curve" smooth="yes"/>
      <point x="271" y="183" type="line" smooth="yes"/>
      <point x="270" y="253"/>
      <point x="245" y="303"/>
      <point x="151" y="328" type="curve"/>
      <point x="245" y="341"/>
      <point x="269" y="392"/>
      <point x="267" y="477" type="curve" smooth="yes"/>
      <point x="267" y="602" type="line" smooth="yes"/>
      <point x="267" y="641"/>
      <point x="282" y="640"/>
      <point x="330" y="640" type="curve"/>
    </contour>
  </outline>
</glyph>
<glyph name="sterling" format="2">
  <advance width="603"/>
  <unicode hex="00A3"/>
  <outline>
    <contour>
      <point x="319" y="703" type="curve" smooth="yes"/>
      <point x="157" y="703"/>
      <point x="86" y="663"/>
      <point x="97" y="509" type="curve" smooth="yes"/>
      <point x="114" y="304" type="line" smooth="yes"/>
      <point x="120" y="247"/>
      <point x="109" y="200"/>
      <point x="38" y="167" type="curve"/>
      <point x="38" y="0" type="line"/>
      <point x="575" y="0" type="line"/>
      <point x="575" y="167" type="line"/>
      <point x="342" y="167" type="line" smooth="yes"/>
      <point x="313" y="167"/>
      <point x="284" y="167"/>
      <point x="256" y="157" type="curve"/>
      <point x="295" y="187"/>
      <point x="338" y="213"/>
      <point x="330" y="304" type="curve" smooth="yes"/>
      <point x="309" y="499" type="line" smooth="yes"/>
      <point x="306" y="526"/>
      <point x="321" y="538"/>
      <point x="358" y="538" type="curve" smooth="yes"/>
      <point x="508" y="538"/>
      <point x="508" y="538"/>
      <point x="543" y="538" type="curve"/>
      <point x="553" y="693" type="line"/>
      <point x="461" y="700"/>
      <point x="364" y="703"/>
    </contour>
    <contour>
      <point x="489" y="414" type="line"/>
      <point x="35" y="414" type="line"/>
      <point x="37" y="314" type="line"/>
      <point x="484" y="314" type="line"/>
    </contour>
  </outline>
</glyph>
<glyph name="currency" format="2">
  <advance width="575"/>
  <unicode hex="00A4"/>
  <outline>
    <contour>
      <point x="287" y="445" type="curve" smooth="yes"/>
      <point x="335" y="445"/>
      <point x="377" y="404"/>
      <point x="377" y="353" type="curve" smooth="yes"/>
      <point x="377" y="303"/>
      <point x="335" y="261"/>
      <point x="287" y="261" type="curve" smooth="yes"/>
      <point x="239" y="261"/>
      <point x="197" y="303"/>
      <point x="197" y="353" type="curve" smooth="yes"/>
      <point x="197" y="404"/>
      <point x="239" y="445"/>
    </contour>
    <contour>
      <point x="122" y="604" type="line"/>
      <point x="36" y="519" type="line"/>
      <point x="124" y="431" type="line"/>
      <point x="209" y="516" type="line"/>
    </contour>
    <contour>
      <point x="457" y="604" type="line"/>
      <point x="372" y="519" type="line"/>
      <point x="457" y="434" type="line"/>
      <point x="542" y="519" type="line"/>
    </contour>
    <contour>
      <point x="126" y="287" type="line"/>
      <point x="30" y="192" type="line"/>
      <point x="122" y="100" type="line"/>
      <point x="217" y="195" type="line"/>
    </contour>
    <contour>
      <point x="448" y="276" type="line"/>
      <point x="363" y="191" type="line"/>
      <point x="456" y="99" type="line"/>
      <point x="542" y="184" type="line"/>
    </contour>
    <contour>
      <point x="287" y="561" type="curve" smooth="yes"/>
      <point x="172" y="561"/>
      <point x="78" y="467"/>
      <point x="78" y="352" type="curve" smooth="yes"/>
      <point x="78" y="237"/>
      <point x="172" y="143"/>
      <point x="287" y="143" type="curve" smooth="yes"/>
      <point x="402" y="143"/>
      <point x="496" y="237"/>
      <point x="496" y="352" type="curve" smooth="yes"/>
      <point x="496" y="467"/>
      <point x="402" y="561"/>
    </contour>
  </outline>
</glyph>
<glyph name="brokenbar" format="2">
  <advance width="278"/>
  <unicode hex="00A6"/>
  <outline>
    <contour>
      <point x="212" y="781" type="line"/>
      <point x="66" y="781" type="line"/>
      <point x="66" y="381" type="line"/>
      <point x="212" y="381" type="line"/>
    </contour>
    <contour>
      <point x="212" y="231" type="line"/>
      <point x="66" y="231" type="line"/>
      <point x="66" y="-169" type="line"/>
      <point x="212" y="-169" type="line"/>
    </contour>
  </outline>
</glyph>
<glyph name="section" format="2">
  <advance width="565"/>
  <unicode hex="00A7"/>
  <outline>
    <contour>
      <point x="201" y="330" type="curve"/>
      <point x="57" y="330" type="line"/>
      <point x="11" y="209"/>
      <point x="24" y="134"/>
      <point x="149" y="75" type="curve" smooth="yes"/>
      <point x="264" y="20" type="line" smooth="yes"/>
      <point x="289" y="9"/>
      <point x="312" y="-2"/>
      <point x="307" y="-23" type="curve" smooth="yes"/>
      <point x="303" y="-41"/>
      <point x="281" y="-45"/>
      <point x="217" y="-45" type="curve" smooth="yes"/>
      <point x="134" y="-45"/>
      <point x="108" y="-46"/>
      <point x="60" y="-43" type="curve"/>
      <point x="46" y="-185" type="line"/>
      <point x="118" y="-194"/>
      <point x="238" y="-197"/>
      <point x="282" y="-197" type="curve" smooth="yes"/>
      <point x="448" y="-197"/>
      <point x="532" y="-162"/>
      <point x="532" y="-31" type="curve" smooth="yes"/>
      <point x="532" y="88"/>
      <point x="466" y="117"/>
      <point x="429" y="136" type="curve" smooth="yes"/>
      <point x="284" y="212" type="line" smooth="yes"/>
      <point x="215" y="249"/>
      <point x="201" y="258"/>
    </contour>
    <contour>
      <point x="283" y="704" type="curve" smooth="yes"/>
      <point x="117" y="704"/>
      <point x="33" y="669"/>
      <point x="33" y="537" type="curve" smooth="yes"/>
      <point x="33" y="419"/>
      <point x="100" y="390"/>
      <point x="136" y="371" type="curve" smooth="yes"/>
      <point x="281" y="295" type="line" smooth="yes"/>
      <point x="351" y="257"/>
      <point x="364" y="249"/>
      <point x="364" y="177" type="curve"/>
      <point x="508" y="177" type="line"/>
      <point x="554" y="298"/>
      <point x="541" y="373"/>
      <point x="416" y="432" type="curve" smooth="yes"/>
      <point x="301" y="486" type="line" smooth="yes"/>
      <point x="276" y="497"/>
      <point x="253" y="509"/>
      <point x="258" y="530" type="curve" smooth="yes"/>
      <point x="262" y="549"/>
      <point x="285" y="551"/>
      <point x="348" y="551" type="curve" smooth="yes"/>
      <point x="425" y="551"/>
      <point x="456" y="553"/>
      <point x="505" y="550" type="curve"/>
      <point x="519" y="692" type="line"/>
      <point x="445" y="700"/>
      <point x="326" y="704"/>
    </contour>
  </outline>
</glyph>
<glyph name="dieresis" format="2">
  <advance width="436"/>
  <unicode hex="00A8"/>
  <anchor x="220" y="551" name="_top"/>
  <outline>
    <contour>
      <point x="347" y="720" type="curve" smooth="yes"/>
      <point x="278" y="720" type="line" smooth="yes"/>
      <point x="252" y="720"/>
      <point x="239" y="707"/>
      <point x="239" y="681" type="curve" smooth="yes"/>
      <point x="239" y="618" type="line" smooth="yes"/>
      <point x="239" y="592"/>
      <point x="252" y="579"/>
      <point x="278" y="579" type="curve" smooth="yes"/>
      <point x="347" y="579" type="line" smooth="yes"/>
      <point x="373" y="579"/>
      <point x="386" y="592"/>
      <point x="386" y="618" type="curve" smooth="yes"/>
      <point x="386" y="681" type="line" smooth="yes"/>
      <point x="386" y="707"/>
      <point x="373" y="720"/>
    </contour>
    <contour>
      <point x="158" y="720" type="curve" smooth="yes"/>
      <point x="89" y="720" type="line" smooth="yes"/>
      <point x="63" y="720"/>
      <point x="50" y="707"/>
      <point x="50" y="681" type="curve" smooth="yes"/>
      <point x="50" y="618" type="line" smooth="yes"/>
      <point x="50" y="592"/>
      <point x="63" y="579"/>
      <point x="89" y="579" type="curve" smooth="yes"/>
      <point x="158" y="579" type="line" smooth="yes"/>
      <point x="184" y="579"/>
      <point x="197" y="592"/>
      <point x="197" y="618" type="curve" smooth="yes"/>
      <point x="197" y="681" type="line" smooth="yes"/>
      <point x="197" y="707"/>
      <point x="184" y="720"/>
    </contour>
  </outline>
</glyph>
<glyph name="copyright" format="2">
  <advance width="782"/>
  <unicode hex="00A9"/>
  <outline>
    <contour>
      <point x="391" y="704" type="curve" smooth="yes"/>
      <point x="187" y="704"/>
      <point x="27" y="554"/>
      <point x="27" y="345" type="curve" smooth="yes"/>
      <point x="27" y="136"/>
      <point x="187" y="-14"/>
      <point x="391" y="-14" type="curve" smooth="yes"/>
      <point x="596" y="-14"/>
      <point x="755" y="136"/>
      <point x="755" y="345" type="curve" smooth="yes"/>
      <point x="755" y="554"/>
      <point x="596" y="704"/>
    </contour>
    <contour>
      <point x="395" y="541" type="curve" smooth="yes"/>
      <point x="253" y="541"/>
      <point x="201" y="490"/>
      <point x="201" y="346" type="curve" smooth="yes"/>
      <point x="201" y="201"/>
      <point x="253" y="150"/>
      <point x="395" y="150" type="curve" smooth="yes"/>
      <point x="461" y="150"/>
      <point x="499" y="156"/>
      <point x="543" y="171" type="curve"/>
      <point x="532" y="279" type="line"/>
      <point x="490" y="276"/>
      <point x="455" y="276"/>
      <point x="395" y="276" type="curve" smooth="yes"/>
      <point x="362" y="276"/>
      <point x="360" y="285"/>
      <point x="360" y="346" type="curve" smooth="yes"/>
      <point x="360" y="406"/>
      <point x="362" y="416"/>
      <point x="395" y="416" type="curve" smooth="yes"/>
      <point x="452" y="416"/>
      <point x="480" y="415"/>
      <point x="523" y="416" type="curve"/>
      <point x="534" y="525" type="line"/>
      <point x="491" y="536"/>
      <point x="461" y="541"/>
    </contour>
    <contour>
      <point x="391" y="607" type="curve" smooth="yes"/>
      <point x="536" y="607"/>
      <point x="653" y="497"/>
      <point x="653" y="345" type="curve" smooth="yes"/>
      <point x="653" y="193"/>
      <point x="536" y="83"/>
      <point x="391" y="83" type="curve" smooth="yes"/>
      <point x="248" y="83"/>
      <point x="129" y="193"/>
      <point x="129" y="345" type="curve" smooth="yes"/>
      <point x="129" y="497"/>
      <point x="248" y="607"/>
    </contour>
  </outline>
</glyph>
<glyph name="ordfeminine" format="2">
  <advance width="433"/>
  <unicode hex="00AA"/>
  <outline>
    <contour>
      <point x="243" y="623" type="curve" smooth="yes"/>
      <point x="192" y="623"/>
      <point x="99" y="615"/>
      <point x="49" y="606" type="curve"/>
      <point x="63" y="510" type="line"/>
      <point x="119" y="513"/>
      <point x="172" y="513"/>
      <point x="207" y="513" type="curve" smooth="yes"/>
      <point x="232" y="513"/>
      <point x="242" y="505"/>
      <point x="242" y="483" type="curve" smooth="yes"/>
      <point x="242" y="363" type="line"/>
      <point x="252" y="349" type="line"/>
      <point x="272" y="277" type="line"/>
      <point x="393" y="277" type="line"/>
      <point x="393" y="482" type="line" smooth="yes"/>
      <point x="393" y="590"/>
      <point x="340" y="623"/>
    </contour>
    <contour>
      <point x="336" y="484" type="line"/>
      <point x="142" y="484" type="line" smooth="yes"/>
      <point x="73" y="484"/>
      <point x="30" y="450"/>
      <point x="30" y="396" type="curve" smooth="yes"/>
      <point x="30" y="363" type="line" smooth="yes"/>
      <point x="30" y="300"/>
      <point x="84" y="267"/>
      <point x="146" y="267" type="curve" smooth="yes"/>
      <point x="243" y="267"/>
      <point x="278" y="344"/>
      <point x="290" y="374" type="curve"/>
      <point x="290" y="419" type="line"/>
      <point x="269" y="395"/>
      <point x="232" y="369"/>
      <point x="201" y="369" type="curve" smooth="yes"/>
      <point x="184" y="369"/>
      <point x="176" y="376"/>
      <point x="176" y="386" type="curve" smooth="yes"/>
      <point x="176" y="394" type="line" smooth="yes"/>
      <point x="176" y="404"/>
      <point x="184" y="410"/>
      <point x="200" y="412" type="curve" smooth="yes"/>
      <point x="335" y="425" type="line"/>
    </contour>
  </outline>
</glyph>
<glyph name="logicalnot" format="2">
  <advance width="571"/>
  <unicode hex="00AC"/>
  <outline>
    <contour>
      <point x="523" y="381" type="line"/>
      <point x="41" y="381" type="line"/>
      <point x="41" y="237" type="line"/>
      <point x="523" y="237" type="line"/>
    </contour>
    <contour>
      <point x="523" y="370" type="line"/>
      <point x="368" y="359" type="line"/>
      <point x="368" y="137" type="line"/>
      <point x="523" y="138" type="line"/>
    </contour>
  </outline>
</glyph>
<glyph name="registered" format="2">
  <advance width="493"/>
  <unicode hex="00AE"/>
  <outline>
    <contour>
      <point x="247" y="704" type="curve" smooth="yes"/>
      <point x="123" y="704"/>
      <point x="24" y="605"/>
      <point x="24" y="482" type="curve" smooth="yes"/>
      <point x="24" y="358"/>
      <point x="123" y="259"/>
      <point x="247" y="259" type="curve" smooth="yes"/>
      <point x="370" y="259"/>
      <point x="469" y="358"/>
      <point x="469" y="482" type="curve" smooth="yes"/>
      <point x="469" y="605"/>
      <point x="370" y="704"/>
    </contour>
    <contour>
      <point x="233" y="591" type="line"/>
      <point x="148" y="591" type="line"/>
      <point x="148" y="383" type="line"/>
      <point x="233" y="383" type="line"/>
    </contour>
    <contour>
      <point x="247" y="647" type="curve" smooth="yes"/>
      <point x="336" y="647"/>
      <point x="411" y="573"/>
      <point x="411" y="482" type="curve" smooth="yes"/>
      <point x="411" y="390"/>
      <point x="336" y="316"/>
      <point x="247" y="316" type="curve" smooth="yes"/>
      <point x="157" y="316"/>
      <point x="82" y="390"/>
      <point x="82" y="482" type="curve" smooth="yes"/>
      <point x="82" y="573"/>
      <point x="157" y="647"/>
    </contour>
    <contour>
      <point x="251" y="594" type="curve" smooth="yes"/>
      <point x="201" y="594"/>
      <point x="180" y="594"/>
      <point x="148" y="591" type="curve"/>
      <point x="154" y="533" type="line"/>
      <point x="166" y="535"/>
      <point x="201" y="535"/>
      <point x="248" y="535" type="curve" smooth="yes"/>
      <point x="266" y="535"/>
      <point x="269" y="533"/>
      <point x="269" y="521" type="curve" smooth="yes"/>
      <point x="269" y="509"/>
      <point x="266" y="505"/>
      <point x="248" y="505" type="curve" smooth="yes"/>
      <point x="153" y="505" type="line"/>
      <point x="153" y="455" type="line"/>
      <point x="177" y="454"/>
      <point x="191" y="454"/>
      <point x="245" y="454" type="curve" smooth="yes"/>
      <point x="256" y="454"/>
      <point x="259" y="453"/>
      <point x="263" y="443" type="curve" smooth="yes"/>
      <point x="274" y="383" type="line"/>
      <point x="364" y="383" type="line"/>
      <point x="347" y="446" type="line" smooth="yes"/>
      <point x="340" y="476"/>
      <point x="321" y="479"/>
      <point x="306" y="480" type="curve"/>
      <point x="306" y="482" type="line"/>
      <point x="345" y="486"/>
      <point x="355" y="509"/>
      <point x="355" y="530" type="curve" smooth="yes"/>
      <point x="355" y="579"/>
      <point x="323" y="594"/>
    </contour>
  </outline>
</glyph>
<glyph name="macron" format="2">
  <advance width="400"/>
  <unicode hex="00AF"/>
  <anchor x="199" y="553" name="_top"/>
  <outline>
    <contour>
      <point x="360" y="713" type="line"/>
      <point x="40" y="713" type="line"/>
      <point x="40" y="590" type="line"/>
      <point x="360" y="590" type="line"/>
    </contour>
  </outline>
</glyph>
<glyph name="degree" format="2">
  <advance width="325"/>
  <unicode hex="00B0"/>
  <outline>
    <contour>
      <point x="163" y="704" type="curve" smooth="yes"/>
      <point x="85" y="704"/>
      <point x="20" y="643"/>
      <point x="20" y="565" type="curve" smooth="yes"/>
      <point x="20" y="486"/>
      <point x="85" y="425"/>
      <point x="163" y="425" type="curve" smooth="yes"/>
      <point x="240" y="425"/>
      <point x="305" y="486"/>
      <point x="305" y="565" type="curve" smooth="yes"/>
      <point x="305" y="643"/>
      <point x="240" y="704"/>
    </contour>
    <contour>
      <point x="163" y="614" type="curve" smooth="yes"/>
      <point x="188" y="614"/>
      <point x="209" y="593"/>
      <point x="209" y="565" type="curve" smooth="yes"/>
      <point x="209" y="537"/>
      <point x="188" y="515"/>
      <point x="163" y="515" type="curve" smooth="yes"/>
      <point x="137" y="515"/>
      <point x="116" y="537"/>
      <point x="116" y="565" type="curve" smooth="yes"/>
      <point x="116" y="593"/>
      <point x="137" y="614"/>
    </contour>
  </outline>
</glyph>
<glyph name="plusminus" format="2">
  <advance width="558"/>
  <unicode hex="00B1"/>
  <outline>
    <contour>
      <point x="514" y="465" type="line"/>
      <point x="44" y="465" type="line"/>
      <point x="44" y="311" type="line"/>
      <point x="514" y="311" type="line"/>
    </contour>
    <contour>
      <point x="514" y="174" type="line"/>
      <point x="44" y="174" type="line"/>
      <point x="44" y="19" type="line"/>
      <point x="514" y="19" type="line"/>
    </contour>
    <contour>
      <point x="355" y="573" type="line"/>
      <point x="203" y="573" type="line"/>
      <point x="203" y="204" type="line"/>
      <point x="356" y="204" type="line"/>
    </contour>
  </outline>
</glyph>
<glyph name="threesuperior" format="2">
  <advance width="411"/>
  <unicode hex="00B3"/>
  <outline>
    <contour>
      <point x="207" y="783" type="curve" smooth="yes"/>
      <point x="154" y="783"/>
      <point x="98" y="779"/>
      <point x="42" y="771" type="curve"/>
      <point x="46" y="662" type="line"/>
      <point x="81" y="661"/>
      <point x="129" y="660"/>
      <point x="178" y="660" type="curve" smooth="yes"/>
      <point x="212" y="660"/>
      <point x="217" y="658"/>
      <point x="217" y="642" type="curve" smooth="yes"/>
      <point x="217" y="625"/>
      <point x="213" y="623"/>
      <point x="179" y="622" type="curve" smooth="yes"/>
      <point x="92" y="618" type="line"/>
      <point x="92" y="525" type="line"/>
      <point x="179" y="522" type="line" smooth="yes"/>
      <point x="215" y="521"/>
      <point x="220" y="518"/>
      <point x="220" y="498" type="curve" smooth="yes"/>
      <point x="220" y="477"/>
      <point x="214" y="475"/>
      <point x="161" y="475" type="curve" smooth="yes"/>
      <point x="123" y="475"/>
      <point x="100" y="474"/>
      <point x="36" y="476" type="curve"/>
      <point x="32" y="363" type="line"/>
      <point x="87" y="356"/>
      <point x="148" y="351"/>
      <point x="207" y="351" type="curve" smooth="yes"/>
      <point x="338" y="351"/>
      <point x="385" y="384"/>
      <point x="384" y="475" type="curve" smooth="yes"/>
      <point x="383" y="543"/>
      <point x="363" y="570"/>
      <point x="292" y="579" type="curve"/>
      <point x="292" y="581" type="line"/>
      <point x="359" y="589"/>
      <point x="372" y="622"/>
      <point x="372" y="686" type="curve" smooth="yes"/>
      <point x="372" y="760"/>
      <point x="331" y="783"/>
    </contour>
  </outline>
</glyph>
<glyph name="acute" format="2">
  <advance width="392"/>
  <unicode hex="00B4"/>
  <anchor x="142" y="526" name="_top"/>
  <outline>
    <contour>
      <point x="273" y="747" type="line"/>
      <point x="40" y="597" type="line"/>
      <point x="97" y="511" type="line"/>
      <point x="352" y="614" type="line"/>
    </contour>
  </outline>
</glyph>
<glyph name="onesuperior" format="2">
  <advance width="321"/>
  <unicode hex="00B9"/>
  <outline>
    <contour>
      <point x="275" y="774" type="line"/>
      <point x="115" y="774" type="line"/>
      <point x="6" y="735" type="line"/>
      <point x="24" y="637" type="line"/>
      <point x="121" y="651" type="line"/>
      <point x="116" y="630"/>
      <point x="115" y="611"/>
      <point x="115" y="591" type="curve" smooth="yes"/>
      <point x="115" y="360" type="line"/>
      <point x="275" y="360" type="line"/>
    </contour>
  </outline>
</glyph>
<glyph name="ordmasculine" format="2">
  <advance width="435"/>
  <unicode hex="00BA"/>
  <outline>
    <contour>
      <point x="218" y="623" type="curve" smooth="yes"/>
      <point x="78" y="623"/>
      <point x="27" y="575"/>
      <point x="27" y="444" type="curve" smooth="yes"/>
      <point x="27" y="315"/>
      <point x="78" y="269"/>
      <point x="218" y="269" type="curve" smooth="yes"/>
      <point x="358" y="269"/>
      <point x="408" y="315"/>
      <point x="408" y="444" type="curve" smooth="yes"/>
      <point x="408" y="575"/>
      <point x="358" y="623"/>
    </contour>
    <contour>
      <point x="218" y="521" type="curve" smooth="yes"/>
      <point x="245" y="521"/>
      <point x="250" y="510"/>
      <point x="250" y="444" type="curve" smooth="yes"/>
      <point x="250" y="381"/>
      <point x="245" y="370"/>
      <point x="218" y="370" type="curve" smooth="yes"/>
      <point x="190" y="370"/>
      <point x="185" y="381"/>
      <point x="185" y="444" type="curve" smooth="yes"/>
      <point x="185" y="510"/>
      <point x="190" y="521"/>
    </contour>
  </outline>
</glyph>
<glyph name="onehalf" format="2">
  <advance width="943"/>
  <unicode hex="00BD"/>
  <outline>
    <contour>
      <point x="683" y="690" type="line"/>
      <point x="556" y="690" type="line"/>
      <point x="170" y="0" type="line"/>
      <point x="296" y="0" type="line"/>
    </contour>
    <contour>
      <point x="280" y="690" type="line"/>
      <point x="120" y="690" type="line"/>
      <point x="19" y="651" type="line"/>
      <point x="37" y="553" type="line"/>
      <point x="126" y="567" type="line"/>
      <point x="121" y="546"/>
      <point x="120" y="527"/>
      <point x="120" y="507" type="curve" smooth="yes"/>
      <point x="120" y="276" type="line"/>
      <point x="280" y="276" type="line"/>
    </contour>
    <contour>
      <point x="721" y="421" type="curve" smooth="yes"/>
      <point x="692" y="421"/>
      <point x="629" y="420"/>
      <point x="564" y="409" type="curve"/>
      <point x="568" y="292" type="line"/>
      <point x="628" y="290"/>
      <point x="659" y="290"/>
      <point x="704" y="290" type="curve" smooth="yes"/>
      <point x="726" y="290"/>
      <point x="736" y="289"/>
      <point x="730" y="280" type="curve" smooth="yes"/>
      <point x="722" y="268"/>
      <point x="692" y="241"/>
      <point x="654" y="206" type="curve" smooth="yes"/>
      <point x="582" y="143" type="line" smooth="yes"/>
      <point x="564" y="126"/>
      <point x="560" y="105"/>
      <point x="560" y="79" type="curve" smooth="yes"/>
      <point x="560" y="0" type="line"/>
      <point x="913" y="0" type="line"/>
      <point x="913" y="131" type="line"/>
      <point x="809" y="134" type="line" smooth="yes"/>
      <point x="789" y="135"/>
      <point x="774" y="132"/>
      <point x="754" y="126" type="curve"/>
      <point x="841" y="201" type="line" smooth="yes"/>
      <point x="882" y="236"/>
      <point x="904" y="277"/>
      <point x="904" y="303" type="curve" smooth="yes"/>
      <point x="904" y="401"/>
      <point x="846" y="421"/>
    </contour>
  </outline>
</glyph>
<glyph name="threequarters" format="2">
  <advance width="1017"/>
  <unicode hex="00BE"/>
  <outline>
    <contour>
      <point x="759" y="690" type="line"/>
      <point x="632" y="690" type="line"/>
      <point x="246" y="0" type="line"/>
      <point x="372" y="0" type="line"/>
    </contour>
    <contour>
      <point x="203" y="696" type="curve" smooth="yes"/>
      <point x="150" y="696"/>
      <point x="95" y="692"/>
      <point x="40" y="684" type="curve"/>
      <point x="44" y="575" type="line"/>
      <point x="78" y="575"/>
      <point x="125" y="574"/>
      <point x="173" y="573" type="curve" smooth="yes"/>
      <point x="205" y="572"/>
      <point x="208" y="571"/>
      <point x="208" y="555" type="curve" smooth="yes"/>
      <point x="208" y="535"/>
      <point x="205" y="532"/>
      <point x="174" y="532" type="curve" smooth="yes"/>
      <point x="89" y="532" type="line"/>
      <point x="89" y="437" type="line"/>
      <point x="174" y="438" type="line" smooth="yes"/>
      <point x="207" y="438"/>
      <point x="211" y="434"/>
      <point x="211" y="411" type="curve" smooth="yes"/>
      <point x="211" y="390"/>
      <point x="206" y="388"/>
      <point x="156" y="388" type="curve" smooth="yes"/>
      <point x="119" y="388"/>
      <point x="98" y="387"/>
      <point x="34" y="389" type="curve"/>
      <point x="30" y="276" type="line"/>
      <point x="84" y="269"/>
      <point x="144" y="264"/>
      <point x="202" y="264" type="curve" smooth="yes"/>
      <point x="330" y="264"/>
      <point x="376" y="297"/>
      <point x="375" y="388" type="curve" smooth="yes"/>
      <point x="374" y="456"/>
      <point x="355" y="483"/>
      <point x="285" y="492" type="curve"/>
      <point x="285" y="494" type="line"/>
      <point x="351" y="502"/>
      <point x="363" y="535"/>
      <point x="363" y="599" type="curve" smooth="yes"/>
      <point x="363" y="673"/>
      <point x="324" y="696"/>
    </contour>
    <contour>
      <point x="826" y="414" type="line"/>
      <point x="685" y="414" type="line"/>
      <point x="582" y="141" type="line" smooth="yes"/>
      <point x="569" y="107"/>
      <point x="593" y="76"/>
      <point x="632" y="76" type="curve" smooth="yes"/>
      <point x="951" y="76" type="line"/>
      <point x="995" y="90" type="line"/>
      <point x="995" y="177" type="line"/>
      <point x="754" y="177" type="line" smooth="yes"/>
      <point x="744" y="177"/>
      <point x="740" y="179"/>
      <point x="743" y="187" type="curve" smooth="yes"/>
    </contour>
    <contour>
      <point x="950" y="331" type="line"/>
      <point x="828" y="331" type="line"/>
      <point x="803" y="270" type="line"/>
      <point x="803" y="0" type="line"/>
      <point x="950" y="0" type="line"/>
    </contour>
  </outline>
</glyph>
<glyph name="AE" format="2">
  <advance width="954"/>
  <unicode hex="00C6"/>
  <anchor x="564" y="735" name="top"/>
  <outline>
    <contour>
      <point x="576" y="692" type="curve" smooth="yes"/>
      <point x="338" y="692"/>
      <point x="272" y="646"/>
      <point x="222" y="534" type="curve" smooth="yes"/>
      <point x="-19" y="0" type="line"/>
      <point x="202" y="0" type="line"/>
      <point x="417" y="516" type="line" smooth="yes"/>
      <point x="423" y="528"/>
      <point x="431" y="547"/>
      <point x="440" y="560" type="curve"/>
      <point x="454" y="560" type="line"/>
      <point x="445" y="542"/>
      <point x="439" y="519"/>
      <point x="439" y="498" type="curve" smooth="yes"/>
      <point x="439" y="153" type="line" smooth="yes"/>
      <point x="439" y="60"/>
      <point x="494" y="-4"/>
      <point x="585" y="-4" type="curve" smooth="yes"/>
      <point x="699" y="-4"/>
      <point x="822" y="-4"/>
      <point x="926" y="9" type="curve"/>
      <point x="916" y="159" type="line"/>
      <point x="680" y="159" type="line" smooth="yes"/>
      <point x="656" y="159"/>
      <point x="641" y="174"/>
      <point x="641" y="195" type="curve" smooth="yes"/>
      <point x="641" y="495" type="line" smooth="yes"/>
      <point x="641" y="516"/>
      <point x="657" y="531"/>
      <point x="680" y="531" type="curve" smooth="yes"/>
      <point x="916" y="531" type="line"/>
      <point x="926" y="681" type="line"/>
      <point x="805" y="692"/>
      <point x="704" y="692"/>
    </contour>
    <contour>
      <point x="488" y="309" type="line"/>
      <point x="131" y="309" type="line"/>
      <point x="130" y="161" type="line"/>
      <point x="488" y="161" type="line"/>
    </contour>
    <contour>
      <point x="447" y="420" type="line"/>
      <point x="447" y="286" type="line"/>
      <point x="882" y="286" type="line"/>
      <point x="882" y="420" type="line"/>
    </contour>
  </outline>
</glyph>
<glyph name="Eth" format="2">
  <advance width="701"/>
  <unicode hex="00D0"/>
  <outline>
    <contour>
      <point x="368" y="409" type="line"/>
      <point x="7" y="409" type="line"/>
      <point x="7" y="305" type="line"/>
      <point x="368" y="305" type="line"/>
    </contour>
    <component base="D"/>
  </outline>
</glyph>
<glyph name="Oslash" format="2">
  <advance width="707"/>
  <unicode hex="00D8"/>
  <anchor x="351" y="735" name="top"/>
  <outline>
    <contour>
      <point x="507" y="757" type="line"/>
      <point x="133" y="-44" type="line"/>
      <point x="191" y="-71" type="line"/>
      <point x="565" y="730" type="line"/>
    </contour>
    <component base="O"/>
  </outline>
</glyph>
<glyph name="Thorn" format="2">
  <advance width="633"/>
  <unicode hex="00DE"/>
  <outline>
    <contour>
      <point x="337" y="578" type="curve" smooth="yes"/>
      <point x="203" y="578"/>
      <point x="142" y="577"/>
      <point x="53" y="568" type="curve"/>
      <point x="68" y="420" type="line"/>
      <point x="101" y="424"/>
      <point x="200" y="425"/>
      <point x="332" y="425" type="curve" smooth="yes"/>
      <point x="386" y="425"/>
      <point x="399" y="409"/>
      <point x="399" y="343" type="curve" smooth="yes"/>
      <point x="399" y="279"/>
      <point x="386" y="263"/>
      <point x="332" y="263" type="curve" smooth="yes"/>
      <point x="243" y="263"/>
      <point x="151" y="263"/>
      <point x="67" y="263" type="curve"/>
      <point x="64" y="165" type="line"/>
      <point x="95" y="143"/>
      <point x="237" y="110"/>
      <point x="367" y="110" type="curve" smooth="yes"/>
      <point x="551" y="110"/>
      <point x="616" y="161"/>
      <point x="616" y="343" type="curve" smooth="yes"/>
      <point x="616" y="527"/>
      <point x="551" y="578"/>
    </contour>
    <contour>
      <point x="270" y="690" type="line"/>
      <point x="53" y="690" type="line"/>
      <point x="53" y="0" type="line"/>
      <point x="270" y="0" type="line"/>
    </contour>
  </outline>
</glyph>
<glyph name="ae" format="2">
  <advance width="886"/>
  <unicode hex="00E6"/>
  <anchor x="462" y="565" name="top"/>
  <outline>
    <contour>
      <point x="610" y="514" type="curve" smooth="yes"/>
      <point x="406" y="514"/>
      <point x="331" y="443"/>
      <point x="331" y="246" type="curve" smooth="yes"/>
      <point x="331" y="76"/>
      <point x="406" y="-12"/>
      <point x="611" y="-12" type="curve" smooth="yes"/>
      <point x="700" y="-12"/>
      <point x="781" y="-2"/>
      <point x="851" y="34" type="curve"/>
      <point x="832" y="160" type="line"/>
      <point x="747" y="151"/>
      <point x="671" y="149"/>
      <point x="634" y="149" type="curve" smooth="yes"/>
      <point x="554" y="149"/>
      <point x="542" y="177"/>
      <point x="542" y="269" type="curve" smooth="yes"/>
      <point x="542" y="368"/>
      <point x="554" y="380"/>
      <point x="616" y="379" type="curve" smooth="yes"/>
      <point x="650" y="379"/>
      <point x="664" y="373"/>
      <point x="664" y="341" type="curve" smooth="yes"/>
      <point x="664" y="307"/>
      <point x="657" y="303"/>
      <point x="613" y="303" type="curve" smooth="yes"/>
      <point x="413" y="303" type="line"/>
      <point x="413" y="204" type="line"/>
      <point x="672" y="204" type="line" smooth="yes"/>
      <point x="819" y="204"/>
      <point x="866" y="243"/>
      <point x="865" y="336" type="curve" smooth="yes"/>
      <point x="864" y="453"/>
      <point x="795" y="514"/>
    </contour>
    <contour>
      <point x="462" y="304" type="line"/>
      <point x="182" y="304" type="line" smooth="yes"/>
      <point x="83" y="304"/>
      <point x="21" y="255"/>
      <point x="21" y="178" type="curve" smooth="yes"/>
      <point x="21" y="128" type="line" smooth="yes"/>
      <point x="21" y="34"/>
      <point x="98" y="-14"/>
      <point x="189" y="-14" type="curve" smooth="yes"/>
      <point x="333" y="-14"/>
      <point x="389" y="90"/>
      <point x="408" y="132" type="curve"/>
      <point x="398" y="206" type="line"/>
      <point x="366" y="168"/>
      <point x="309" y="128"/>
      <point x="264" y="128" type="curve" smooth="yes"/>
      <point x="238" y="128"/>
      <point x="225" y="141"/>
      <point x="225" y="159" type="curve" smooth="yes"/>
      <point x="225" y="175" type="line" smooth="yes"/>
      <point x="225" y="193"/>
      <point x="237" y="206"/>
      <point x="261" y="206" type="curve" smooth="yes"/>
      <point x="461" y="204" type="line"/>
    </contour>
    <contour>
      <point x="327" y="514" type="curve" smooth="yes"/>
      <point x="253" y="514"/>
      <point x="121" y="503"/>
      <point x="47" y="489" type="curve"/>
      <point x="66" y="356" type="line"/>
      <point x="149" y="360"/>
      <point x="226" y="361"/>
      <point x="277" y="361" type="curve" smooth="yes"/>
      <point x="317" y="361"/>
      <point x="331" y="346"/>
      <point x="331" y="311" type="curve" smooth="yes"/>
      <point x="331" y="224" type="line"/>
      <point x="542" y="224" type="line"/>
      <point x="542" y="310" type="line" smooth="yes"/>
      <point x="542" y="466"/>
      <point x="466" y="514"/>
    </contour>
  </outline>
</glyph>
<glyph name="divide" format="2">
  <advance width="535"/>
  <unicode hex="00F7"/>
  <outline>
    <contour>
      <point x="508" y="365" type="line"/>
      <point x="27" y="365" type="line"/>
      <point x="27" y="219" type="line"/>
      <point x="508" y="219" type="line"/>
    </contour>
    <contour>
      <point x="292" y="176" type="curve" smooth="yes"/>
      <point x="242" y="176" type="line" smooth="yes"/>
      <point x="183" y="176"/>
      <point x="165" y="158"/>
      <point x="165" y="99" type="curve" smooth="yes"/>
      <point x="165" y="81" type="line" smooth="yes"/>
      <point x="165" y="23"/>
      <point x="183" y="4"/>
      <point x="242" y="4" type="curve" smooth="yes"/>
      <point x="292" y="4" type="line" smooth="yes"/>
      <point x="350" y="4"/>
      <point x="369" y="23"/>
      <point x="369" y="81" type="curve" smooth="yes"/>
      <point x="369" y="99" type="line" smooth="yes"/>
      <point x="369" y="158"/>
      <point x="350" y="176"/>
    </contour>
    <contour>
      <point x="292" y="577" type="curve" smooth="yes"/>
      <point x="242" y="577" type="line" smooth="yes"/>
      <point x="183" y="577"/>
      <point x="165" y="559"/>
      <point x="165" y="500" type="curve" smooth="yes"/>
      <point x="165" y="482" type="line" smooth="yes"/>
      <point x="165" y="423"/>
      <point x="183" y="405"/>
      <point x="242" y="405" type="curve" smooth="yes"/>
      <point x="292" y="405" type="line" smooth="yes"/>
      <point x="350" y="405"/>
      <point x="369" y="423"/>
      <point x="369" y="482" type="curve" smooth="yes"/>
      <point x="369" y="500" type="line" smooth="yes"/>
      <point x="369" y="559"/>
      <point x="350" y="577"/>
    </contour>
  </outline>
</glyph>
<glyph name="oslash" format="2">
  <advance width="611"/>
  <unicode hex="00F8"/>
  <anchor x="306" y="-12" name="bottom"/>
  <anchor x="305" y="557" name="top"/>
  <outline>
    <contour>
      <point x="437" y="597" type="line"/>
      <point x="127" y="-71" type="line"/>
      <point x="173" y="-93" type="line"/>
      <point x="483" y="575" type="line"/>
    </contour>
    <component base="o"/>
  </outline>
</glyph>
<glyph name="dcroat" format="2">
  <advance width="617"/>
  <unicode hex="0111"/>
  <outline>
    <contour>
      <point x="631" y="631" type="line"/>
      <point x="260" y="631" type="line"/>
      <point x="260" y="547" type="line"/>
      <point x="631" y="547" type="line"/>
    </contour>
    <component base="d"/>
  </outline>
</glyph>
<glyph name="idotless" format="2">
  <advance width="305"/>
  <unicode hex="0131"/>
  <anchor x="151" y="-12" name="bottom"/>
  <anchor x="238" y="0" name="ogonek"/>
  <anchor x="150" y="557" name="top"/>
  <outline>
    <contour>
      <point x="258" y="500" type="line"/>
      <point x="47" y="500" type="line"/>
      <point x="47" y="0" type="line"/>
      <point x="258" y="0" type="line"/>
    </contour>
  </outline>
</glyph>
<glyph name="lslash" format="2">
  <advance width="390"/>
  <unicode hex="0142"/>
  <outline>
    <contour>
      <point x="365" y="503" type="line"/>
      <point x="4" y="363" type="line"/>
      <point x="4" y="259" type="line"/>
      <point x="365" y="399" type="line"/>
    </contour>
    <component base="l" xOffset="29"/>
  </outline>
</glyph>
<glyph name="Eng" format="2">
  <advance width="740"/>
  <unicode hex="014A"/>
  <outline>
    <contour>
      <point x="687" y="690" type="line"/>
      <point x="487" y="690" type="line"/>
      <point x="487" y="406" type="line" smooth="yes"/>
      <point x="487" y="365"/>
      <point x="491" y="324"/>
      <point x="497" y="283" type="curve"/>
      <point x="490" y="283" type="line"/>
      <point x="474" y="331"/>
      <point x="454" y="374"/>
      <point x="438" y="401" type="curve" smooth="yes"/>
      <point x="294" y="627" type="line" smooth="yes"/>
      <point x="271" y="668"/>
      <point x="254" y="690"/>
      <point x="209" y="690" type="curve" smooth="yes"/>
      <point x="127" y="690" type="line" smooth="yes"/>
      <point x="78" y="690"/>
      <point x="52" y="664"/>
      <point x="52" y="615" type="curve" smooth="yes"/>
      <point x="52" y="0" type="line"/>
      <point x="251" y="0" type="line"/>
      <point x="251" y="302" type="line" smooth="yes"/>
      <point x="251" y="341"/>
      <point x="247" y="379"/>
      <point x="242" y="418" type="curve"/>
      <point x="248" y="418" type="line"/>
      <point x="261" y="378"/>
      <point x="275" y="334"/>
      <point x="295" y="300" type="curve" smooth="yes"/>
      <point x="450" y="63" type="line" smooth="yes"/>
      <point x="466" y="36"/>
      <point x="485" y="9"/>
      <point x="495" y="9" type="curve" smooth="yes"/>
      <point x="500" y="9" type="line"/>
      <point x="500" y="-15" type="line" smooth="yes"/>
      <point x="500" y="-34"/>
      <point x="484" y="-42"/>
      <point x="457" y="-42" type="curve" smooth="yes"/>
      <point x="421" y="-42" type="line"/>
      <point x="398" y="-178" type="line"/>
      <point x="438" y="-196"/>
      <point x="503" y="-204"/>
      <point x="542" y="-204" type="curve" smooth="yes"/>
      <point x="629" y="-204"/>
      <point x="687" y="-141"/>
      <point x="687" y="-33" type="curve" smooth="yes"/>
    </contour>
  </outline>
</glyph>
<glyph name="eng" format="2">
  <advance width="621"/>
  <unicode hex="014B"/>
  <outline>
    <contour>
      <point x="433" y="514" type="curve" smooth="yes"/>
      <point x="367" y="514"/>
      <point x="293" y="486"/>
      <point x="226" y="427" type="curve"/>
      <point x="207" y="500" type="line"/>
      <point x="43" y="500" type="line"/>
      <point x="43" y="0" type="line"/>
      <point x="253" y="0" type="line"/>
      <point x="253" y="326" type="line"/>
      <point x="289" y="336"/>
      <point x="313" y="337"/>
      <point x="335" y="337" type="curve" smooth="yes"/>
      <point x="361" y="337"/>
      <point x="371" y="329"/>
      <point x="371" y="307" type="curve" smooth="yes"/>
      <point x="371" y="-6" type="line" smooth="yes"/>
      <point x="371" y="-25"/>
      <point x="356" y="-33"/>
      <point x="330" y="-33" type="curve" smooth="yes"/>
      <point x="294" y="-33" type="line"/>
      <point x="271" y="-169" type="line"/>
      <point x="304" y="-187"/>
      <point x="383" y="-195"/>
      <point x="424" y="-195" type="curve" smooth="yes"/>
      <point x="524" y="-195"/>
      <point x="581" y="-132"/>
      <point x="581" y="-24" type="curve" smooth="yes"/>
      <point x="581" y="374" type="line" smooth="yes"/>
      <point x="581" y="466"/>
      <point x="531" y="514"/>
    </contour>
  </outline>
</glyph>
<glyph name="tbar" format="2">
  <advance width="438"/>
  <unicode hex="0167"/>
  <outline>
    <contour>
      <point x="387" y="315" type="line"/>
      <point x="39" y="315" type="line"/>
      <point x="39" y="221" type="line"/>
      <point x="387" y="221" type="line"/>
    </contour>
    <component base="t"/>
  </outline>
</glyph>
<glyph name="florin" format="2">
  <advance width="513"/>
  <unicode hex="0192"/>
  <outline>
    <contour>
      <point x="348" y="704" type="curve" smooth="yes"/>
      <point x="216" y="704"/>
      <point x="165" y="635"/>
      <point x="156" y="541" type="curve" smooth="yes"/>
      <point x="110" y="12" type="line" smooth="yes"/>
      <point x="107" y="-27"/>
      <point x="96" y="-40"/>
      <point x="65" y="-40" type="curve" smooth="yes"/>
      <point x="4" y="-40" type="line"/>
      <point x="-27" y="-166" type="line"/>
      <point x="14" y="-176"/>
      <point x="93" y="-180"/>
      <point x="127" y="-180" type="curve" smooth="yes"/>
      <point x="259" y="-180"/>
      <point x="310" y="-111"/>
      <point x="319" y="-17" type="curve" smooth="yes"/>
      <point x="365" y="512" type="line" smooth="yes"/>
      <point x="368" y="551"/>
      <point x="379" y="564"/>
      <point x="410" y="564" type="curve" smooth="yes"/>
      <point x="471" y="564" type="line"/>
      <point x="502" y="690" type="line"/>
      <point x="461" y="700"/>
      <point x="382" y="704"/>
    </contour>
    <contour>
      <point x="450" y="410" type="line"/>
      <point x="151" y="410" type="line"/>
      <point x="52" y="405" type="line"/>
      <point x="43" y="284" type="line"/>
      <point x="440" y="284" type="line"/>
    </contour>
  </outline>
</glyph>
<glyph name="ohorn" format="2">
  <advance width="654"/>
  <unicode hex="01A1"/>
  <anchor x="304" y="-12" name="bottom"/>
  <anchor x="307" y="540" name="top"/>
  <outline>
    <contour>
      <point x="306" y="514" type="curve" smooth="yes"/>
      <point x="101" y="514"/>
      <point x="26" y="444"/>
      <point x="26" y="249" type="curve" smooth="yes"/>
      <point x="26" y="57"/>
      <point x="101" y="-12"/>
      <point x="306" y="-12" type="curve" smooth="yes"/>
      <point x="510" y="-12"/>
      <point x="585" y="57"/>
      <point x="585" y="249" type="curve" smooth="yes"/>
      <point x="585" y="444"/>
      <point x="510" y="514"/>
    </contour>
    <contour>
      <point x="306" y="372" type="curve" smooth="yes"/>
      <point x="354" y="372"/>
      <point x="365" y="352"/>
      <point x="365" y="249" type="curve" smooth="yes"/>
      <point x="365" y="149"/>
      <point x="354" y="130"/>
      <point x="306" y="130" type="curve" smooth="yes"/>
      <point x="257" y="130"/>
      <point x="246" y="149"/>
      <point x="246" y="249" type="curve" smooth="yes"/>
      <point x="246" y="352"/>
      <point x="257" y="372"/>
    </contour>
    <component base="horncomb" xOffset="742" yOffset="2"/>
  </outline>
</glyph>
<glyph name="Uhorn" format="2">
  <advance width="785"/>
  <unicode hex="01AF"/>
  <anchor x="353" y="-12" name="bottom"/>
  <anchor x="353" y="735" name="top"/>
  <outline>
    <contour>
      <point x="658" y="690" type="line"/>
      <point x="441" y="690" type="line"/>
      <point x="441" y="285" type="line" smooth="yes"/>
      <point x="441" y="174"/>
      <point x="422" y="147"/>
      <point x="353" y="147" type="curve" smooth="yes"/>
      <point x="283" y="147"/>
      <point x="264" y="174"/>
      <point x="264" y="285" type="curve" smooth="yes"/>
      <point x="264" y="690" type="line"/>
      <point x="47" y="690" type="line"/>
      <point x="47" y="285" type="line" smooth="yes"/>
      <point x="47" y="65"/>
      <point x="131" y="-14"/>
      <point x="364" y="-14" type="curve" smooth="yes"/>
      <point x="580" y="-14"/>
      <point x="658" y="65"/>
      <point x="658" y="285" type="curve" smooth="yes"/>
    </contour>
    <component base="horncomb" xOffset="888" yOffset="185"/>
  </outline>
</glyph>
<glyph name="aringacute" format="2">
  <advance width="590"/>
  <unicode hex="01FB"/>
  <outline>
    <contour>
      <point x="353" y="1021" type="line"/>
      <point x="120" y="871" type="line"/>
      <point x="177" y="785" type="line"/>
      <point x="432" y="888" type="line"/>
    </contour>
    <component base="a"/>
    <component base="ring" xOffset="144" yOffset="13"/>
  </outline>
</glyph>
<glyph name="jdotless" format="2">
  <advance width="304"/>
  <unicode hex="0237"/>
  <anchor x="152" y="-12" name="bottom"/>
  <anchor x="151" y="557" name="top"/>
  <outline>
    <contour>
      <point x="257" y="500" type="line"/>
      <point x="48" y="500" type="line"/>
      <point x="48" y="58" type="line" smooth="yes"/>
      <point x="48" y="1"/>
      <point x="32" y="-45"/>
      <point x="-21" y="-98" type="curve"/>
      <point x="95" y="-190" type="line"/>
      <point x="196" y="-149"/>
      <point x="257" y="-46"/>
      <point x="257" y="58" type="curve" smooth="yes"/>
    </contour>
  </outline>
</glyph>
<glyph name="schwa" format="2">
  <advance width="590"/>
  <unicode hex="0259"/>
  <outline>
    <contour>
      <point x="281" y="-12" type="curve" smooth="yes"/>
      <point x="488" y="-12"/>
      <point x="565" y="59"/>
      <point x="565" y="256" type="curve" smooth="yes"/>
      <point x="565" y="426"/>
      <point x="489" y="514"/>
      <point x="280" y="514" type="curve" smooth="yes"/>
      <point x="190" y="514"/>
      <point x="106" y="504"/>
      <point x="35" y="468" type="curve"/>
      <point x="54" y="342" type="line"/>
      <point x="140" y="351"/>
      <point x="217" y="353"/>
      <point x="257" y="353" type="curve" smooth="yes"/>
      <point x="332" y="353"/>
      <point x="345" y="325"/>
      <point x="345" y="233" type="curve" smooth="yes"/>
      <point x="345" y="134"/>
      <point x="333" y="122"/>
      <point x="275" y="123" type="curve" smooth="yes"/>
      <point x="237" y="123"/>
      <point x="222" y="129"/>
      <point x="222" y="161" type="curve" smooth="yes"/>
      <point x="222" y="195"/>
      <point x="229" y="199"/>
      <point x="274" y="199" type="curve" smooth="yes"/>
      <point x="484" y="199" type="line"/>
      <point x="484" y="298" type="line"/>
      <point x="215" y="298" type="line" smooth="yes"/>
      <point x="68" y="298"/>
      <point x="20" y="259"/>
      <point x="21" y="166" type="curve" smooth="yes"/>
      <point x="22" y="49"/>
      <point x="93" y="-12"/>
    </contour>
  </outline>
</glyph>
<glyph name="primemod" format="2">
  <advance width="293"/>
  <unicode hex="02B9"/>
  <anchor x="140" y="526" name="_top"/>
  <outline>
    <contour>
      <point x="243" y="750" type="line"/>
      <point x="99" y="750" type="line"/>
      <point x="50" y="522" type="line"/>
      <point x="170" y="522" type="line"/>
    </contour>
  </outline>
</glyph>
<glyph name="doubleprimemod" format="2">
  <advance width="472"/>
  <unicode hex="02BA"/>
  <anchor x="203" y="526" name="_top"/>
  <outline>
    <contour>
      <point x="422" y="750" type="line"/>
      <point x="278" y="750" type="line"/>
      <point x="229" y="522" type="line"/>
      <point x="349" y="522" type="line"/>
    </contour>
    <contour>
      <point x="243" y="750" type="line"/>
      <point x="99" y="750" type="line"/>
      <point x="50" y="522" type="line"/>
      <point x="170" y="522" type="line"/>
    </contour>
  </outline>
</glyph>
<glyph name="commaturnedmod" format="2">
  <advance width="255"/>
  <unicode hex="02BB"/>
  <anchor x="126" y="526" name="_top"/>
  <outline>
    <contour>
      <point x="108" y="505" type="curve" smooth="yes"/>
      <point x="149" y="505" type="line" smooth="yes"/>
      <point x="202" y="505"/>
      <point x="217" y="522"/>
      <point x="220" y="577" type="curve" smooth="yes"/>
      <point x="223" y="626" type="line" smooth="yes"/>
      <point x="226" y="667"/>
      <point x="203" y="690"/>
      <point x="162" y="690" type="curve"/>
      <point x="163" y="735"/>
      <point x="166" y="782"/>
      <point x="181" y="827" type="curve"/>
      <point x="103" y="852" type="line"/>
      <point x="61" y="794"/>
      <point x="36" y="742"/>
      <point x="36" y="641" type="curve" smooth="yes"/>
      <point x="36" y="577" type="line" smooth="yes"/>
      <point x="36" y="522"/>
      <point x="55" y="505"/>
    </contour>
  </outline>
</glyph>
<glyph name="circumflex" format="2">
  <advance width="477"/>
  <unicode hex="02C6"/>
  <anchor x="239" y="550" name="_top"/>
  <outline>
    <contour>
      <point x="316" y="745" type="line"/>
      <point x="164" y="745" type="line"/>
      <point x="24" y="612" type="line"/>
      <point x="74" y="535" type="line"/>
      <point x="236" y="628" type="line"/>
      <point x="244" y="628" type="line"/>
      <point x="403" y="535" type="line"/>
      <point x="451" y="604" type="line"/>
    </contour>
  </outline>
</glyph>
<glyph name="caron" format="2">
  <advance width="477"/>
  <unicode hex="02C7"/>
  <anchor x="240" y="545" name="_top"/>
  <outline>
    <contour>
      <point x="396" y="754" type="line"/>
      <point x="244" y="678" type="line"/>
      <point x="236" y="678" type="line"/>
      <point x="85" y="754" type="line"/>
      <point x="35" y="677" type="line"/>
      <point x="199" y="546" type="line"/>
      <point x="281" y="546" type="line"/>
      <point x="444" y="677" type="line"/>
    </contour>
  </outline>
</glyph>
<glyph name="verticallinemod" format="2">
  <advance width="192"/>
  <unicode hex="02C8"/>
  <anchor x="96" y="546" name="_top"/>
  <outline>
    <contour>
      <point x="157" y="559" type="line"/>
      <point x="157" y="743" type="line"/>
      <point x="35" y="743" type="line"/>
      <point x="35" y="560" type="line"/>
    </contour>
  </outline>
</glyph>
<glyph name="firsttonechinese" format="2">
  <advance width="400"/>
  <unicode hex="02C9"/>
  <anchor x="199" y="553" name="_top"/>
  <outline>
    <contour>
      <point x="360" y="713" type="line"/>
      <point x="40" y="713" type="line"/>
      <point x="40" y="590" type="line"/>
      <point x="360" y="590" type="line"/>
    </contour>
  </outline>
</glyph>
<glyph name="verticallinelowmod" format="2">
  <advance width="172"/>
  <unicode hex="02CC"/>
  <anchor x="86" y="0" name="_bottom"/>
  <outline>
    <contour>
      <point x="147" y="-211" type="line"/>
      <point x="147" y="-27" type="line"/>
      <point x="25" y="-27" type="line"/>
      <point x="25" y="-210" type="line"/>
    </contour>
  </outline>
</glyph>
<glyph name="dotaccent" format="2">
  <advance width="251"/>
  <unicode hex="02D9"/>
  <anchor x="125" y="546" name="_top"/>
  <outline>
    <contour>
      <point x="157" y="724" type="curve" smooth="yes"/>
      <point x="94" y="724" type="line" smooth="yes"/>
      <point x="54" y="724"/>
      <point x="35" y="706"/>
      <point x="35" y="667" type="curve" smooth="yes"/>
      <point x="35" y="620" type="line" smooth="yes"/>
      <point x="35" y="582"/>
      <point x="54" y="563"/>
      <point x="94" y="563" type="curve" smooth="yes"/>
      <point x="157" y="563" type="line" smooth="yes"/>
      <point x="197" y="563"/>
      <point x="216" y="582"/>
      <point x="216" y="620" type="curve" smooth="yes"/>
      <point x="216" y="667" type="line" smooth="yes"/>
      <point x="216" y="706"/>
      <point x="197" y="724"/>
    </contour>
  </outline>
</glyph>
<glyph name="ring" format="2">
  <advance width="318"/>
  <unicode hex="02DA"/>
  <anchor x="159" y="552" name="_top"/>
  <outline>
    <contour>
      <point x="159" y="780" type="curve" smooth="yes"/>
      <point x="89" y="780"/>
      <point x="30" y="724"/>
      <point x="30" y="655" type="curve" smooth="yes"/>
      <point x="30" y="585"/>
      <point x="89" y="530"/>
      <point x="159" y="530" type="curve" smooth="yes"/>
      <point x="229" y="530"/>
      <point x="288" y="585"/>
      <point x="288" y="655" type="curve" smooth="yes"/>
      <point x="288" y="724"/>
      <point x="229" y="780"/>
    </contour>
    <contour>
      <point x="159" y="700" type="curve" smooth="yes"/>
      <point x="183" y="700"/>
      <point x="203" y="679"/>
      <point x="203" y="655" type="curve" smooth="yes"/>
      <point x="203" y="630"/>
      <point x="183" y="610"/>
      <point x="159" y="610" type="curve" smooth="yes"/>
      <point x="135" y="610"/>
      <point x="115" y="630"/>
      <point x="115" y="655" type="curve" smooth="yes"/>
      <point x="115" y="679"/>
      <point x="135" y="700"/>
    </contour>
  </outline>
</glyph>
<glyph name="ogonek" format="2">
  <advance width="250"/>
  <unicode hex="02DB"/>
  <anchor x="219" y="0" name="_ogonek"/>
  <outline>
    <contour>
      <point x="139" y="2" type="line"/>
      <point x="77" y="-34"/>
      <point x="44" y="-73"/>
      <point x="34" y="-105" type="curve" smooth="yes"/>
      <point x="10" y="-178"/>
      <point x="70" y="-253"/>
      <point x="232" y="-192" type="curve"/>
      <point x="220" y="-120" type="line"/>
      <point x="183" y="-126"/>
      <point x="155" y="-123"/>
      <point x="172" y="-87" type="curve" smooth="yes"/>
      <point x="188" y="-54"/>
      <point x="203" y="-29"/>
      <point x="219" y="0" type="curve"/>
    </contour>
  </outline>
</glyph>
<glyph name="hungarumlaut" format="2">
  <advance width="547"/>
  <unicode hex="02DD"/>
  <anchor x="243" y="523" name="_top"/>
  <outline>
    <contour>
      <point x="163" y="756" type="line"/>
      <point x="40" y="563" type="line"/>
      <point x="123" y="496" type="line"/>
      <point x="292" y="672" type="line"/>
    </contour>
    <contour>
      <point x="378" y="756" type="line"/>
      <point x="255" y="562" type="line"/>
      <point x="337" y="496" type="line"/>
      <point x="507" y="672" type="line"/>
    </contour>
  </outline>
</glyph>
<glyph name="circumflexcomb" format="2">
  <unicode hex="0302"/>
  <anchor x="-235" y="550" name="_top"/>
  <outline>
    <contour>
      <point x="-158" y="735" type="line"/>
      <point x="-310" y="735" type="line"/>
      <point x="-450" y="602" type="line"/>
      <point x="-400" y="525" type="line"/>
      <point x="-238" y="618" type="line"/>
      <point x="-230" y="618" type="line"/>
      <point x="-71" y="525" type="line"/>
      <point x="-23" y="594" type="line"/>
    </contour>
  </outline>
</glyph>
<glyph name="macroncomb" format="2">
  <unicode hex="0304"/>
  <anchor x="-201" y="553" name="_top"/>
  <outline>
    <contour>
      <point x="-40" y="713" type="line"/>
      <point x="-360" y="713" type="line"/>
      <point x="-360" y="590" type="line"/>
      <point x="-40" y="590" type="line"/>
    </contour>
  </outline>
</glyph>
<glyph name="brevecomb" format="2">
  <unicode hex="0306"/>
  <anchor x="-209" y="532" name="_top"/>
  <outline>
    <contour>
      <point x="-128" y="719" type="line"/>
      <point x="-128" y="677"/>
      <point x="-150" y="660"/>
      <point x="-209" y="660" type="curve" smooth="yes"/>
      <point x="-269" y="660"/>
      <point x="-291" y="677"/>
      <point x="-291" y="719" type="curve"/>
      <point x="-388" y="706" type="line"/>
      <point x="-404" y="617"/>
      <point x="-332" y="534"/>
      <point x="-209" y="534" type="curve" smooth="yes"/>
      <point x="-86" y="534"/>
      <point x="-15" y="617"/>
      <point x="-31" y="706" type="curve"/>
    </contour>
  </outline>
</glyph>
<glyph name="dotaccentcomb" format="2">
  <unicode hex="0307"/>
  <anchor x="-128" y="546" name="_top"/>
  <outline>
    <contour>
      <point x="-98" y="724" type="curve" smooth="yes"/>
      <point x="-161" y="724" type="line" smooth="yes"/>
      <point x="-201" y="724"/>
      <point x="-220" y="706"/>
      <point x="-220" y="667" type="curve" smooth="yes"/>
      <point x="-220" y="620" type="line" smooth="yes"/>
      <point x="-220" y="582"/>
      <point x="-201" y="563"/>
      <point x="-161" y="563" type="curve" smooth="yes"/>
      <point x="-98" y="563" type="line" smooth="yes"/>
      <point x="-58" y="563"/>
      <point x="-39" y="582"/>
      <point x="-39" y="620" type="curve" smooth="yes"/>
      <point x="-39" y="667" type="line" smooth="yes"/>
      <point x="-39" y="706"/>
      <point x="-58" y="724"/>
    </contour>
  </outline>
</glyph>
<glyph name="hookabovecomb" format="2">
  <unicode hex="0309"/>
  <anchor x="-170" y="526" name="_top"/>
  <outline>
    <contour>
      <point x="-204" y="606" type="curve"/>
      <point x="-183" y="519" type="line"/>
      <point x="-110" y="529"/>
      <point x="-44" y="569"/>
      <point x="-44" y="658" type="curve" smooth="yes"/>
      <point x="-44" y="758"/>
      <point x="-127" y="808"/>
      <point x="-240" y="765" type="curve"/>
      <point x="-219" y="671" type="line"/>
      <point x="-191" y="686"/>
      <point x="-158" y="683"/>
      <point x="-158" y="653" type="curve" smooth="yes"/>
      <point x="-158" y="623"/>
      <point x="-175" y="617"/>
    </contour>
  </outline>
</glyph>
<glyph name="ringcomb" format="2">
  <unicode hex="030A"/>
  <anchor x="-161" y="552" name="_top"/>
  <outline>
    <contour>
      <point x="-161" y="780" type="curve" smooth="yes"/>
      <point x="-231" y="780"/>
      <point x="-290" y="724"/>
      <point x="-290" y="655" type="curve" smooth="yes"/>
      <point x="-290" y="585"/>
      <point x="-231" y="530"/>
      <point x="-161" y="530" type="curve" smooth="yes"/>
      <point x="-91" y="530"/>
      <point x="-32" y="585"/>
      <point x="-32" y="655" type="curve" smooth="yes"/>
      <point x="-32" y="724"/>
      <point x="-91" y="780"/>
    </contour>
    <contour>
      <point x="-161" y="700" type="curve" smooth="yes"/>
      <point x="-137" y="700"/>
      <point x="-117" y="679"/>
      <point x="-117" y="655" type="curve" smooth="yes"/>
      <point x="-117" y="630"/>
      <point x="-137" y="610"/>
      <point x="-161" y="610" type="curve" smooth="yes"/>
      <point x="-185" y="610"/>
      <point x="-205" y="630"/>
      <point x="-205" y="655" type="curve" smooth="yes"/>
      <point x="-205" y="679"/>
      <point x="-185" y="700"/>
    </contour>
  </outline>
</glyph>
<glyph name="caroncomb" format="2">
  <unicode hex="030C"/>
  <anchor x="-245" y="545" name="_top"/>
  <outline>
    <contour>
      <point x="-89" y="754" type="line"/>
      <point x="-241" y="678" type="line"/>
      <point x="-249" y="678" type="line"/>
      <point x="-400" y="754" type="line"/>
      <point x="-450" y="677" type="line"/>
      <point x="-286" y="546" type="line"/>
      <point x="-204" y="546" type="line"/>
      <point x="-41" y="677" type="line"/>
    </contour>
  </outline>
</glyph>
<glyph name="dblgravecomb" format="2">
  <unicode hex="030F"/>
  <anchor x="-246" y="523" name="_top"/>
  <outline>
    <contour>
      <point x="-166" y="756" type="line"/>
      <point x="-295" y="672" type="line"/>
      <point x="-126" y="496" type="line"/>
      <point x="-43" y="563" type="line"/>
    </contour>
    <contour>
      <point x="-381" y="756" type="line"/>
      <point x="-510" y="672" type="line"/>
      <point x="-340" y="496" type="line"/>
      <point x="-258" y="562" type="line"/>
    </contour>
  </outline>
</glyph>
<glyph name="breveinvertedcomb" format="2">
  <unicode hex="0311"/>
  <anchor x="-209" y="532" name="_top"/>
  <outline>
    <contour>
      <point x="-291" y="534" type="line"/>
      <point x="-291" y="576"/>
      <point x="-269" y="593"/>
      <point x="-210" y="593" type="curve" smooth="yes"/>
      <point x="-150" y="593"/>
      <point x="-128" y="576"/>
      <point x="-128" y="534" type="curve"/>
      <point x="-31" y="547" type="line"/>
      <point x="-15" y="636"/>
      <point x="-87" y="719"/>
      <point x="-210" y="719" type="curve" smooth="yes"/>
      <point x="-333" y="719"/>
      <point x="-404" y="636"/>
      <point x="-388" y="547" type="curve"/>
    </contour>
  </outline>
</glyph>
<glyph name="commaturnedabovecomb" format="2">
  <unicode hex="0312"/>
  <anchor x="-134" y="526" name="_top"/>
  <outline>
    <contour>
      <point x="-149" y="519" type="curve" smooth="yes"/>
      <point x="-120" y="519" type="line" smooth="yes"/>
      <point x="-82" y="519"/>
      <point x="-71" y="531"/>
      <point x="-69" y="570" type="curve" smooth="yes"/>
      <point x="-67" y="605" type="line" smooth="yes"/>
      <point x="-65" y="634"/>
      <point x="-81" y="651"/>
      <point x="-110" y="651" type="curve"/>
      <point x="-110" y="682"/>
      <point x="-107" y="716"/>
      <point x="-97" y="749" type="curve"/>
      <point x="-152" y="766" type="line"/>
      <point x="-182" y="725"/>
      <point x="-200" y="688"/>
      <point x="-200" y="616" type="curve" smooth="yes"/>
      <point x="-200" y="570" type="line" smooth="yes"/>
      <point x="-200" y="531"/>
      <point x="-187" y="519"/>
    </contour>
  </outline>
</glyph>
<glyph name="horncomb" format="2">
  <unicode hex="031B"/>
  <anchor x="-191" y="561" name="_top"/>
  <outline>
    <contour>
      <point x="-246" y="379" type="line"/>
      <point x="-136" y="372"/>
      <point x="-58" y="427"/>
      <point x="-56" y="540" type="curve"/>
      <point x="-180" y="545" type="line"/>
      <point x="-183" y="500"/>
      <point x="-206" y="470"/>
      <point x="-250" y="462" type="curve"/>
    </contour>
  </outline>
</glyph>
<glyph name="dotbelowcomb" format="2">
  <unicode hex="0323"/>
  <anchor x="-131" y="0" name="_bottom"/>
  <outline>
    <contour>
      <point x="-98" y="-32" type="curve" smooth="yes"/>
      <point x="-161" y="-32" type="line" smooth="yes"/>
      <point x="-201" y="-32"/>
      <point x="-220" y="-50"/>
      <point x="-220" y="-89" type="curve" smooth="yes"/>
      <point x="-220" y="-136" type="line" smooth="yes"/>
      <point x="-220" y="-174"/>
      <point x="-201" y="-193"/>
      <point x="-161" y="-193" type="curve" smooth="yes"/>
      <point x="-98" y="-193" type="line" smooth="yes"/>
      <point x="-58" y="-193"/>
      <point x="-39" y="-174"/>
      <point x="-39" y="-136" type="curve" smooth="yes"/>
      <point x="-39" y="-89" type="line" smooth="yes"/>
      <point x="-39" y="-50"/>
      <point x="-58" y="-32"/>
    </contour>
  </outline>
</glyph>
<glyph name="dieresisbelowcomb" format="2">
  <unicode hex="0324"/>
  <anchor x="-192" y="0" name="_bottom"/>
  <outline>
    <contour>
      <point x="-63" y="-37" type="curve" smooth="yes"/>
      <point x="-132" y="-37" type="line" smooth="yes"/>
      <point x="-158" y="-37"/>
      <point x="-171" y="-50"/>
      <point x="-171" y="-76" type="curve" smooth="yes"/>
      <point x="-171" y="-139" type="line" smooth="yes"/>
      <point x="-171" y="-165"/>
      <point x="-158" y="-178"/>
      <point x="-132" y="-178" type="curve" smooth="yes"/>
      <point x="-63" y="-178" type="line" smooth="yes"/>
      <point x="-37" y="-178"/>
      <point x="-24" y="-165"/>
      <point x="-24" y="-139" type="curve" smooth="yes"/>
      <point x="-24" y="-76" type="line" smooth="yes"/>
      <point x="-24" y="-50"/>
      <point x="-37" y="-37"/>
    </contour>
    <contour>
      <point x="-252" y="-37" type="curve" smooth="yes"/>
      <point x="-321" y="-37" type="line" smooth="yes"/>
      <point x="-347" y="-37"/>
      <point x="-360" y="-50"/>
      <point x="-360" y="-76" type="curve" smooth="yes"/>
      <point x="-360" y="-139" type="line" smooth="yes"/>
      <point x="-360" y="-165"/>
      <point x="-347" y="-178"/>
      <point x="-321" y="-178" type="curve" smooth="yes"/>
      <point x="-252" y="-178" type="line" smooth="yes"/>
      <point x="-226" y="-178"/>
      <point x="-213" y="-165"/>
      <point x="-213" y="-139" type="curve" smooth="yes"/>
      <point x="-213" y="-76" type="line" smooth="yes"/>
      <point x="-213" y="-50"/>
      <point x="-226" y="-37"/>
    </contour>
  </outline>
</glyph>
<glyph name="cedillacomb" format="2">
  <unicode hex="0327"/>
  <anchor x="-124" y="0" name="_bottom"/>
  <outline>
    <contour>
      <point x="-192" y="-33" type="curve"/>
      <point x="-211" y="-105" type="line"/>
      <point x="-148" y="-105"/>
      <point x="-139" y="-102"/>
      <point x="-141" y="-116" type="curve" smooth="yes"/>
      <point x="-145" y="-163"/>
      <point x="-184" y="-167"/>
      <point x="-228" y="-167" type="curve"/>
      <point x="-250" y="-245" type="line"/>
      <point x="-125" y="-262"/>
      <point x="-21" y="-213"/>
      <point x="-16" y="-98" type="curve" smooth="yes"/>
      <point x="-12" y="-18"/>
      <point x="-67" y="-19"/>
    </contour>
  </outline>
</glyph>
<glyph name="ogonekcomb" format="2">
  <unicode hex="0328"/>
  <anchor x="-30" y="0" name="_ogonek"/>
  <outline>
    <contour>
      <point x="-110" y="2" type="line"/>
      <point x="-172" y="-34"/>
      <point x="-205" y="-73"/>
      <point x="-215" y="-105" type="curve" smooth="yes"/>
      <point x="-239" y="-178"/>
      <point x="-179" y="-253"/>
      <point x="-17" y="-192" type="curve"/>
      <point x="-29" y="-120" type="line"/>
      <point x="-66" y="-126"/>
      <point x="-94" y="-123"/>
      <point x="-77" y="-87" type="curve" smooth="yes"/>
      <point x="-61" y="-54"/>
      <point x="-46" y="-29"/>
      <point x="-30" y="0" type="curve"/>
    </contour>
  </outline>
</glyph>
<glyph name="macronbelowcomb" format="2">
  <unicode hex="0331"/>
  <anchor x="-189" y="0" name="_bottom"/>
  <outline>
    <contour>
      <point x="-30" y="-49" type="line"/>
      <point x="-350" y="-49" type="line"/>
      <point x="-350" y="-172" type="line"/>
      <point x="-30" y="-172" type="line"/>
    </contour>
  </outline>
</glyph>
<glyph name="Delta" format="2">
  <advance width="704"/>
  <unicode hex="0394"/>
  <outline>
    <contour>
      <point x="459" y="690" type="line"/>
      <point x="245" y="690" type="line"/>
      <point x="17" y="68" type="line"/>
      <point x="17" y="0" type="line"/>
      <point x="687" y="0" type="line"/>
      <point x="687" y="68" type="line"/>
    </contour>
    <contour>
      <point x="352" y="484" type="curve"/>
      <point x="358" y="450"/>
      <point x="363" y="416"/>
      <point x="372" y="383" type="curve" smooth="yes"/>
      <point x="446" y="152" type="line"/>
      <point x="258" y="152" type="line"/>
      <point x="331" y="383" type="line" smooth="yes"/>
      <point x="340" y="416"/>
      <point x="345" y="450"/>
    </contour>
  </outline>
</glyph>
<glyph name="Omega" format="2">
  <advance width="720"/>
  <unicode hex="03A9"/>
  <outline>
    <contour>
      <point x="361" y="704" type="curve" smooth="yes"/>
      <point x="128" y="704"/>
      <point x="42" y="607"/>
      <point x="42" y="405" type="curve" smooth="yes"/>
      <point x="42" y="284"/>
      <point x="81" y="223"/>
      <point x="179" y="142" type="curve"/>
      <point x="150" y="158"/>
      <point x="129" y="162"/>
      <point x="104" y="162" type="curve" smooth="yes"/>
      <point x="36" y="162" type="line"/>
      <point x="36" y="0" type="line"/>
      <point x="341" y="0" type="line"/>
      <point x="341" y="152" type="line"/>
      <point x="287" y="210"/>
      <point x="268" y="247"/>
      <point x="268" y="370" type="curve" smooth="yes"/>
      <point x="268" y="515"/>
      <point x="285" y="544"/>
      <point x="360" y="544" type="curve" smooth="yes"/>
      <point x="435" y="544"/>
      <point x="452" y="515"/>
      <point x="452" y="372" type="curve" smooth="yes"/>
      <point x="452" y="261"/>
      <point x="436" y="208"/>
      <point x="379" y="152" type="curve"/>
      <point x="379" y="0" type="line"/>
      <point x="684" y="0" type="line"/>
      <point x="684" y="162" type="line"/>
      <point x="616" y="162" type="line" smooth="yes"/>
      <point x="591" y="162"/>
      <point x="570" y="156"/>
      <point x="541" y="142" type="curve"/>
      <point x="641" y="218"/>
      <point x="678" y="279"/>
      <point x="678" y="401" type="curve" smooth="yes"/>
      <point x="678" y="607"/>
      <point x="594" y="704"/>
    </contour>
  </outline>
</glyph>
<glyph name="pi" format="2">
  <advance width="655"/>
  <unicode hex="03C0"/>
  <outline>
    <contour>
      <point x="287" y="501" type="line"/>
      <point x="77" y="501" type="line"/>
      <point x="77" y="0" type="line"/>
      <point x="287" y="0" type="line"/>
    </contour>
    <contour>
      <point x="642" y="501" type="line"/>
      <point x="13" y="501" type="line"/>
      <point x="13" y="365" type="line"/>
      <point x="642" y="365" type="line"/>
    </contour>
    <contour>
      <point x="578" y="501" type="line"/>
      <point x="368" y="501" type="line"/>
      <point x="368" y="0" type="line"/>
      <point x="578" y="0" type="line"/>
    </contour>
  </outline>
</glyph>
<glyph name="E-cy" format="2">
  <advance width="607"/>
  <unicode hex="0404"/>
  <outline>
    <contour>
      <point x="349" y="702" type="curve" smooth="yes"/>
      <point x="117" y="702"/>
      <point x="32" y="608"/>
      <point x="32" y="345" type="curve" smooth="yes"/>
      <point x="32" y="82"/>
      <point x="117" y="-12"/>
      <point x="349" y="-12" type="curve" smooth="yes"/>
      <point x="454" y="-12"/>
      <point x="516" y="-3"/>
      <point x="584" y="21" type="curve"/>
      <point x="568" y="179" type="line"/>
      <point x="503" y="172"/>
      <point x="445" y="171"/>
      <point x="349" y="171" type="curve" smooth="yes"/>
      <point x="273" y="171"/>
      <point x="255" y="205"/>
      <point x="255" y="345" type="curve" smooth="yes"/>
      <point x="255" y="485"/>
      <point x="273" y="519"/>
      <point x="349" y="519" type="curve" smooth="yes"/>
      <point x="444" y="519"/>
      <point x="492" y="518"/>
      <point x="563" y="517" type="curve"/>
      <point x="579" y="675" type="line"/>
      <point x="510" y="694"/>
      <point x="457" y="702"/>
    </contour>
    <contour>
      <point x="74" y="420" type="line"/>
      <point x="74" y="286" type="line"/>
      <point x="527" y="286" type="line"/>
      <point x="527" y="420" type="line"/>
    </contour>
  </outline>
</glyph>
<glyph name="I-cy" format="2">
  <advance width="329"/>
  <unicode hex="0406"/>
  <anchor x="166" y="721" name="top"/>
  <outline>
    <contour>
      <point x="272" y="690" type="line"/>
      <point x="57" y="690" type="line"/>
      <point x="57" y="0" type="line"/>
      <point x="272" y="0" type="line"/>
    </contour>
  </outline>
</glyph>
<glyph name="Lje-cy" format="2">
  <advance width="983"/>
  <unicode hex="0409"/>
  <outline>
    <contour>
      <point x="631" y="690" type="line"/>
      <point x="315" y="690" type="line" smooth="yes"/>
      <point x="213" y="690"/>
      <point x="153" y="638"/>
      <point x="145" y="527" type="curve" smooth="yes"/>
      <point x="135" y="391"/>
      <point x="126" y="280"/>
      <point x="106" y="222" type="curve" smooth="yes"/>
      <point x="85" y="160"/>
      <point x="54" y="151"/>
      <point x="10" y="143" type="curve"/>
      <point x="25" y="-5" type="line"/>
      <point x="165" y="-30"/>
      <point x="257" y="8"/>
      <point x="302" y="164" type="curve" smooth="yes"/>
      <point x="327" y="251"/>
      <point x="337" y="366"/>
      <point x="349" y="502" type="curve" smooth="yes"/>
      <point x="352" y="532"/>
      <point x="368" y="548"/>
      <point x="396" y="548" type="curve" smooth="yes"/>
      <point x="631" y="548" type="line"/>
    </contour>
    <contour>
      <point x="645" y="690" type="line"/>
      <point x="431" y="690" type="line"/>
      <point x="431" y="0" type="line"/>
      <point x="645" y="0" type="line"/>
    </contour>
    <contour>
      <point x="689" y="453" type="curve" smooth="yes"/>
      <point x="447" y="453" type="line"/>
      <point x="447" y="322" type="line"/>
      <point x="689" y="322" type="line" smooth="yes"/>
      <point x="736" y="322"/>
      <point x="745" y="304"/>
      <point x="745" y="231" type="curve" smooth="yes"/>
      <point x="745" y="158"/>
      <point x="736" y="142"/>
      <point x="689" y="142" type="curve" smooth="yes"/>
      <point x="571" y="142"/>
      <point x="483" y="143"/>
      <point x="452" y="145" type="curve"/>
      <point x="437" y="0" type="line"/>
      <point x="527" y="-7"/>
      <point x="591" y="-8"/>
      <point x="727" y="-8" type="curve" smooth="yes"/>
      <point x="892" y="-8"/>
      <point x="963" y="43"/>
      <point x="963" y="224" type="curve" smooth="yes"/>
      <point x="963" y="401"/>
      <point x="895" y="453"/>
    </contour>
  </outline>
</glyph>
<glyph name="Nje-cy" format="2">
  <advance width="974"/>
  <unicode hex="040A"/>
  <outline>
    <contour>
      <point x="692" y="436" type="curve" smooth="yes"/>
      <point x="440" y="436" type="line"/>
      <point x="440" y="305" type="line"/>
      <point x="692" y="305" type="line" smooth="yes"/>
      <point x="730" y="305"/>
      <point x="737" y="289"/>
      <point x="737" y="225" type="curve" smooth="yes"/>
      <point x="737" y="158"/>
      <point x="730" y="142"/>
      <point x="692" y="142" type="curve" smooth="yes"/>
      <point x="570" y="142"/>
      <point x="477" y="143"/>
      <point x="445" y="145" type="curve"/>
      <point x="430" y="0" type="line"/>
      <point x="520" y="-7"/>
      <point x="594" y="-8"/>
      <point x="731" y="-8" type="curve" smooth="yes"/>
      <point x="885" y="-8"/>
      <point x="955" y="43"/>
      <point x="955" y="223" type="curve" smooth="yes"/>
      <point x="955" y="386"/>
      <point x="889" y="436"/>
    </contour>
    <contour>
      <point x="275" y="690" type="line"/>
      <point x="57" y="690" type="line"/>
      <point x="57" y="0" type="line"/>
      <point x="275" y="0" type="line"/>
    </contour>
    <contour>
      <point x="433" y="437" type="line"/>
      <point x="266" y="437" type="line"/>
      <point x="266" y="295" type="line"/>
      <point x="433" y="295" type="line"/>
    </contour>
    <contour>
      <point x="638" y="690" type="line"/>
      <point x="424" y="690" type="line"/>
      <point x="424" y="0" type="line"/>
      <point x="638" y="0" type="line"/>
    </contour>
  </outline>
</glyph>
<glyph name="Dzhe-cy" format="2">
  <advance width="721"/>
  <unicode hex="040F"/>
  <outline>
    <contour>
      <point x="664" y="690" type="line"/>
      <point x="447" y="690" type="line"/>
      <point x="447" y="0" type="line"/>
      <point x="664" y="0" type="line"/>
    </contour>
    <contour>
      <point x="446" y="7" type="line"/>
      <point x="282" y="7" type="line"/>
      <point x="290" y="-151" type="line"/>
      <point x="438" y="-151" type="line"/>
    </contour>
    <contour>
      <point x="609" y="142" type="line"/>
      <point x="266" y="142" type="line"/>
      <point x="266" y="0" type="line"/>
      <point x="609" y="0" type="line"/>
    </contour>
    <contour>
      <point x="274" y="690" type="line"/>
      <point x="57" y="690" type="line"/>
      <point x="57" y="0" type="line"/>
      <point x="274" y="0" type="line"/>
    </contour>
  </outline>
</glyph>
<glyph name="A-cy" format="2">
  <advance width="683"/>
  <unicode hex="0410"/>
  <anchor x="340" y="732" name="top"/>
  <outline>
    <contour>
      <point x="440" y="690" type="curve" smooth="yes"/>
      <point x="243" y="690" type="line" smooth="yes"/>
      <point x="208" y="690"/>
      <point x="179" y="668"/>
      <point x="170" y="634" type="curve" smooth="yes"/>
      <point x="-9" y="0" type="line"/>
      <point x="212" y="0" type="line"/>
      <point x="316" y="449" type="line" smooth="yes"/>
      <point x="321" y="474"/>
      <point x="325" y="503"/>
      <point x="328" y="528" type="curve"/>
      <point x="355" y="528" type="line"/>
      <point x="357" y="503"/>
      <point x="362" y="474"/>
      <point x="367" y="449" type="curve" smooth="yes"/>
      <point x="471" y="0" type="line"/>
      <point x="692" y="0" type="line"/>
      <point x="513" y="634" type="line" smooth="yes"/>
      <point x="504" y="668"/>
      <point x="475" y="690"/>
    </contour>
    <contour>
      <point x="525" y="301" type="line"/>
      <point x="158" y="301" type="line"/>
      <point x="158" y="149" type="line"/>
      <point x="525" y="149" type="line"/>
    </contour>
  </outline>
</glyph>
<glyph name="Ve-cy" format="2">
  <advance width="664"/>
  <unicode hex="0412"/>
  <outline>
    <contour>
      <point x="354" y="698" type="curve" smooth="yes"/>
      <point x="222" y="698"/>
      <point x="145" y="697"/>
      <point x="56" y="690" type="curve"/>
      <point x="72" y="548" type="line"/>
      <point x="147" y="554"/>
      <point x="217" y="551"/>
      <point x="343" y="551" type="curve" smooth="yes"/>
      <point x="395" y="551"/>
      <point x="407" y="540"/>
      <point x="407" y="487" type="curve" smooth="yes"/>
      <point x="407" y="433"/>
      <point x="395" y="421"/>
      <point x="345" y="421" type="curve" smooth="yes"/>
      <point x="71" y="421" type="line"/>
      <point x="71" y="294" type="line"/>
      <point x="347" y="294" type="line" smooth="yes"/>
      <point x="408" y="294"/>
      <point x="421" y="280"/>
      <point x="421" y="216" type="curve" smooth="yes"/>
      <point x="421" y="153"/>
      <point x="408" y="139"/>
      <point x="348" y="139" type="curve" smooth="yes"/>
      <point x="214" y="139"/>
      <point x="106" y="140"/>
      <point x="72" y="142" type="curve"/>
      <point x="56" y="0" type="line"/>
      <point x="154" y="-7"/>
      <point x="238" y="-8"/>
      <point x="387" y="-8" type="curve" smooth="yes"/>
      <point x="560" y="-8"/>
      <point x="637" y="30"/>
      <point x="637" y="172" type="curve" smooth="yes"/>
      <point x="637" y="282"/>
      <point x="598" y="346"/>
      <point x="488" y="355" type="curve"/>
      <point x="488" y="361" type="line"/>
      <point x="579" y="369"/>
      <point x="614" y="419"/>
      <point x="614" y="518" type="curve" smooth="yes"/>
      <point x="614" y="660"/>
      <point x="546" y="698"/>
    </contour>
    <contour>
      <point x="268" y="690" type="line"/>
      <point x="56" y="690" type="line"/>
      <point x="56" y="0" type="line"/>
      <point x="268" y="0" type="line"/>
    </contour>
  </outline>
</glyph>
<glyph name="Ge-cy" format="2">
  <advance width="554"/>
  <unicode hex="0413"/>
  <anchor x="304" y="735" name="top"/>
  <outline>
    <contour>
      <point x="215" y="694" type="curve" smooth="yes"/>
      <point x="121" y="694"/>
      <point x="54" y="630"/>
      <point x="54" y="537" type="curve" smooth="yes"/>
      <point x="54" y="0" type="line"/>
      <point x="271" y="0" type="line"/>
      <point x="271" y="492" type="line" smooth="yes"/>
      <point x="271" y="513"/>
      <point x="287" y="528"/>
      <point x="313" y="528" type="curve" smooth="yes"/>
      <point x="540" y="528" type="line"/>
      <point x="550" y="680" type="line"/>
      <point x="456" y="694"/>
      <point x="328" y="694"/>
    </contour>
  </outline>
</glyph>
<glyph name="De-cy" format="2">
  <advance width="783"/>
  <unicode hex="0414"/>
  <guideline x="153" y="538" angle="0"/>
  <outline>
    <contour>
      <point x="676" y="690" type="line"/>
      <point x="342" y="690" type="line" smooth="yes"/>
      <point x="246" y="690"/>
      <point x="180" y="625"/>
      <point x="171" y="537" type="curve" smooth="yes"/>
      <point x="152" y="356"/>
      <point x="115" y="179"/>
      <point x="28" y="0" type="curve"/>
      <point x="203" y="0" type="line"/>
      <point x="311" y="152"/>
      <point x="343" y="228"/>
      <point x="372" y="500" type="curve" smooth="yes"/>
      <point x="375" y="532"/>
      <point x="390" y="548"/>
      <point x="418" y="548" type="curve" smooth="yes"/>
      <point x="459" y="548" type="line"/>
      <point x="459" y="0" type="line"/>
      <point x="676" y="0" type="line"/>
    </contour>
    <contour>
      <point x="184" y="7" type="line"/>
      <point x="11" y="7" type="line"/>
      <point x="11" y="-151" type="line"/>
      <point x="168" y="-151" type="line"/>
    </contour>
    <contour>
      <point x="771" y="142" type="line"/>
      <point x="11" y="142" type="line"/>
      <point x="11" y="0" type="line"/>
      <point x="771" y="0" type="line"/>
    </contour>
    <contour>
      <point x="771" y="7" type="line"/>
      <point x="598" y="7" type="line"/>
      <point x="614" y="-151" type="line"/>
      <point x="771" y="-151" type="line"/>
    </contour>
  </outline>
</glyph>
<glyph name="Zhe-cy" format="2">
  <advance width="968"/>
  <unicode hex="0416"/>
  <anchor x="948" y="0" name="bottomright"/>
  <anchor x="484" y="735" name="top"/>
  <outline>
    <contour>
      <point x="941" y="690" type="curve"/>
      <point x="721" y="690" type="line"/>
      <point x="659" y="471"/>
      <point x="655" y="428"/>
      <point x="600" y="428" type="curve"/>
      <point x="602" y="288" type="line"/>
      <point x="658" y="288"/>
      <point x="657" y="264"/>
      <point x="734" y="0" type="curve"/>
      <point x="961" y="0" type="line"/>
      <point x="878" y="302"/>
      <point x="877" y="335"/>
      <point x="735" y="357" type="curve"/>
      <point x="735" y="363" type="line"/>
      <point x="873" y="383"/>
      <point x="865" y="424"/>
    </contour>
    <contour>
      <point x="247" y="690" type="curve"/>
      <point x="27" y="690" type="line"/>
      <point x="103" y="424"/>
      <point x="95" y="383"/>
      <point x="233" y="363" type="curve"/>
      <point x="233" y="357" type="line"/>
      <point x="91" y="335"/>
      <point x="90" y="302"/>
      <point x="7" y="0" type="curve"/>
      <point x="234" y="0" type="line"/>
      <point x="312" y="264"/>
      <point x="312" y="288"/>
      <point x="365" y="288" type="curve"/>
      <point x="366" y="428" type="line"/>
      <point x="312" y="428"/>
      <point x="308" y="471"/>
    </contour>
    <contour>
      <point x="428" y="428" type="line"/>
      <point x="337" y="428" type="line"/>
      <point x="337" y="288" type="line"/>
      <point x="428" y="288" type="line"/>
    </contour>
    <contour>
      <point x="587" y="690" type="line"/>
      <point x="381" y="690" type="line"/>
      <point x="381" y="516" type="line" smooth="yes"/>
      <point x="381" y="465"/>
      <point x="391" y="408"/>
      <point x="412" y="362" type="curve"/>
      <point x="396" y="319"/>
      <point x="380" y="265"/>
      <point x="380" y="225" type="curve" smooth="yes"/>
      <point x="380" y="0" type="line"/>
      <point x="587" y="0" type="line"/>
      <point x="587" y="225" type="line" smooth="yes"/>
      <point x="587" y="265"/>
      <point x="573" y="319"/>
      <point x="557" y="362" type="curve"/>
      <point x="578" y="408"/>
      <point x="587" y="465"/>
      <point x="587" y="516" type="curve" smooth="yes"/>
    </contour>
    <contour>
      <point x="631" y="428" type="line"/>
      <point x="541" y="428" type="line"/>
      <point x="541" y="288" type="line"/>
      <point x="631" y="288" type="line"/>
    </contour>
  </outline>
</glyph>
<glyph name="Ze-cy" format="2">
  <advance width="586"/>
  <unicode hex="0417"/>
  <anchor x="293" y="0" name="bottom"/>
  <anchor x="287" y="735" name="top"/>
  <outline>
    <contour>
      <point x="283" y="698" type="curve" smooth="yes"/>
      <point x="173" y="698"/>
      <point x="104" y="692"/>
      <point x="31" y="675" type="curve"/>
      <point x="47" y="527" type="line"/>
      <point x="134" y="537"/>
      <point x="194" y="542"/>
      <point x="268" y="542" type="curve" smooth="yes"/>
      <point x="310" y="542"/>
      <point x="320" y="531"/>
      <point x="320" y="487" type="curve" smooth="yes"/>
      <point x="320" y="440"/>
      <point x="310" y="429"/>
      <point x="269" y="428" type="curve" smooth="yes"/>
      <point x="119" y="425" type="line"/>
      <point x="119" y="290" type="line"/>
      <point x="271" y="287" type="line" smooth="yes"/>
      <point x="322" y="286"/>
      <point x="334" y="273"/>
      <point x="334" y="216" type="curve" smooth="yes"/>
      <point x="334" y="162"/>
      <point x="322" y="148"/>
      <point x="272" y="148" type="curve" smooth="yes"/>
      <point x="211" y="148"/>
      <point x="136" y="155"/>
      <point x="36" y="171" type="curve"/>
      <point x="20" y="30" type="line"/>
      <point x="106" y="2"/>
      <point x="185" y="-8"/>
      <point x="315" y="-8" type="curve" smooth="yes"/>
      <point x="482" y="-8"/>
      <point x="556" y="30"/>
      <point x="556" y="172" type="curve" smooth="yes"/>
      <point x="556" y="282"/>
      <point x="519" y="346"/>
      <point x="414" y="355" type="curve"/>
      <point x="414" y="361" type="line"/>
      <point x="501" y="369"/>
      <point x="534" y="419"/>
      <point x="534" y="518" type="curve" smooth="yes"/>
      <point x="534" y="660"/>
      <point x="469" y="698"/>
    </contour>
  </outline>
</glyph>
<glyph name="Ka-cy" format="2">
  <advance width="681"/>
  <unicode hex="041A"/>
  <anchor x="355" y="735" name="top"/>
  <outline>
    <contour>
      <point x="656" y="690" type="curve"/>
      <point x="436" y="690" type="line"/>
      <point x="383" y="471"/>
      <point x="377" y="428"/>
      <point x="286" y="428" type="curve"/>
      <point x="289" y="288" type="line"/>
      <point x="378" y="288"/>
      <point x="379" y="264"/>
      <point x="450" y="0" type="curve"/>
      <point x="676" y="0" type="line"/>
      <point x="590" y="302"/>
      <point x="587" y="335"/>
      <point x="441" y="357" type="curve"/>
      <point x="441" y="363" type="line"/>
      <point x="583" y="383"/>
      <point x="577" y="424"/>
    </contour>
    <contour>
      <point x="274" y="690" type="line"/>
      <point x="57" y="690" type="line"/>
      <point x="57" y="0" type="line"/>
      <point x="274" y="0" type="line"/>
      <point x="274" y="225" type="line" smooth="yes"/>
      <point x="274" y="265"/>
      <point x="259" y="319"/>
      <point x="243" y="362" type="curve"/>
      <point x="264" y="408"/>
      <point x="274" y="465"/>
      <point x="274" y="516" type="curve" smooth="yes"/>
    </contour>
    <contour>
      <point x="338" y="428" type="line"/>
      <point x="222" y="428" type="line"/>
      <point x="222" y="288" type="line"/>
      <point x="338" y="288" type="line"/>
    </contour>
  </outline>
</glyph>
<glyph name="O-cy" format="2">
  <advance width="707"/>
  <unicode hex="041E"/>
  <anchor x="354" y="735" name="top"/>
  <outline>
    <contour>
      <point x="353" y="704" type="curve" smooth="yes"/>
      <point x="117" y="704"/>
      <point x="32" y="629"/>
      <point x="32" y="345" type="curve" smooth="yes"/>
      <point x="32" y="61"/>
      <point x="117" y="-14"/>
      <point x="353" y="-14" type="curve" smooth="yes"/>
      <point x="590" y="-14"/>
      <point x="675" y="61"/>
      <point x="675" y="345" type="curve" smooth="yes"/>
      <point x="675" y="629"/>
      <point x="590" y="704"/>
    </contour>
    <contour>
      <point x="353" y="543" type="curve" smooth="yes"/>
      <point x="427" y="543"/>
      <point x="446" y="505"/>
      <point x="446" y="345" type="curve" smooth="yes"/>
      <point x="446" y="185"/>
      <point x="427" y="147"/>
      <point x="353" y="147" type="curve" smooth="yes"/>
      <point x="279" y="147"/>
      <point x="260" y="185"/>
      <point x="260" y="345" type="curve" smooth="yes"/>
      <point x="260" y="505"/>
      <point x="279" y="543"/>
    </contour>
  </outline>
</glyph>
<glyph name="Pe-cy" format="2">
  <advance width="718"/>
  <unicode hex="041F"/>
  <outline>
    <contour>
      <point x="274" y="690" type="line"/>
      <point x="57" y="690" type="line"/>
      <point x="57" y="0" type="line"/>
      <point x="274" y="0" type="line"/>
    </contour>
    <contour>
      <point x="455" y="690" type="line"/>
      <point x="266" y="690" type="line"/>
      <point x="266" y="548" type="line"/>
      <point x="455" y="548" type="line"/>
    </contour>
    <contour>
      <point x="661" y="690" type="line"/>
      <point x="444" y="690" type="line"/>
      <point x="444" y="0" type="line"/>
      <point x="661" y="0" type="line"/>
    </contour>
  </outline>
</glyph>
<glyph name="Te-cy" format="2">
  <advance width="623"/>
  <unicode hex="0422"/>
  <outline>
    <contour>
      <point x="420" y="690" type="line"/>
      <point x="203" y="690" type="line"/>
      <point x="203" y="0" type="line"/>
      <point x="420" y="0" type="line"/>
    </contour>
    <contour>
      <point x="613" y="690" type="line"/>
      <point x="10" y="690" type="line"/>
      <point x="10" y="528" type="line"/>
      <point x="613" y="528" type="line"/>
    </contour>
  </outline>
</glyph>
<glyph name="U-cy" format="2">
  <advance width="623"/>
  <unicode hex="0423"/>
  <anchor x="316" y="735" name="top"/>
  <outline>
    <contour>
      <point x="630" y="690" type="line"/>
      <point x="408" y="690" type="line"/>
      <point x="318" y="343" type="line"/>
      <point x="284" y="264" type="line"/>
      <point x="262" y="176" type="line" smooth="yes"/>
      <point x="250" y="140"/>
      <point x="207" y="146"/>
      <point x="100" y="148" type="curve"/>
      <point x="77" y="0" type="line"/>
      <point x="128" y="-8"/>
      <point x="230" y="-20"/>
      <point x="290" y="-14" type="curve" smooth="yes"/>
      <point x="401" y="-3"/>
      <point x="442" y="56"/>
      <point x="480" y="187" type="curve" smooth="yes"/>
    </contour>
    <contour>
      <point x="215" y="690" type="line"/>
      <point x="-7" y="690" type="line"/>
      <point x="117" y="286" type="line" smooth="yes"/>
      <point x="133" y="230"/>
      <point x="161" y="192"/>
      <point x="225" y="192" type="curve" smooth="yes"/>
      <point x="406" y="192" type="line"/>
      <point x="344" y="344" type="line"/>
      <point x="309" y="344" type="line" smooth="yes"/>
      <point x="301" y="344"/>
      <point x="294" y="348"/>
      <point x="293" y="355" type="curve" smooth="yes"/>
    </contour>
  </outline>
</glyph>
<glyph name="Tse-cy" format="2">
  <advance width="734"/>
  <unicode hex="0426"/>
  <outline>
    <contour>
      <point x="57" y="0" type="line"/>
      <point x="274" y="0" type="line"/>
      <point x="274" y="690" type="line"/>
      <point x="57" y="690" type="line"/>
    </contour>
    <contour>
      <point x="266" y="0" type="line"/>
      <point x="721" y="0" type="line"/>
      <point x="721" y="142" type="line"/>
      <point x="266" y="142" type="line"/>
    </contour>
    <contour>
      <point x="428" y="0" type="line"/>
      <point x="645" y="0" type="line"/>
      <point x="645" y="690" type="line"/>
      <point x="428" y="690" type="line"/>
    </contour>
    <contour>
      <point x="564" y="-151" type="line"/>
      <point x="721" y="-151" type="line"/>
      <point x="721" y="7" type="line"/>
      <point x="548" y="7" type="line"/>
    </contour>
  </outline>
</glyph>
<glyph name="Che-cy" format="2">
  <advance width="694"/>
  <unicode hex="0427"/>
  <anchor x="674" y="0" name="bottomright"/>
  <anchor x="347" y="735" name="top"/>
  <outline>
    <contour>
      <point x="252" y="690" type="line"/>
      <point x="35" y="690" type="line"/>
      <point x="35" y="396" type="line" smooth="yes"/>
      <point x="35" y="272"/>
      <point x="96" y="216"/>
      <point x="231" y="216" type="curve" smooth="yes"/>
      <point x="292" y="216"/>
      <point x="386" y="240"/>
      <point x="459" y="281" type="curve"/>
      <point x="436" y="412" type="line"/>
      <point x="379" y="393"/>
      <point x="343" y="393"/>
      <point x="311" y="393" type="curve" smooth="yes"/>
      <point x="262" y="393"/>
      <point x="252" y="407"/>
      <point x="252" y="443" type="curve" smooth="yes"/>
    </contour>
    <contour>
      <point x="637" y="690" type="line"/>
      <point x="420" y="690" type="line"/>
      <point x="420" y="0" type="line"/>
      <point x="637" y="0" type="line"/>
    </contour>
  </outline>
</glyph>
<glyph name="Sha-cy" format="2">
  <advance width="1019"/>
  <unicode hex="0428"/>
  <outline>
    <contour>
      <point x="962" y="690" type="line"/>
      <point x="750" y="690" type="line"/>
      <point x="750" y="0" type="line"/>
      <point x="962" y="0" type="line"/>
    </contour>
    <contour>
      <point x="269" y="690" type="line"/>
      <point x="57" y="690" type="line"/>
      <point x="57" y="0" type="line"/>
      <point x="269" y="0" type="line"/>
    </contour>
    <contour>
      <point x="798" y="142" type="line"/>
      <point x="260" y="142" type="line"/>
      <point x="260" y="0" type="line"/>
      <point x="798" y="0" type="line"/>
    </contour>
    <contour>
      <point x="615" y="690" type="line"/>
      <point x="404" y="690" type="line"/>
      <point x="404" y="0" type="line"/>
      <point x="615" y="0" type="line"/>
    </contour>
  </outline>
</glyph>
<glyph name="Shcha-cy" format="2">
  <advance width="1048"/>
  <unicode hex="0429"/>
  <outline>
    <contour>
      <point x="269" y="690" type="line"/>
      <point x="57" y="690" type="line"/>
      <point x="57" y="0" type="line"/>
      <point x="269" y="0" type="line"/>
    </contour>
    <contour>
      <point x="1034" y="142" type="line"/>
      <point x="260" y="142" type="line"/>
      <point x="260" y="0" type="line"/>
      <point x="1034" y="0" type="line"/>
    </contour>
    <contour>
      <point x="614" y="690" type="line"/>
      <point x="402" y="690" type="line"/>
      <point x="402" y="0" type="line"/>
      <point x="614" y="0" type="line"/>
    </contour>
    <contour>
      <point x="959" y="690" type="line"/>
      <point x="747" y="690" type="line"/>
      <point x="747" y="0" type="line"/>
      <point x="959" y="0" type="line"/>
    </contour>
    <contour>
      <point x="1034" y="7" type="line"/>
      <point x="861" y="7" type="line"/>
      <point x="877" y="-151" type="line"/>
      <point x="1034" y="-151" type="line"/>
    </contour>
  </outline>
</glyph>
<glyph name="Yeru-cy" format="2">
  <advance width="955"/>
  <unicode hex="042B"/>
  <anchor x="477" y="735" name="top"/>
  <outline>
    <contour>
      <point x="331" y="453" type="curve" smooth="yes"/>
      <point x="76" y="453" type="line"/>
      <point x="76" y="322" type="line"/>
      <point x="331" y="322" type="line" smooth="yes"/>
      <point x="380" y="322"/>
      <point x="389" y="304"/>
      <point x="389" y="231" type="curve" smooth="yes"/>
      <point x="389" y="158"/>
      <point x="380" y="142"/>
      <point x="331" y="142" type="curve" smooth="yes"/>
      <point x="208" y="142"/>
      <point x="110" y="143"/>
      <point x="78" y="145" type="curve"/>
      <point x="63" y="0" type="line"/>
      <point x="154" y="-7"/>
      <point x="232" y="-8"/>
      <point x="370" y="-8" type="curve" smooth="yes"/>
      <point x="534" y="-8"/>
      <point x="607" y="43"/>
      <point x="607" y="223" type="curve" smooth="yes"/>
      <point x="607" y="401"/>
      <point x="539" y="453"/>
    </contour>
    <contour>
      <point x="275" y="690" type="line"/>
      <point x="57" y="690" type="line"/>
      <point x="57" y="0" type="line"/>
      <point x="275" y="0" type="line"/>
    </contour>
    <contour>
      <point x="898" y="690" type="line"/>
      <point x="680" y="690" type="line"/>
      <point x="680" y="0" type="line"/>
      <point x="898" y="0" type="line"/>
    </contour>
  </outline>
</glyph>
<glyph name="Ereversed-cy" format="2">
  <advance width="607"/>
  <unicode hex="042D"/>
  <anchor x="258" y="735" name="top"/>
  <outline>
    <contour>
      <point x="258" y="702" type="curve" smooth="yes"/>
      <point x="150" y="702"/>
      <point x="97" y="694"/>
      <point x="28" y="675" type="curve"/>
      <point x="44" y="517" type="line"/>
      <point x="115" y="518"/>
      <point x="163" y="519"/>
      <point x="258" y="519" type="curve" smooth="yes"/>
      <point x="334" y="519"/>
      <point x="352" y="485"/>
      <point x="352" y="345" type="curve" smooth="yes"/>
      <point x="352" y="205"/>
      <point x="334" y="171"/>
      <point x="258" y="171" type="curve" smooth="yes"/>
      <point x="162" y="171"/>
      <point x="104" y="172"/>
      <point x="39" y="179" type="curve"/>
      <point x="23" y="21" type="line"/>
      <point x="91" y="-3"/>
      <point x="153" y="-12"/>
      <point x="258" y="-12" type="curve" smooth="yes"/>
      <point x="490" y="-12"/>
      <point x="575" y="82"/>
      <point x="575" y="345" type="curve" smooth="yes"/>
      <point x="575" y="608"/>
      <point x="490" y="702"/>
    </contour>
    <contour>
      <point x="533" y="420" type="line"/>
      <point x="80" y="420" type="line"/>
      <point x="80" y="286" type="line"/>
      <point x="533" y="286" type="line"/>
    </contour>
  </outline>
</glyph>
<glyph name="Ia-cy" format="2">
  <advance width="664"/>
  <unicode hex="042F"/>
  <outline>
    <contour>
      <point x="324" y="700" type="curve" smooth="yes"/>
      <point x="127" y="700"/>
      <point x="41" y="651"/>
      <point x="41" y="490" type="curve" smooth="yes"/>
      <point x="41" y="407"/>
      <point x="71" y="337"/>
      <point x="175" y="326" type="curve"/>
      <point x="175" y="320" type="line"/>
      <point x="139" y="315"/>
      <point x="81" y="296"/>
      <point x="65" y="212" type="curve" smooth="yes"/>
      <point x="13" y="0" type="line"/>
      <point x="240" y="0" type="line"/>
      <point x="283" y="205" type="line" smooth="yes"/>
      <point x="290" y="243"/>
      <point x="302" y="252"/>
      <point x="337" y="252" type="curve" smooth="yes"/>
      <point x="483" y="252"/>
      <point x="515" y="252"/>
      <point x="579" y="254" type="curve"/>
      <point x="576" y="405" type="line"/>
      <point x="329" y="405" type="line" smooth="yes"/>
      <point x="272" y="405"/>
      <point x="259" y="419"/>
      <point x="259" y="476" type="curve" smooth="yes"/>
      <point x="259" y="533"/>
      <point x="272" y="547"/>
      <point x="329" y="547" type="curve" smooth="yes"/>
      <point x="463" y="547"/>
      <point x="560" y="546"/>
      <point x="593" y="542" type="curve"/>
      <point x="608" y="690" type="line"/>
      <point x="519" y="699"/>
      <point x="458" y="700"/>
    </contour>
    <contour>
      <point x="608" y="690" type="line"/>
      <point x="391" y="690" type="line"/>
      <point x="391" y="0" type="line"/>
      <point x="608" y="0" type="line"/>
    </contour>
  </outline>
</glyph>
<glyph name="a-cy" format="2">
  <advance width="594"/>
  <unicode hex="0430"/>
  <anchor x="288" y="547" name="top"/>
  <outline>
    <contour>
      <point x="334" y="514" type="curve" smooth="yes"/>
      <point x="258" y="514"/>
      <point x="125" y="503"/>
      <point x="49" y="489" type="curve"/>
      <point x="68" y="356" type="line"/>
      <point x="153" y="360"/>
      <point x="232" y="361"/>
      <point x="284" y="361" type="curve" smooth="yes"/>
      <point x="328" y="361"/>
      <point x="342" y="346"/>
      <point x="343" y="311" type="curve" smooth="yes"/>
      <point x="343" y="127" type="line"/>
      <point x="357" y="107" type="line"/>
      <point x="386" y="0" type="line"/>
      <point x="553" y="0" type="line"/>
      <point x="553" y="310" type="line" smooth="yes"/>
      <point x="553" y="466"/>
      <point x="475" y="514"/>
    </contour>
    <contour>
      <point x="472" y="307" type="line"/>
      <point x="187" y="307" type="line" smooth="yes"/>
      <point x="85" y="307"/>
      <point x="22" y="258"/>
      <point x="22" y="178" type="curve" smooth="yes"/>
      <point x="22" y="128" type="line" smooth="yes"/>
      <point x="22" y="34"/>
      <point x="101" y="-14"/>
      <point x="194" y="-14" type="curve" smooth="yes"/>
      <point x="333" y="-14"/>
      <point x="390" y="97"/>
      <point x="409" y="142" type="curve"/>
      <point x="409" y="206" type="line"/>
      <point x="375" y="168"/>
      <point x="315" y="128"/>
      <point x="268" y="128" type="curve" smooth="yes"/>
      <point x="240" y="128"/>
      <point x="226" y="141"/>
      <point x="226" y="159" type="curve" smooth="yes"/>
      <point x="226" y="175" type="line" smooth="yes"/>
      <point x="226" y="193"/>
      <point x="239" y="206"/>
      <point x="264" y="206" type="curve" smooth="yes"/>
      <point x="471" y="206" type="line"/>
    </contour>
  </outline>
</glyph>
<glyph name="be-cy" format="2">
  <advance width="615"/>
  <unicode hex="0431"/>
  <outline>
    <contour>
      <point x="531" y="741" type="line"/>
      <point x="429" y="700"/>
      <point x="327" y="729"/>
      <point x="219" y="691" type="curve" smooth="yes"/>
      <point x="65" y="636"/>
      <point x="35" y="502"/>
      <point x="35" y="318" type="curve" smooth="yes"/>
      <point x="35" y="132"/>
      <point x="43" y="-12"/>
      <point x="322" y="-12" type="curve" smooth="yes"/>
      <point x="518" y="-12"/>
      <point x="588" y="70"/>
      <point x="588" y="247" type="curve" smooth="yes"/>
      <point x="588" y="414"/>
      <point x="531" y="482"/>
      <point x="362" y="482" type="curve" smooth="yes"/>
      <point x="286" y="482"/>
      <point x="236" y="466"/>
      <point x="191" y="424" type="curve"/>
      <point x="187" y="424" type="line"/>
      <point x="192" y="457"/>
      <point x="195" y="478"/>
      <point x="213" y="500" type="curve" smooth="yes"/>
      <point x="227" y="518"/>
      <point x="251" y="530"/>
      <point x="291" y="541" type="curve" smooth="yes"/>
      <point x="374" y="564"/>
      <point x="460" y="530"/>
      <point x="559" y="582" type="curve"/>
    </contour>
    <contour>
      <point x="310" y="362" type="curve" smooth="yes"/>
      <point x="357" y="362"/>
      <point x="368" y="344"/>
      <point x="368" y="249" type="curve" smooth="yes"/>
      <point x="368" y="149"/>
      <point x="357" y="130"/>
      <point x="309" y="130" type="curve" smooth="yes"/>
      <point x="261" y="130"/>
      <point x="250" y="149"/>
      <point x="250" y="249" type="curve" smooth="yes"/>
      <point x="250" y="344"/>
      <point x="259" y="362"/>
    </contour>
  </outline>
</glyph>
<glyph name="ge-cy" format="2">
  <advance width="473"/>
  <unicode hex="0433"/>
  <anchor x="252" y="547" name="top"/>
  <outline>
    <contour>
      <point x="189" y="508" type="curve" smooth="yes"/>
      <point x="89" y="508"/>
      <point x="43" y="468"/>
      <point x="43" y="376" type="curve" smooth="yes"/>
      <point x="43" y="0" type="line"/>
      <point x="251" y="0" type="line"/>
      <point x="251" y="315" type="line" smooth="yes"/>
      <point x="251" y="337"/>
      <point x="260" y="345"/>
      <point x="285" y="345" type="curve" smooth="yes"/>
      <point x="458" y="345" type="line"/>
      <point x="468" y="491" type="line"/>
      <point x="392" y="508"/>
      <point x="282" y="508"/>
    </contour>
  </outline>
</glyph>
<glyph name="de-cy" format="2">
  <advance width="673"/>
  <unicode hex="0434"/>
  <outline>
    <contour>
      <point x="563" y="500" type="line"/>
      <point x="276" y="500" type="line" smooth="yes"/>
      <point x="186" y="500"/>
      <point x="142" y="458"/>
      <point x="129" y="378" type="curve" smooth="yes"/>
      <point x="108" y="252"/>
      <point x="81" y="132"/>
      <point x="14" y="0" type="curve"/>
      <point x="171" y="0" type="line"/>
      <point x="242" y="83"/>
      <point x="280" y="163"/>
      <point x="310" y="337" type="curve" smooth="yes"/>
      <point x="314" y="362"/>
      <point x="328" y="372"/>
      <point x="350" y="372" type="curve" smooth="yes"/>
      <point x="563" y="372" type="line"/>
    </contour>
    <contour>
      <point x="163" y="5" type="line"/>
      <point x="10" y="5" type="line"/>
      <point x="10" y="-136" type="line"/>
      <point x="149" y="-136" type="line"/>
    </contour>
    <contour>
      <point x="661" y="136" type="line"/>
      <point x="10" y="136" type="line"/>
      <point x="10" y="0" type="line"/>
      <point x="661" y="0" type="line"/>
    </contour>
    <contour>
      <point x="661" y="5" type="line"/>
      <point x="508" y="5" type="line"/>
      <point x="522" y="-136" type="line"/>
      <point x="661" y="-136" type="line"/>
    </contour>
    <contour>
      <point x="575" y="500" type="line"/>
      <point x="378" y="500" type="line"/>
      <point x="378" y="0" type="line"/>
      <point x="575" y="0" type="line"/>
    </contour>
  </outline>
</glyph>
<glyph name="zhe-cy" format="2">
  <advance width="856"/>
  <unicode hex="0436"/>
  <anchor x="836" y="0" name="bottomright"/>
  <anchor x="433" y="547" name="top"/>
  <outline>
    <contour>
      <point x="833" y="500" type="curve"/>
      <point x="627" y="500" type="line"/>
      <point x="573" y="324"/>
      <point x="575" y="324"/>
      <point x="532" y="324" type="curve"/>
      <point x="535" y="194" type="line"/>
      <point x="576" y="194"/>
      <point x="571" y="210"/>
      <point x="638" y="0" type="curve"/>
      <point x="850" y="0" type="line"/>
      <point x="776" y="250"/>
      <point x="780" y="239"/>
      <point x="656" y="258" type="curve"/>
      <point x="656" y="264" type="line"/>
      <point x="777" y="280"/>
      <point x="764" y="277"/>
    </contour>
    <contour>
      <point x="229" y="500" type="curve"/>
      <point x="23" y="500" type="line"/>
      <point x="93" y="277"/>
      <point x="80" y="280"/>
      <point x="201" y="264" type="curve"/>
      <point x="201" y="258" type="line"/>
      <point x="76" y="239"/>
      <point x="81" y="250"/>
      <point x="7" y="0" type="curve"/>
      <point x="219" y="0" type="line"/>
      <point x="287" y="210"/>
      <point x="283" y="194"/>
      <point x="321" y="194" type="curve"/>
      <point x="323" y="324" type="line"/>
      <point x="282" y="324"/>
      <point x="283" y="324"/>
    </contour>
    <contour>
      <point x="375" y="324" type="line"/>
      <point x="296" y="324" type="line"/>
      <point x="296" y="194" type="line"/>
      <point x="375" y="194" type="line"/>
    </contour>
    <contour>
      <point x="520" y="500" type="line"/>
      <point x="337" y="500" type="line"/>
      <point x="337" y="389" type="line" smooth="yes"/>
      <point x="337" y="348"/>
      <point x="346" y="299"/>
      <point x="365" y="263" type="curve"/>
      <point x="351" y="230"/>
      <point x="336" y="184"/>
      <point x="336" y="154" type="curve" smooth="yes"/>
      <point x="336" y="0" type="line"/>
      <point x="520" y="0" type="line"/>
      <point x="520" y="154" type="line" smooth="yes"/>
      <point x="520" y="184"/>
      <point x="506" y="230"/>
      <point x="491" y="263" type="curve"/>
      <point x="510" y="299"/>
      <point x="520" y="348"/>
      <point x="520" y="389" type="curve" smooth="yes"/>
    </contour>
    <contour>
      <point x="560" y="324" type="line"/>
      <point x="481" y="324" type="line"/>
      <point x="481" y="194" type="line"/>
      <point x="560" y="194" type="line"/>
    </contour>
  </outline>
</glyph>
<glyph name="em-cy" format="2">
  <advance width="822"/>
  <unicode hex="043C"/>
  <outline>
    <contour>
      <point x="701" y="500" type="curve" smooth="yes"/>
      <point x="525" y="500" type="line" smooth="yes"/>
      <point x="481" y="500"/>
      <point x="453" y="479"/>
      <point x="447" y="435" type="curve" smooth="yes"/>
      <point x="420" y="279" type="line" smooth="yes"/>
      <point x="415" y="253"/>
      <point x="416" y="229"/>
      <point x="413" y="203" type="curve"/>
      <point x="407" y="203" type="line"/>
      <point x="405" y="229"/>
      <point x="405" y="253"/>
      <point x="400" y="279" type="curve" smooth="yes"/>
      <point x="371" y="435" type="line" smooth="yes"/>
      <point x="365" y="479"/>
      <point x="337" y="500"/>
      <point x="294" y="500" type="curve" smooth="yes"/>
      <point x="122" y="500" type="line" smooth="yes"/>
      <point x="75" y="500"/>
      <point x="51" y="476"/>
      <point x="50" y="429" type="curve" smooth="yes"/>
      <point x="40" y="0" type="line"/>
      <point x="230" y="0" type="line"/>
      <point x="237" y="348" type="line"/>
      <point x="248" y="348" type="line"/>
      <point x="290" y="137" type="line" smooth="yes"/>
      <point x="297" y="94"/>
      <point x="325" y="73"/>
      <point x="369" y="73" type="curve" smooth="yes"/>
      <point x="452" y="73" type="line" smooth="yes"/>
      <point x="496" y="73"/>
      <point x="523" y="94"/>
      <point x="530" y="137" type="curve" smooth="yes"/>
      <point x="571" y="348" type="line"/>
      <point x="582" y="348" type="line"/>
      <point x="593" y="0" type="line"/>
      <point x="783" y="0" type="line"/>
      <point x="772" y="429" type="line" smooth="yes"/>
      <point x="771" y="476"/>
      <point x="748" y="500"/>
    </contour>
  </outline>
</glyph>
<glyph name="en-cy" format="2">
  <advance width="628"/>
  <unicode hex="043D"/>
  <outline>
    <contour>
      <point x="253" y="500" type="line"/>
      <point x="46" y="500" type="line"/>
      <point x="46" y="0" type="line"/>
      <point x="253" y="0" type="line"/>
    </contour>
    <contour>
      <point x="385" y="330" type="line"/>
      <point x="246" y="330" type="line"/>
      <point x="246" y="195" type="line"/>
      <point x="385" y="195" type="line"/>
    </contour>
    <contour>
      <point x="582" y="500" type="line"/>
      <point x="376" y="500" type="line"/>
      <point x="376" y="0" type="line"/>
      <point x="582" y="0" type="line"/>
    </contour>
  </outline>
</glyph>
<glyph name="pe-cy" format="2">
  <advance width="621"/>
  <unicode hex="043F"/>
  <outline>
    <contour>
      <point x="575" y="501" type="line"/>
      <point x="371" y="501" type="line"/>
      <point x="371" y="0" type="line"/>
      <point x="575" y="0" type="line"/>
    </contour>
    <contour>
      <point x="250" y="501" type="line"/>
      <point x="46" y="501" type="line"/>
      <point x="46" y="0" type="line"/>
      <point x="250" y="0" type="line"/>
    </contour>
    <contour>
      <point x="381" y="501" type="line"/>
      <point x="243" y="501" type="line"/>
      <point x="243" y="365" type="line"/>
      <point x="380" y="365" type="line"/>
    </contour>
  </outline>
</glyph>
<glyph name="er-cy" format="2">
  <advance width="623"/>
  <unicode hex="0440"/>
  <outline>
    <contour>
      <point x="415" y="512" type="curve" smooth="yes"/>
      <point x="328" y="512"/>
      <point x="250" y="470"/>
      <point x="224" y="421" type="curve"/>
      <point x="253" y="342" type="line"/>
      <point x="274" y="352"/>
      <point x="290" y="361"/>
      <point x="325" y="361" type="curve" smooth="yes"/>
      <point x="363" y="361"/>
      <point x="379" y="350"/>
      <point x="379" y="242" type="curve" smooth="yes"/>
      <point x="379" y="135"/>
      <point x="363" y="123"/>
      <point x="322" y="123" type="curve" smooth="yes"/>
      <point x="281" y="123"/>
      <point x="261" y="135"/>
      <point x="234" y="144" type="curve"/>
      <point x="220" y="62" type="line"/>
      <point x="260" y="6"/>
      <point x="330" y="-14"/>
      <point x="406" y="-14" type="curve" smooth="yes"/>
      <point x="530" y="-14"/>
      <point x="595" y="38"/>
      <point x="595" y="244" type="curve" smooth="yes"/>
      <point x="595" y="414"/>
      <point x="545" y="512"/>
    </contour>
    <contour>
      <point x="214" y="500" type="line"/>
      <point x="46" y="500" type="line"/>
      <point x="46" y="-180" type="line"/>
      <point x="256" y="-180" type="line"/>
      <point x="256" y="-81" type="line" smooth="yes"/>
      <point x="257" y="-34"/>
      <point x="254" y="19"/>
      <point x="250" y="62" type="curve"/>
      <point x="256" y="74" type="line"/>
      <point x="256" y="405" type="line"/>
      <point x="234" y="421" type="line"/>
    </contour>
  </outline>
</glyph>
<glyph name="u-cy" format="2">
  <advance width="602"/>
  <unicode hex="0443"/>
  <anchor x="297" y="547" name="top"/>
  <outline>
    <contour>
      <point x="604" y="500" type="line"/>
      <point x="381" y="500" type="line"/>
      <point x="322" y="224" type="line" smooth="yes"/>
      <point x="315" y="188"/>
      <point x="303" y="128"/>
      <point x="289" y="94" type="curve" smooth="yes"/>
      <point x="259" y="24" type="line" smooth="yes"/>
      <point x="247" y="-3"/>
      <point x="227" y="-30"/>
      <point x="204" y="-42" type="curve" smooth="yes"/>
      <point x="172" y="-58"/>
      <point x="127" y="-65"/>
      <point x="56" y="-64" type="curve"/>
      <point x="40" y="-197" type="line"/>
      <point x="108" y="-212"/>
      <point x="185" y="-214"/>
      <point x="246" y="-197" type="curve" smooth="yes"/>
      <point x="333" y="-172"/>
      <point x="402" y="-130"/>
      <point x="445" y="14" type="curve" smooth="yes"/>
    </contour>
    <contour>
      <point x="220" y="500" type="line"/>
      <point x="-3" y="500" type="line"/>
      <point x="145" y="49" type="line" smooth="yes"/>
      <point x="154" y="19"/>
      <point x="179" y="0"/>
      <point x="211" y="0" type="curve" smooth="yes"/>
      <point x="257" y="0" type="line"/>
      <point x="322" y="130" type="line"/>
      <point x="292" y="130" type="line"/>
      <point x="288" y="161"/>
      <point x="284" y="193"/>
      <point x="279" y="224" type="curve" smooth="yes"/>
    </contour>
  </outline>
</glyph>
<glyph name="tse-cy" format="2">
  <advance width="659"/>
  <unicode hex="0446"/>
  <outline>
    <contour>
      <point x="253" y="500" type="line"/>
      <point x="46" y="500" type="line"/>
      <point x="46" y="0" type="line"/>
      <point x="253" y="0" type="line"/>
    </contour>
    <contour>
      <point x="646" y="136" type="line"/>
      <point x="241" y="136" type="line"/>
      <point x="241" y="0" type="line"/>
      <point x="646" y="0" type="line"/>
    </contour>
    <contour>
      <point x="566" y="500" type="line"/>
      <point x="359" y="500" type="line"/>
      <point x="359" y="0" type="line"/>
      <point x="566" y="0" type="line"/>
    </contour>
    <contour>
      <point x="646" y="5" type="line"/>
      <point x="492" y="5" type="line"/>
      <point x="507" y="-136" type="line"/>
      <point x="646" y="-136" type="line"/>
    </contour>
  </outline>
</glyph>
<glyph name="shcha-cy" format="2">
  <advance width="914"/>
  <unicode hex="0449"/>
  <outline>
    <contour>
      <point x="248" y="500" type="line"/>
      <point x="46" y="500" type="line"/>
      <point x="46" y="0" type="line"/>
      <point x="248" y="0" type="line"/>
    </contour>
    <contour>
      <point x="901" y="136" type="line"/>
      <point x="240" y="136" type="line"/>
      <point x="241" y="0" type="line"/>
      <point x="901" y="0" type="line"/>
    </contour>
    <contour>
      <point x="526" y="500" type="line"/>
      <point x="342" y="500" type="line"/>
      <point x="342" y="0" type="line"/>
      <point x="526" y="0" type="line"/>
    </contour>
    <contour>
      <point x="822" y="500" type="line"/>
      <point x="620" y="500" type="line"/>
      <point x="620" y="0" type="line"/>
      <point x="822" y="0" type="line"/>
    </contour>
    <contour>
      <point x="901" y="5" type="line"/>
      <point x="747" y="5" type="line"/>
      <point x="762" y="-136" type="line"/>
      <point x="901" y="-136" type="line"/>
    </contour>
  </outline>
</glyph>
<glyph name="hardsign-cy" format="2">
  <advance width="683"/>
  <unicode hex="044A"/>
  <outline>
    <contour>
      <point x="409" y="343" type="curve" smooth="yes"/>
      <point x="190" y="343" type="line"/>
      <point x="190" y="227" type="line"/>
      <point x="409" y="227" type="line" smooth="yes"/>
      <point x="450" y="227"/>
      <point x="456" y="220"/>
      <point x="456" y="177" type="curve" smooth="yes"/>
      <point x="456" y="136"/>
      <point x="449" y="128"/>
      <point x="409" y="128" type="curve" smooth="yes"/>
      <point x="304" y="128"/>
      <point x="218" y="129"/>
      <point x="191" y="131" type="curve"/>
      <point x="179" y="0" type="line"/>
      <point x="257" y="-5"/>
      <point x="325" y="-6"/>
      <point x="446" y="-6" type="curve" smooth="yes"/>
      <point x="598" y="-6"/>
      <point x="667" y="33"/>
      <point x="667" y="169" type="curve" smooth="yes"/>
      <point x="667" y="306"/>
      <point x="605" y="343"/>
    </contour>
    <contour>
      <point x="375" y="500" type="line"/>
      <point x="173" y="500" type="line"/>
      <point x="173" y="0" type="line"/>
      <point x="375" y="0" type="line"/>
    </contour>
    <contour>
      <point x="11" y="500" type="line"/>
      <point x="11" y="350" type="line"/>
      <point x="283" y="350" type="line"/>
      <point x="283" y="500" type="line"/>
    </contour>
  </outline>
</glyph>
<glyph name="softsign-cy" format="2">
  <advance width="563"/>
  <unicode hex="044C"/>
  <outline>
    <contour>
      <point x="286" y="343" type="curve" smooth="yes"/>
      <point x="64" y="343" type="line"/>
      <point x="64" y="227" type="line"/>
      <point x="286" y="227" type="line" smooth="yes"/>
      <point x="329" y="227"/>
      <point x="337" y="220"/>
      <point x="337" y="177" type="curve" smooth="yes"/>
      <point x="337" y="136"/>
      <point x="329" y="128"/>
      <point x="286" y="128" type="curve" smooth="yes"/>
      <point x="179" y="128"/>
      <point x="92" y="129"/>
      <point x="65" y="131" type="curve"/>
      <point x="52" y="0" type="line"/>
      <point x="131" y="-5"/>
      <point x="200" y="-6"/>
      <point x="322" y="-6" type="curve" smooth="yes"/>
      <point x="477" y="-6"/>
      <point x="547" y="33"/>
      <point x="547" y="169" type="curve" smooth="yes"/>
      <point x="547" y="306"/>
      <point x="484" y="343"/>
    </contour>
    <contour>
      <point x="247" y="500" type="line"/>
      <point x="46" y="500" type="line"/>
      <point x="46" y="0" type="line"/>
      <point x="247" y="0" type="line"/>
    </contour>
  </outline>
</glyph>
<glyph name="ereversed-cy" format="2">
  <advance width="564"/>
  <unicode hex="044D"/>
  <anchor x="285" y="547" name="top"/>
  <outline>
    <contour>
      <point x="241" y="514" type="curve" smooth="yes"/>
      <point x="170" y="514"/>
      <point x="91" y="506"/>
      <point x="25" y="483" type="curve"/>
      <point x="41" y="357" type="line"/>
      <point x="107" y="356"/>
      <point x="158" y="357"/>
      <point x="241" y="357" type="curve" smooth="yes"/>
      <point x="309" y="357"/>
      <point x="327" y="347"/>
      <point x="327" y="248" type="curve" smooth="yes"/>
      <point x="327" y="147"/>
      <point x="313" y="144"/>
      <point x="241" y="144" type="curve" smooth="yes"/>
      <point x="152" y="144"/>
      <point x="98" y="145"/>
      <point x="36" y="148" type="curve"/>
      <point x="21" y="19" type="line"/>
      <point x="84" y="-4"/>
      <point x="153" y="-14"/>
      <point x="241" y="-14" type="curve" smooth="yes"/>
      <point x="459" y="-14"/>
      <point x="538" y="54"/>
      <point x="538" y="248" type="curve" smooth="yes"/>
      <point x="538" y="447"/>
      <point x="459" y="514"/>
    </contour>
    <contour>
      <point x="498" y="308" type="line"/>
      <point x="74" y="308" type="line"/>
      <point x="74" y="198" type="line"/>
      <point x="498" y="198" type="line"/>
    </contour>
  </outline>
</glyph>
<glyph name="iu-cy" format="2">
  <advance width="870"/>
  <unicode hex="044E"/>
  <outline>
    <contour>
      <point x="575" y="514" type="curve" smooth="yes"/>
      <point x="390" y="514"/>
      <point x="324" y="466"/>
      <point x="324" y="248" type="curve" smooth="yes"/>
      <point x="324" y="38"/>
      <point x="390" y="-11"/>
      <point x="575" y="-11" type="curve" smooth="yes"/>
      <point x="770" y="-11"/>
      <point x="843" y="38"/>
      <point x="843" y="248" type="curve" smooth="yes"/>
      <point x="843" y="466"/>
      <point x="770" y="514"/>
    </contour>
    <contour>
      <point x="256" y="500" type="line"/>
      <point x="46" y="500" type="line"/>
      <point x="46" y="0" type="line"/>
      <point x="256" y="0" type="line"/>
    </contour>
    <contour>
      <point x="394" y="323" type="line"/>
      <point x="248" y="323" type="line"/>
      <point x="248" y="187" type="line"/>
      <point x="394" y="187" type="line"/>
    </contour>
    <contour>
      <point x="572" y="359" type="curve" smooth="yes"/>
      <point x="619" y="359"/>
      <point x="626" y="345"/>
      <point x="626" y="251" type="curve" smooth="yes"/>
      <point x="626" y="158"/>
      <point x="619" y="144"/>
      <point x="572" y="144" type="curve" smooth="yes"/>
      <point x="521" y="144"/>
      <point x="516" y="158"/>
      <point x="516" y="251" type="curve" smooth="yes"/>
      <point x="516" y="345"/>
      <point x="521" y="359"/>
    </contour>
  </outline>
</glyph>
<glyph name="io-cy" format="2">
  <advance width="590"/>
  <unicode hex="0451"/>
  <outline>
    <contour>
      <point x="309" y="514" type="curve" smooth="yes"/>
      <point x="102" y="514"/>
      <point x="25" y="443"/>
      <point x="25" y="246" type="curve" smooth="yes"/>
      <point x="25" y="76"/>
      <point x="101" y="-12"/>
      <point x="310" y="-12" type="curve" smooth="yes"/>
      <point x="400" y="-12"/>
      <point x="484" y="-2"/>
      <point x="555" y="34" type="curve"/>
      <point x="536" y="160" type="line"/>
      <point x="450" y="151"/>
      <point x="373" y="149"/>
      <point x="333" y="149" type="curve" smooth="yes"/>
      <point x="258" y="149"/>
      <point x="245" y="177"/>
      <point x="245" y="269" type="curve" smooth="yes"/>
      <point x="245" y="368"/>
      <point x="257" y="380"/>
      <point x="315" y="379" type="curve" smooth="yes"/>
      <point x="353" y="379"/>
      <point x="368" y="373"/>
      <point x="368" y="341" type="curve" smooth="yes"/>
      <point x="368" y="307"/>
      <point x="361" y="303"/>
      <point x="316" y="303" type="curve" smooth="yes"/>
      <point x="106" y="303" type="line"/>
      <point x="106" y="204" type="line"/>
      <point x="375" y="204" type="line" smooth="yes"/>
      <point x="522" y="204"/>
      <point x="570" y="243"/>
      <point x="569" y="336" type="curve" smooth="yes"/>
      <point x="568" y="453"/>
      <point x="497" y="514"/>
    </contour>
    <contour>
      <point x="439" y="716" type="curve" smooth="yes"/>
      <point x="370" y="716" type="line" smooth="yes"/>
      <point x="344" y="716"/>
      <point x="331" y="703"/>
      <point x="331" y="677" type="curve" smooth="yes"/>
      <point x="331" y="614" type="line" smooth="yes"/>
      <point x="331" y="588"/>
      <point x="344" y="575"/>
      <point x="370" y="575" type="curve" smooth="yes"/>
      <point x="439" y="575" type="line" smooth="yes"/>
      <point x="465" y="575"/>
      <point x="478" y="588"/>
      <point x="478" y="614" type="curve" smooth="yes"/>
      <point x="478" y="677" type="line" smooth="yes"/>
      <point x="478" y="703"/>
      <point x="465" y="716"/>
    </contour>
    <contour>
      <point x="250" y="716" type="curve" smooth="yes"/>
      <point x="181" y="716" type="line" smooth="yes"/>
      <point x="155" y="716"/>
      <point x="142" y="703"/>
      <point x="142" y="677" type="curve" smooth="yes"/>
      <point x="142" y="614" type="line" smooth="yes"/>
      <point x="142" y="588"/>
      <point x="155" y="575"/>
      <point x="181" y="575" type="curve" smooth="yes"/>
      <point x="250" y="575" type="line" smooth="yes"/>
      <point x="276" y="575"/>
      <point x="289" y="588"/>
      <point x="289" y="614" type="curve" smooth="yes"/>
      <point x="289" y="677" type="line" smooth="yes"/>
      <point x="289" y="703"/>
      <point x="276" y="716"/>
    </contour>
  </outline>
</glyph>
<glyph name="dje-cy" format="2">
  <advance width="628"/>
  <unicode hex="0452"/>
  <outline>
    <contour>
      <point x="453" y="424" type="curve" smooth="yes"/>
      <point x="382" y="424"/>
      <point x="302" y="390"/>
      <point x="232" y="319" type="curve"/>
      <point x="255" y="228" type="line"/>
      <point x="303" y="245"/>
      <point x="328" y="247"/>
      <point x="353" y="247" type="curve" smooth="yes"/>
      <point x="379" y="247"/>
      <point x="389" y="239"/>
      <point x="389" y="217" type="curve" smooth="yes"/>
      <point x="389" y="48" type="line" smooth="yes"/>
      <point x="389" y="-9"/>
      <point x="378" y="-55"/>
      <point x="330" y="-108" type="curve"/>
      <point x="447" y="-200" type="line"/>
      <point x="543" y="-159"/>
      <point x="600" y="-56"/>
      <point x="600" y="48" type="curve" smooth="yes"/>
      <point x="600" y="284" type="line" smooth="yes"/>
      <point x="600" y="376"/>
      <point x="550" y="424"/>
    </contour>
    <contour>
      <point x="277" y="700" type="line"/>
      <point x="66" y="700" type="line"/>
      <point x="66" y="0" type="line"/>
      <point x="277" y="0" type="line"/>
      <point x="277" y="296" type="line"/>
      <point x="257" y="308" type="line"/>
      <point x="267" y="341"/>
      <point x="277" y="401"/>
      <point x="277" y="461" type="curve" smooth="yes"/>
    </contour>
    <contour>
      <point x="443" y="557" type="line"/>
      <point x="10" y="557" type="line"/>
      <point x="10" y="457" type="line"/>
      <point x="443" y="457" type="line"/>
    </contour>
  </outline>
</glyph>
<glyph name="je-cy" format="2">
  <advance width="309"/>
  <unicode hex="0458"/>
  <outline>
    <contour>
      <point x="259" y="500" type="line"/>
      <point x="50" y="500" type="line"/>
      <point x="50" y="58" type="line" smooth="yes"/>
      <point x="50" y="1"/>
      <point x="34" y="-45"/>
      <point x="-19" y="-98" type="curve"/>
      <point x="97" y="-190" type="line"/>
      <point x="198" y="-149"/>
      <point x="259" y="-46"/>
      <point x="259" y="58" type="curve" smooth="yes"/>
    </contour>
    <contour>
      <point x="196" y="739" type="curve" smooth="yes"/>
      <point x="107" y="739" type="line" smooth="yes"/>
      <point x="66" y="739"/>
      <point x="46" y="719"/>
      <point x="46" y="677" type="curve" smooth="yes"/>
      <point x="46" y="626" type="line" smooth="yes"/>
      <point x="46" y="584"/>
      <point x="66" y="564"/>
      <point x="107" y="564" type="curve" smooth="yes"/>
      <point x="196" y="564" type="line" smooth="yes"/>
      <point x="237" y="564"/>
      <point x="257" y="584"/>
      <point x="257" y="626" type="curve" smooth="yes"/>
      <point x="257" y="677" type="line" smooth="yes"/>
      <point x="257" y="719"/>
      <point x="237" y="739"/>
    </contour>
  </outline>
</glyph>
<glyph name="lje-cy" format="2">
  <advance width="843"/>
  <unicode hex="0459"/>
  <outline>
    <contour>
      <point x="539" y="500" type="line"/>
      <point x="264" y="500" type="line" smooth="yes"/>
      <point x="175" y="500"/>
      <point x="129" y="456"/>
      <point x="120" y="371" type="curve" smooth="yes"/>
      <point x="112" y="302"/>
      <point x="101" y="224"/>
      <point x="92" y="188" type="curve" smooth="yes"/>
      <point x="82" y="147"/>
      <point x="49" y="143"/>
      <point x="13" y="140" type="curve"/>
      <point x="26" y="-4" type="line"/>
      <point x="141" y="-26"/>
      <point x="223" y="5"/>
      <point x="259" y="127" type="curve" smooth="yes"/>
      <point x="275" y="182"/>
      <point x="289" y="284"/>
      <point x="294" y="334" type="curve" smooth="yes"/>
      <point x="297" y="366"/>
      <point x="308" y="376"/>
      <point x="334" y="376" type="curve" smooth="yes"/>
      <point x="539" y="376" type="line"/>
    </contour>
    <contour>
      <point x="551" y="500" type="line"/>
      <point x="358" y="500" type="line"/>
      <point x="358" y="0" type="line"/>
      <point x="551" y="0" type="line"/>
    </contour>
    <contour>
      <point x="578" y="339" type="curve" smooth="yes"/>
      <point x="367" y="339" type="line"/>
      <point x="367" y="224" type="line"/>
      <point x="578" y="224" type="line" smooth="yes"/>
      <point x="620" y="224"/>
      <point x="627" y="217"/>
      <point x="627" y="174" type="curve" smooth="yes"/>
      <point x="627" y="133"/>
      <point x="621" y="124"/>
      <point x="578" y="124" type="curve" smooth="yes"/>
      <point x="480" y="124"/>
      <point x="397" y="125"/>
      <point x="371" y="127" type="curve"/>
      <point x="364" y="0" type="line"/>
      <point x="439" y="-3"/>
      <point x="498" y="-6"/>
      <point x="612" y="-6" type="curve" smooth="yes"/>
      <point x="761" y="-6"/>
      <point x="827" y="33"/>
      <point x="827" y="166" type="curve" smooth="yes"/>
      <point x="827" y="302"/>
      <point x="767" y="339"/>
    </contour>
  </outline>
</glyph>
<glyph name="nje-cy" format="2">
  <advance width="833"/>
  <unicode hex="045A"/>
  <outline>
    <contour>
      <point x="579" y="324" type="curve" smooth="yes"/>
      <point x="358" y="324" type="line"/>
      <point x="358" y="210" type="line"/>
      <point x="579" y="210" type="line" smooth="yes"/>
      <point x="613" y="210"/>
      <point x="618" y="203"/>
      <point x="618" y="168" type="curve" smooth="yes"/>
      <point x="618" y="133"/>
      <point x="612" y="124"/>
      <point x="579" y="124" type="curve" smooth="yes"/>
      <point x="476" y="124"/>
      <point x="389" y="125"/>
      <point x="362" y="127" type="curve"/>
      <point x="350" y="0" type="line"/>
      <point x="426" y="-5"/>
      <point x="498" y="-6"/>
      <point x="613" y="-6" type="curve" smooth="yes"/>
      <point x="755" y="-6"/>
      <point x="818" y="33"/>
      <point x="818" y="166" type="curve" smooth="yes"/>
      <point x="818" y="289"/>
      <point x="760" y="324"/>
    </contour>
    <contour>
      <point x="237" y="500" type="line"/>
      <point x="46" y="500" type="line"/>
      <point x="46" y="0" type="line"/>
      <point x="237" y="0" type="line"/>
    </contour>
    <contour>
      <point x="352" y="325" type="line"/>
      <point x="230" y="325" type="line"/>
      <point x="230" y="201" type="line"/>
      <point x="352" y="201" type="line"/>
    </contour>
    <contour>
      <point x="542" y="500" type="line"/>
      <point x="346" y="500" type="line"/>
      <point x="346" y="0" type="line"/>
      <point x="542" y="0" type="line"/>
    </contour>
  </outline>
</glyph>
<glyph name="dzhe-cy" format="2">
  <advance width="625"/>
  <unicode hex="045F"/>
  <outline>
    <contour>
      <point x="252" y="500" type="line"/>
      <point x="46" y="500" type="line"/>
      <point x="46" y="0" type="line"/>
      <point x="255" y="0" type="line"/>
    </contour>
    <contour>
      <point x="381" y="136" type="line"/>
      <point x="245" y="136" type="line"/>
      <point x="248" y="0" type="line"/>
      <point x="379" y="0" type="line"/>
    </contour>
    <contour>
      <point x="579" y="500" type="line"/>
      <point x="373" y="500" type="line"/>
      <point x="370" y="0" type="line"/>
      <point x="579" y="0" type="line"/>
    </contour>
    <contour>
      <point x="395" y="5" type="line"/>
      <point x="229" y="5" type="line"/>
      <point x="242" y="-162" type="line"/>
      <point x="383" y="-162" type="line"/>
    </contour>
  </outline>
</glyph>
<glyph name="Yat-cy" format="2">
  <advance width="669"/>
  <unicode hex="0462"/>
  <outline>
    <contour>
      <point x="409" y="-8" type="curve" smooth="yes"/>
      <point x="575" y="-8"/>
      <point x="649" y="43"/>
      <point x="649" y="223" type="curve" smooth="yes"/>
      <point x="649" y="401"/>
      <point x="580" y="453"/>
      <point x="370" y="453" type="curve" smooth="yes"/>
      <point x="112" y="453" type="line"/>
      <point x="112" y="322" type="line"/>
      <point x="370" y="322" type="line" smooth="yes"/>
      <point x="422" y="322"/>
      <point x="432" y="304"/>
      <point x="432" y="231" type="curve" smooth="yes"/>
      <point x="432" y="158"/>
      <point x="422" y="142"/>
      <point x="370" y="142" type="curve" smooth="yes"/>
      <point x="245" y="142"/>
      <point x="146" y="143"/>
      <point x="113" y="145" type="curve"/>
      <point x="98" y="0" type="line"/>
      <point x="190" y="-7"/>
      <point x="268" y="-8"/>
    </contour>
    <contour>
      <point x="92" y="0" type="line"/>
      <point x="309" y="0" type="line"/>
      <point x="309" y="734" type="line"/>
      <point x="92" y="734" type="line"/>
    </contour>
    <contour>
      <point x="-20" y="522" type="line"/>
      <point x="521" y="522" type="line"/>
      <point x="521" y="642" type="line"/>
      <point x="-20" y="642" type="line"/>
    </contour>
  </outline>
</glyph>
<glyph name="Fita-cy" format="2">
  <advance width="707"/>
  <unicode hex="0472"/>
  <outline>
    <contour>
      <point x="202" y="287" type="line"/>
      <point x="492" y="287" type="line"/>
      <point x="492" y="411" type="line"/>
      <point x="202" y="411" type="line"/>
    </contour>
    <component base="O-cy"/>
  </outline>
</glyph>
<glyph name="Izhitsa-cy" format="2">
  <advance width="709"/>
  <unicode hex="0474"/>
  <outline>
    <contour>
      <point x="240" y="0" type="curve" smooth="yes"/>
      <point x="430" y="0" type="line" smooth="yes"/>
      <point x="467" y="0"/>
      <point x="497" y="23"/>
      <point x="504" y="58" type="curve" smooth="yes"/>
      <point x="591" y="469" type="line" smooth="yes"/>
      <point x="602" y="519"/>
      <point x="626" y="534"/>
      <point x="668" y="534" type="curve" smooth="yes"/>
      <point x="678" y="534"/>
      <point x="697" y="533"/>
      <point x="709" y="531" type="curve"/>
      <point x="709" y="694" type="line"/>
      <point x="664" y="703"/>
      <point x="615" y="704"/>
      <point x="585" y="704" type="curve" smooth="yes"/>
      <point x="451" y="704"/>
      <point x="416" y="612"/>
      <point x="404" y="531" type="curve" smooth="yes"/>
      <point x="360" y="241" type="line" smooth="yes"/>
      <point x="356" y="216"/>
      <point x="350" y="187"/>
      <point x="347" y="162" type="curve"/>
      <point x="323" y="162" type="line"/>
      <point x="319" y="187"/>
      <point x="315" y="216"/>
      <point x="310" y="241" type="curve" smooth="yes"/>
      <point x="221" y="690" type="line"/>
      <point x="-2" y="690" type="line"/>
      <point x="166" y="58" type="line" smooth="yes"/>
      <point x="174" y="23"/>
      <point x="203" y="0"/>
    </contour>
  </outline>
</glyph>
<glyph name="Iishorttail-cy" format="2">
  <advance width="777"/>
  <unicode hex="048A"/>
  <outline>
    <contour>
      <point x="471" y="142" type="line"/>
      <point x="471" y="0" type="line"/>
      <point x="589" y="0" type="line"/>
      <point x="575" y="-151" type="line"/>
      <point x="732" y="-151" type="line"/>
      <point x="762" y="0" type="line"/>
      <point x="762" y="142" type="line"/>
    </contour>
    <component base="Ii-cy"/>
    <component base="brevecomb-cy" xOffset="170" yOffset="235"/>
  </outline>
</glyph>
<glyph name="iishorttail-cy" format="2">
  <advance width="678"/>
  <unicode hex="048B"/>
  <outline>
    <contour>
      <point x="402" y="132" type="line"/>
      <point x="402" y="0" type="line"/>
      <point x="515" y="0" type="line"/>
      <point x="491" y="-136" type="line"/>
      <point x="635" y="-136" type="line"/>
      <point x="665" y="0" type="line"/>
      <point x="665" y="132" type="line"/>
    </contour>
    <component base="iishort-cy"/>
  </outline>
</glyph>
<glyph name="Ertick-cy" format="2">
  <advance width="657"/>
  <unicode hex="048E"/>
  <outline>
    <contour>
      <point x="344" y="700" type="curve" smooth="yes"/>
      <point x="206" y="700"/>
      <point x="144" y="699"/>
      <point x="52" y="690" type="curve"/>
      <point x="67" y="552" type="line"/>
      <point x="101" y="556"/>
      <point x="203" y="557"/>
      <point x="339" y="557" type="curve" smooth="yes"/>
      <point x="414" y="557"/>
      <point x="433" y="539"/>
      <point x="433" y="465" type="curve" smooth="yes"/>
      <point x="433" y="393"/>
      <point x="414" y="375"/>
      <point x="339" y="375" type="curve" smooth="yes"/>
      <point x="248" y="375"/>
      <point x="153" y="375"/>
      <point x="66" y="375" type="curve"/>
      <point x="63" y="287" type="line"/>
      <point x="95" y="265"/>
      <point x="240" y="232"/>
      <point x="374" y="232" type="curve" smooth="yes"/>
      <point x="563" y="232"/>
      <point x="630" y="283"/>
      <point x="630" y="465" type="curve" smooth="yes"/>
      <point x="630" y="649"/>
      <point x="563" y="700"/>
    </contour>
    <contour>
      <point x="269" y="690" type="line"/>
      <point x="52" y="690" type="line"/>
      <point x="52" y="0" type="line"/>
      <point x="269" y="0" type="line"/>
    </contour>
    <contour>
      <point x="314" y="439" type="line"/>
      <point x="581" y="173" type="line"/>
      <point x="634" y="226" type="line"/>
      <point x="367" y="492" type="line"/>
    </contour>
  </outline>
</glyph>
<glyph name="Gheupturn-cy" format="2">
  <advance width="555"/>
  <unicode hex="0490"/>
  <outline>
    <contour>
      <point x="215" y="694" type="curve" smooth="yes"/>
      <point x="121" y="694"/>
      <point x="54" y="630"/>
      <point x="54" y="537" type="curve" smooth="yes"/>
      <point x="54" y="0" type="line"/>
      <point x="271" y="0" type="line"/>
      <point x="271" y="492" type="line" smooth="yes"/>
      <point x="271" y="513"/>
      <point x="287" y="528"/>
      <point x="313" y="528" type="curve" smooth="yes"/>
      <point x="541" y="528" type="line"/>
      <point x="551" y="680" type="line"/>
      <point x="465" y="694"/>
      <point x="328" y="694"/>
    </contour>
    <contour>
      <point x="551" y="843" type="line"/>
      <point x="407" y="843" type="line"/>
      <point x="387" y="645" type="line"/>
      <point x="551" y="680" type="line"/>
    </contour>
  </outline>
</glyph>
<glyph name="gheupturn-cy" format="2">
  <advance width="493"/>
  <unicode hex="0491"/>
  <outline>
    <contour>
      <point x="189" y="508" type="curve" smooth="yes"/>
      <point x="89" y="508"/>
      <point x="43" y="468"/>
      <point x="43" y="376" type="curve" smooth="yes"/>
      <point x="43" y="0" type="line"/>
      <point x="251" y="0" type="line"/>
      <point x="251" y="315" type="line" smooth="yes"/>
      <point x="251" y="337"/>
      <point x="260" y="345"/>
      <point x="285" y="345" type="curve" smooth="yes"/>
      <point x="478" y="345" type="line"/>
      <point x="488" y="491" type="line"/>
      <point x="407" y="508"/>
      <point x="289" y="508"/>
    </contour>
    <contour>
      <point x="488" y="642" type="line"/>
      <point x="351" y="642" type="line"/>
      <point x="330" y="456" type="line"/>
      <point x="488" y="491" type="line"/>
    </contour>
  </outline>
</glyph>
<glyph name="ghestroke-cy" format="2">
  <advance width="502"/>
  <unicode hex="0493"/>
  <outline>
    <contour>
      <point x="389" y="251" type="line"/>
      <point x="0" y="251" type="line"/>
      <point x="0" y="152" type="line"/>
      <point x="389" y="152" type="line"/>
    </contour>
    <component base="ge-cy" xOffset="29"/>
  </outline>
</glyph>
<glyph name="Ghemiddlehook-cy" format="2">
  <advance width="633"/>
  <unicode hex="0494"/>
  <outline>
    <contour>
      <point x="314" y="-180" type="line"/>
      <point x="468" y="-162"/>
      <point x="611" y="-82"/>
      <point x="611" y="166" type="curve" smooth="yes"/>
      <point x="611" y="361"/>
      <point x="551" y="444"/>
      <point x="414" y="444" type="curve" smooth="yes"/>
      <point x="350" y="444"/>
      <point x="267" y="419"/>
      <point x="218" y="378" type="curve"/>
      <point x="221" y="247" type="line"/>
      <point x="267" y="273"/>
      <point x="312" y="277"/>
      <point x="333" y="277" type="curve" smooth="yes"/>
      <point x="379" y="277"/>
      <point x="393" y="252"/>
      <point x="393" y="162" type="curve" smooth="yes"/>
      <point x="393" y="56"/>
      <point x="384" y="11"/>
      <point x="294" y="-30" type="curve"/>
    </contour>
    <contour>
      <point x="211" y="694" type="curve" smooth="yes"/>
      <point x="117" y="694"/>
      <point x="50" y="630"/>
      <point x="50" y="537" type="curve" smooth="yes"/>
      <point x="50" y="0" type="line"/>
      <point x="267" y="0" type="line"/>
      <point x="267" y="492" type="line" smooth="yes"/>
      <point x="267" y="513"/>
      <point x="283" y="528"/>
      <point x="309" y="528" type="curve" smooth="yes"/>
      <point x="541" y="528" type="line"/>
      <point x="551" y="680" type="line"/>
      <point x="455" y="694"/>
      <point x="326" y="694"/>
    </contour>
  </outline>
</glyph>
<glyph name="ghemiddlehook-cy" format="2">
  <advance width="577"/>
  <unicode hex="0495"/>
  <outline>
    <contour>
      <point x="189" y="508" type="curve" smooth="yes"/>
      <point x="89" y="508"/>
      <point x="43" y="468"/>
      <point x="43" y="376" type="curve" smooth="yes"/>
      <point x="43" y="0" type="line"/>
      <point x="251" y="0" type="line"/>
      <point x="251" y="325" type="line" smooth="yes"/>
      <point x="251" y="347"/>
      <point x="260" y="355"/>
      <point x="285" y="355" type="curve" smooth="yes"/>
      <point x="473" y="355" type="line"/>
      <point x="483" y="491" type="line"/>
      <point x="403" y="508"/>
      <point x="287" y="508"/>
    </contour>
    <contour>
      <point x="294" y="-210" type="line"/>
      <point x="436" y="-196"/>
      <point x="567" y="-121"/>
      <point x="567" y="80" type="curve" smooth="yes"/>
      <point x="567" y="212"/>
      <point x="510" y="289"/>
      <point x="385" y="289" type="curve" smooth="yes"/>
      <point x="323" y="289"/>
      <point x="260" y="270"/>
      <point x="218" y="238" type="curve"/>
      <point x="221" y="107" type="line"/>
      <point x="253" y="133"/>
      <point x="284" y="137"/>
      <point x="302" y="137" type="curve" smooth="yes"/>
      <point x="346" y="137"/>
      <point x="354" y="112"/>
      <point x="354" y="62" type="curve" smooth="yes"/>
      <point x="354" y="-1"/>
      <point x="341" y="-42"/>
      <point x="274" y="-70" type="curve"/>
    </contour>
  </outline>
</glyph>
<glyph name="zhedescender-cy" format="2">
  <advance width="886"/>
  <unicode hex="0497"/>
  <outline>
    <contour>
      <point x="889" y="136" type="line"/>
      <point x="654" y="136" type="line"/>
      <point x="654" y="0" type="line"/>
      <point x="889" y="0" type="line"/>
    </contour>
    <contour>
      <point x="889" y="5" type="line"/>
      <point x="735" y="5" type="line"/>
      <point x="750" y="-136" type="line"/>
      <point x="889" y="-136" type="line"/>
    </contour>
    <component base="zhe-cy"/>
  </outline>
</glyph>
